<svg width="681" height="414" viewBox="0 0 681 414" fill="none" xmlns="http://www.w3.org/2000/svg">
<path d="M453.072 144.717C440.369 144.717 430.071 134.419 430.071 121.716C430.071 109.013 440.369 98.7148 453.072 98.7148H504.008C516.75 98.7148 527.602 88.8068 528.055 76.0728C528.53 62.7038 517.834 51.7168 504.571 51.7168H203.677C190.327 51.7168 179.505 62.5388 179.505 75.8888C179.505 89.2388 190.327 100.061 203.677 100.061H247.817C260.299 100.061 270.931 109.767 271.374 122.242C271.84 135.338 261.361 146.102 248.369 146.102H73.7296C52.9696 146.102 36.1406 162.931 36.1406 183.691C36.1406 204.451 52.9696 221.28 73.7296 221.28H358.613L514.356 220.854H621.697C642.721 220.854 659.765 203.81 659.765 182.786C659.765 161.762 642.721 144.718 621.697 144.718L453.072 144.717Z" stroke="#B6C8EF" stroke-linecap="round" stroke-linejoin="round" stroke-dasharray="3 3"/>
<path d="M225.189 56.6624C220.666 52.3414 217.844 46.2544 217.844 39.5054C217.844 26.3984 228.469 15.7734 241.576 15.7734C254.683 15.7734 265.308 26.3984 265.308 39.5054C265.308 52.6124 254.683 63.2374 241.576 63.2374C237.326 63.2374 233.34 62.1144 229.89 60.1574L229.914 60.1754L222.806 64.1344L225.166 56.6454L225.189 56.6624Z" fill="white" stroke="#B6C8EF" stroke-miterlimit="10"/>
<path d="M253.129 49.2466L230.348 48.9766L227.797 32.6056L255.328 32.5566L253.129 49.2466Z" fill="#9FBDFD"/>
<path d="M255.328 32.5567L227.797 32.6057L241.542 21.2637L255.328 32.5567Z" fill="#9FBDFD"/>
<path d="M250.758 30.9369L231.969 30.9707L231.997 46.8417L250.786 46.8079L250.758 30.9369Z" fill="white"/>
<path d="M227.797 32.6055L227.829 50.5045L241.579 42.1625L227.797 32.6055Z" fill="#E3F1FC"/>
<path d="M255.327 32.5566L255.358 50.4556L241.578 42.1626L255.327 32.5566Z" fill="#E3F1FC"/>
<path d="M255.358 50.4551L227.828 50.5041L241.573 39.1621L255.358 50.4551Z" fill="#E3F1FC"/>
<path d="M227.828 50.5041L241.573 39.1621L255.358 50.4551" stroke="#9FBDFD" stroke-width="0.5" stroke-miterlimit="10" stroke-linejoin="round"/>
<path d="M243.555 40.7836L255.33 32.5566" stroke="#9FBDFD" stroke-width="0.5" stroke-miterlimit="10" stroke-linejoin="round"/>
<path d="M239.603 40.7925L227.797 32.6055" stroke="#9FBDFD" stroke-width="0.5" stroke-miterlimit="10" stroke-linejoin="round"/>
<path d="M241.578 1V9.341" stroke="#B6C8EF" stroke-miterlimit="10" stroke-linecap="round" stroke-linejoin="round"/>
<path d="M203.305 39.2695H211.646" stroke="#B6C8EF" stroke-miterlimit="10" stroke-linecap="round" stroke-linejoin="round"/>
<path d="M271.5 39.2695H279.841" stroke="#B6C8EF" stroke-miterlimit="10" stroke-linecap="round" stroke-linejoin="round"/>
<path d="M220.414 18.107L214.516 12.209" stroke="#B6C8EF" stroke-miterlimit="10" stroke-linecap="round" stroke-linejoin="round"/>
<path d="M262.734 18.107L268.632 12.209" stroke="#B6C8EF" stroke-miterlimit="10" stroke-linecap="round" stroke-linejoin="round"/>
<path d="M430.576 84.4317C437.181 78.1217 441.302 69.2337 441.302 59.3777C441.302 40.2387 425.787 24.7227 406.647 24.7227C387.508 24.7227 371.992 40.2377 371.992 59.3777C371.992 78.5167 387.507 94.0327 406.647 94.0327C412.853 94.0327 418.673 92.3937 423.712 89.5357L423.677 89.5617L434.056 95.3427L430.61 84.4067L430.576 84.4317Z" fill="white" stroke="#B6C8EF" stroke-miterlimit="10"/>
<path d="M406.648 3.14844V15.3284" stroke="#B6C8EF" stroke-miterlimit="10" stroke-linecap="round" stroke-linejoin="round"/>
<path d="M462.532 59.0332H450.352" stroke="#B6C8EF" stroke-miterlimit="10" stroke-linecap="round" stroke-linejoin="round"/>
<path d="M362.946 59.0332H350.766" stroke="#B6C8EF" stroke-miterlimit="10" stroke-linecap="round" stroke-linejoin="round"/>
<path d="M437.555 28.1286L446.167 19.5156" stroke="#B6C8EF" stroke-miterlimit="10" stroke-linecap="round" stroke-linejoin="round"/>
<path d="M375.745 28.1286L367.133 19.5156" stroke="#B6C8EF" stroke-miterlimit="10" stroke-linecap="round" stroke-linejoin="round"/>
<path d="M389.555 52.9075C389.555 43.4655 397.21 35.8105 406.652 35.8105C416.094 35.8105 423.749 43.4645 423.749 52.9075C423.749 56.6715 422.532 60.1505 420.471 62.9745C418.031 66.6515 411.69 70.8035 411.69 73.2915V76.1335C411.69 76.7005 411.23 77.1605 410.663 77.1605H407.916H405.391H402.643C402.076 77.1605 401.616 76.7005 401.616 76.1335V73.2915C401.616 70.8035 395.275 66.6525 392.835 62.9745C390.772 60.1505 389.555 56.6705 389.555 52.9075Z" fill="#11BAF9"/>
<path d="M408.596 76.8759C408.576 76.4479 408.27 69.5839 408.819 63.5699C408.146 63.6499 407.425 63.6919 406.654 63.6919C405.883 63.6919 405.163 63.6499 404.489 63.5699C405.038 69.5849 404.732 76.4479 404.712 76.8759L404.411 76.8619C404.416 76.7559 404.733 69.6579 404.171 63.5289C399.1 62.8239 396.83 59.9509 396.423 57.2399C396.185 55.6549 396.726 54.0779 397.71 53.4899C398.307 53.1329 399.028 53.0609 399.796 53.2809C401.004 53.6269 402.151 54.6679 402.866 56.0649C403.691 57.6779 404.179 60.3549 404.461 63.2619C405.141 63.3459 405.871 63.3899 406.655 63.3899C407.438 63.3899 408.169 63.3449 408.849 63.2619C409.13 60.3549 409.618 57.6769 410.444 56.0649C411.159 54.6689 412.306 53.6279 413.514 53.2809C414.281 53.0609 415.003 53.1329 415.599 53.4899C416.583 54.0779 417.124 55.6549 416.886 57.2399C416.478 59.9509 414.209 62.8239 409.138 63.5289C408.576 69.6579 408.893 76.7559 408.898 76.8619L408.596 76.8759ZM414.359 53.4589C414.114 53.4589 413.859 53.4959 413.596 53.5719C412.467 53.8959 411.389 54.8789 410.711 56.2029C409.917 57.7539 409.443 60.3659 409.166 63.2199C414.023 62.5199 416.198 59.7809 416.587 57.1959C416.804 55.7509 416.313 54.2699 415.444 53.7499C415.121 53.5559 414.754 53.4589 414.359 53.4589ZM398.95 53.4589C398.555 53.4589 398.188 53.5559 397.865 53.7489C396.996 54.2689 396.505 55.7499 396.722 57.1949C397.111 59.7809 399.285 62.5189 404.142 63.2189C403.865 60.3649 403.391 57.7529 402.597 56.2019C401.92 54.8779 400.841 53.8949 399.712 53.5709C399.45 53.4959 399.195 53.4589 398.95 53.4589Z" fill="white"/>
<path d="M420.903 53.8889C420.361 53.8889 419.922 53.4499 419.922 52.9079C419.922 46.8249 415.809 41.5349 409.92 40.0439C409.395 39.9109 409.077 39.3769 409.21 38.8519C409.343 38.3269 409.876 38.0079 410.402 38.1419C417.163 39.8539 421.884 45.9259 421.884 52.9079C421.884 53.4489 421.445 53.8889 420.903 53.8889Z" fill="#FFEE99"/>
<path d="M406.32 38.6294C406.32 39.1714 406.759 39.6104 407.301 39.6104C407.843 39.6104 408.282 39.1714 408.282 38.6294C408.282 38.0874 407.843 37.6484 407.301 37.6484C406.759 37.6484 406.32 38.0884 406.32 38.6294Z" fill="#FFEE99"/>
<g opacity="0.55">
<path d="M423.714 53.918C422.77 60.928 417.11 68.186 406.65 68.186C396.19 68.186 390.741 60.589 389.586 53.918C389.783 57.293 390.956 60.405 392.831 62.974C395.271 66.651 401.612 70.803 401.612 73.291V76.133C401.612 76.7 402.072 77.16 402.639 77.16H405.387H407.912H410.659C411.226 77.16 411.686 76.7 411.686 76.133V73.291C411.686 70.803 418.027 66.652 420.467 62.974C422.344 60.404 423.517 57.292 423.714 53.918Z" fill="#11BAF9"/>
</g>
<path d="M412.093 74.5039H401.211V79.6899C401.211 80.5369 401.452 81.3659 401.906 82.0809C402.764 83.4329 404.254 84.2519 405.855 84.2519H407.45C409.051 84.2519 410.541 83.4329 411.399 82.0809C411.853 81.3659 412.094 80.5369 412.094 79.6899V74.5039H412.093Z" fill="#28364C"/>
<path d="M412.093 77.9975C412.062 77.9975 412.03 77.9955 411.999 77.9905L401.117 76.4825C400.746 76.4315 400.486 76.0885 400.538 75.7165C400.59 75.3455 400.933 75.0855 401.304 75.1375L412.186 76.6455C412.557 76.6965 412.817 77.0395 412.765 77.4115C412.717 77.7515 412.426 77.9975 412.093 77.9975Z" fill="#475577"/>
<path d="M412.093 80.3703C412.062 80.3703 412.03 80.3683 411.999 80.3633L401.117 78.8553C400.746 78.8043 400.486 78.4613 400.538 78.0893C400.59 77.7173 400.933 77.4593 401.304 77.5103L412.186 79.0183C412.557 79.0693 412.817 79.4123 412.765 79.7843C412.717 80.1243 412.426 80.3703 412.093 80.3703Z" fill="#475577"/>
<path d="M411.659 82.7046C411.628 82.7046 411.597 82.7026 411.565 82.6976L401.25 81.2676C400.879 81.2166 400.619 80.8736 400.671 80.5016C400.723 80.1306 401.067 79.8706 401.437 79.9226L411.752 81.3526C412.124 81.4036 412.383 81.7466 412.331 82.1186C412.284 82.4586 411.993 82.7046 411.659 82.7046Z" fill="#475577"/>
<path d="M539.316 121.691C539.316 123.5 537.85 124.966 536.041 124.966C534.233 124.966 532.766 123.5 532.766 121.691C532.766 119.882 534.232 118.416 536.041 118.416C537.85 118.417 539.316 119.883 539.316 121.691Z" stroke="#B6C8EF" stroke-miterlimit="10" stroke-linecap="round" stroke-linejoin="round"/>
<path d="M315.112 15.1578C315.112 16.9668 313.646 18.4328 311.837 18.4328C310.028 18.4328 308.562 16.9668 308.562 15.1578C308.562 13.3488 310.028 11.8828 311.837 11.8828C313.646 11.8828 315.112 13.3488 315.112 15.1578Z" stroke="#B6C8EF" stroke-miterlimit="10" stroke-linecap="round" stroke-linejoin="round"/>
<path d="M351.23 88.5894C351.23 90.3984 349.764 91.8645 347.955 91.8645C346.146 91.8645 344.68 90.3984 344.68 88.5894C344.68 86.7804 346.146 85.3145 347.955 85.3145C349.764 85.3145 351.23 86.7804 351.23 88.5894Z" stroke="#B6C8EF" stroke-miterlimit="10" stroke-linecap="round" stroke-linejoin="round"/>
<path d="M636.37 66.8883C636.37 68.6973 634.904 70.1633 633.095 70.1633C631.287 70.1633 629.82 68.6973 629.82 66.8883C629.82 65.0793 631.286 63.6133 633.095 63.6133C634.904 63.6143 636.37 65.0803 636.37 66.8883Z" stroke="#B6C8EF" stroke-miterlimit="10" stroke-linecap="round" stroke-linejoin="round"/>
<path d="M84.925 123.041C84.925 124.85 83.459 126.316 81.65 126.316C79.841 126.316 78.375 124.85 78.375 123.041C78.375 121.232 79.841 119.766 81.65 119.766C83.459 119.766 84.925 121.232 84.925 123.041Z" stroke="#B6C8EF" stroke-miterlimit="10" stroke-linecap="round" stroke-linejoin="round"/>
<path d="M31.4131 138.09L23.2681 140.266C22.5801 140.45 22.4361 141.502 23.0221 142.066L28.8961 147.721C29.3811 148.187 30.0661 148.004 30.2541 147.358L32.5251 139.527C32.7501 138.746 32.1011 137.906 31.4131 138.09Z" stroke="#B6C8EF" stroke-miterlimit="10" stroke-linecap="round" stroke-linejoin="round"/>
<path d="M642.151 172.21L635.315 167.275C634.737 166.858 633.831 167.412 633.765 168.222L633.097 176.349C633.042 177.019 633.618 177.435 634.236 177.172L641.74 173.98C642.488 173.661 642.729 172.627 642.151 172.21Z" stroke="#B6C8EF" stroke-miterlimit="10" stroke-linecap="round" stroke-linejoin="round"/>
<path d="M55.5352 190.348H84.5152" stroke="#B6C8EF" stroke-miterlimit="10" stroke-linecap="round" stroke-linejoin="round"/>
<path d="M385.531 117.648H410.99" stroke="#B6C8EF" stroke-miterlimit="10" stroke-linecap="round" stroke-linejoin="round"/>
<path d="M569.469 157.787H587.432" stroke="#B6C8EF" stroke-miterlimit="10" stroke-linecap="round" stroke-linejoin="round"/>
<path d="M591.742 157.787H600.724" stroke="#B6C8EF" stroke-miterlimit="10" stroke-linecap="round" stroke-linejoin="round"/>
<path d="M267.031 88.5898H284.318" stroke="#B6C8EF" stroke-miterlimit="10" stroke-linecap="round" stroke-linejoin="round"/>
<path d="M280.836 96.6406H294.399" stroke="#B6C8EF" stroke-miterlimit="10" stroke-linecap="round" stroke-linejoin="round"/>
<path d="M136.133 63.6641H150.134" stroke="#B6C8EF" stroke-miterlimit="10" stroke-linecap="round" stroke-linejoin="round"/>
<path d="M147.211 58.627H156.161" stroke="#B6C8EF" stroke-miterlimit="10" stroke-linecap="round" stroke-linejoin="round"/>
<path d="M74.6523 197.18H88.6543" stroke="#B6C8EF" stroke-miterlimit="10" stroke-linecap="round" stroke-linejoin="round"/>
<path d="M16.7969 193.273V198.999" stroke="#B6C8EF" stroke-miterlimit="10" stroke-linecap="round" stroke-linejoin="round"/>
<path d="M19.6596 196.137H13.9336" stroke="#B6C8EF" stroke-miterlimit="10" stroke-linecap="round" stroke-linejoin="round"/>
<path d="M19.6596 196.137H13.9336" stroke="#B6C8EF" stroke-miterlimit="10" stroke-linecap="round" stroke-linejoin="round"/>
<path d="M112.898 74.2969V80.0229" stroke="#B6C8EF" stroke-miterlimit="10" stroke-linecap="round" stroke-linejoin="round"/>
<path d="M115.765 77.1602H110.039" stroke="#B6C8EF" stroke-miterlimit="10" stroke-linecap="round" stroke-linejoin="round"/>
<path d="M115.765 77.1602H110.039" stroke="#B6C8EF" stroke-miterlimit="10" stroke-linecap="round" stroke-linejoin="round"/>
<path d="M373.391 140.16V145.886" stroke="#B6C8EF" stroke-miterlimit="10" stroke-linecap="round" stroke-linejoin="round"/>
<path d="M376.257 143.023H370.531" stroke="#B6C8EF" stroke-miterlimit="10" stroke-linecap="round" stroke-linejoin="round"/>
<path d="M376.257 143.023H370.531" stroke="#B6C8EF" stroke-miterlimit="10" stroke-linecap="round" stroke-linejoin="round"/>
<path d="M504.305 12.9102V18.6362" stroke="#B6C8EF" stroke-miterlimit="10" stroke-linecap="round" stroke-linejoin="round"/>
<path d="M507.171 15.7734H501.445" stroke="#B6C8EF" stroke-miterlimit="10" stroke-linecap="round" stroke-linejoin="round"/>
<path d="M507.171 15.7734H501.445" stroke="#B6C8EF" stroke-miterlimit="10" stroke-linecap="round" stroke-linejoin="round"/>
<path d="M614.172 130.268V135.994" stroke="#B6C8EF" stroke-miterlimit="10" stroke-linecap="round" stroke-linejoin="round"/>
<path d="M617.039 133.131H611.312" stroke="#B6C8EF" stroke-miterlimit="10" stroke-linecap="round" stroke-linejoin="round"/>
<path d="M617.039 133.131H611.312" stroke="#B6C8EF" stroke-miterlimit="10" stroke-linecap="round" stroke-linejoin="round"/>
<path d="M677.266 233.588V239.314" stroke="#B6C8EF" stroke-miterlimit="10" stroke-linecap="round" stroke-linejoin="round"/>
<path d="M680.132 236.451H674.406" stroke="#B6C8EF" stroke-miterlimit="10" stroke-linecap="round" stroke-linejoin="round"/>
<path d="M680.132 236.451H674.406" stroke="#B6C8EF" stroke-miterlimit="10" stroke-linecap="round" stroke-linejoin="round"/>
<path d="M176.567 36.3612C176.553 36.3462 176.448 36.3612 176.429 36.3612C168.943 36.3612 161.457 36.3612 153.971 36.3612C140.687 36.3612 127.402 36.3612 114.118 36.3612C104.315 36.3612 101.286 36.0482 91.5013 36.3322C91.3903 30.2952 93.0723 24.6052 95.9603 21.5572C98.3313 19.0542 102.414 17.6862 105.746 18.5682C109.966 19.6842 112.829 22.5092 115.566 24.6052C116.534 16.2892 119.97 8.71021 123.663 7.05621C130.02 4.20921 136.663 8.72221 139.645 13.1072C142.102 16.7202 143.45 21.0132 143.949 25.3532C147.94 20.9432 156.864 17.5772 160.079 24.5722C161.342 27.3202 161.239 30.4742 161.111 33.4952C166.343 32.0862 172.181 33.1872 176.567 36.3612Z" fill="#E3F1FC"/>
<path d="M530.07 107.555C531.472 101.862 544.701 93.5522 551.767 98.5692C552.096 91.7992 555.255 84.4722 563.057 80.2432C572.633 75.0522 581.829 85.3762 583.875 91.8892C585.771 85.8752 595.435 77.7842 603.199 84.6142C610.382 90.9332 611.099 101.525 610.353 107.556L530.07 107.555Z" fill="#E3F1FC"/>
<path d="M496.964 299.87L514.843 182.592C515.278 179.738 517.734 177.629 520.621 177.629H599.543L579.421 307.16C578.058 315.937 570.739 322.117 561.707 322.117H443.121C439.844 322.117 437.188 319.46 437.188 316.183C437.188 312.906 439.844 310.249 443.121 310.249H484.708C490.967 310.249 496.036 305.957 496.964 299.87Z" fill="#C7D2EF"/>
<path d="M576.409 299.87L594.356 182.154C594.76 179.5 596.97 177.629 599.699 177.629H599.863C603.686 177.629 606.814 181.208 606.237 184.924L587.249 307.16C585.885 315.937 578.566 322.117 569.534 322.117H483.52C480.243 322.117 477.586 319.46 477.586 316.183C477.586 312.906 480.243 310.249 483.52 310.249H564.154C570.413 310.249 575.481 305.957 576.409 299.87Z" fill="#E3EDFF"/>
<path d="M519.594 322.117V393.842" stroke="#11BAF9" stroke-miterlimit="10"/>
<path d="M556.996 399.736C556.996 396.481 554.358 393.842 551.103 393.842H488.082C484.827 393.842 482.188 396.481 482.188 399.736" stroke="#11BAF9" stroke-miterlimit="10"/>
<path d="M526.035 399.736C526.035 396.481 523.396 393.842 520.141 393.842" stroke="#11BAF9" stroke-miterlimit="10"/>
<path d="M551.047 405.687C551.047 408.974 553.711 411.638 556.998 411.638C560.285 411.638 562.949 408.974 562.949 405.687C562.949 402.4 560.285 399.736 556.998 399.736C553.711 399.736 551.047 402.401 551.047 405.687Z" fill="#E3EDFF"/>
<g opacity="0.45">
<path d="M554.812 405.688C554.812 406.895 555.791 407.874 556.998 407.874C558.205 407.874 559.185 406.895 559.185 405.688C559.185 404.481 558.205 403.502 556.998 403.502C555.791 403.503 554.812 404.481 554.812 405.688Z" fill="#B7C2CE"/>
</g>
<path d="M520.086 405.687C520.086 408.974 522.75 411.638 526.037 411.638C529.324 411.638 531.988 408.974 531.988 405.687C531.988 402.4 529.324 399.736 526.037 399.736C522.75 399.736 520.086 402.401 520.086 405.687Z" fill="#E3EDFF"/>
<g opacity="0.45">
<path d="M523.852 405.686C523.852 406.893 524.831 407.872 526.038 407.872C527.245 407.872 528.224 406.893 528.224 405.686C528.224 404.479 527.245 403.5 526.038 403.5C524.831 403.501 523.852 404.479 523.852 405.686Z" fill="#B7C2CE"/>
</g>
<path d="M476.234 405.687C476.234 408.974 478.898 411.638 482.185 411.638C485.472 411.638 488.136 408.974 488.136 405.687C488.136 402.4 485.472 399.736 482.185 399.736C478.898 399.736 476.234 402.401 476.234 405.687Z" fill="#E3EDFF"/>
<g opacity="0.45">
<path d="M480 405.688C480 406.895 480.979 407.874 482.186 407.874C483.393 407.874 484.372 406.895 484.372 405.688C484.372 404.481 483.393 403.502 482.186 403.502C480.979 403.503 480 404.481 480 405.688Z" fill="#B7C2CE"/>
</g>
<path d="M326.275 299.87L308.394 182.592C307.959 179.738 305.504 177.629 302.617 177.629H223.695L243.816 307.16C245.179 315.937 252.499 322.117 261.531 322.117H380.116C383.393 322.117 386.05 319.46 386.05 316.183C386.05 312.906 383.393 310.249 380.116 310.249H338.529C332.271 310.249 327.203 305.957 326.275 299.87Z" fill="#C7D2EF"/>
<path d="M246.827 299.87L228.88 182.154C228.476 179.5 226.266 177.629 223.537 177.629H223.373C219.55 177.629 216.422 181.208 216.999 184.924L235.987 307.16C237.35 315.937 244.67 322.117 253.702 322.117H339.716C342.993 322.117 345.65 319.46 345.65 316.183C345.65 312.906 342.993 310.249 339.716 310.249H259.082C252.823 310.249 247.755 305.957 246.827 299.87Z" fill="#E3EDFF"/>
<path d="M303.656 322.117V393.842" stroke="#11BAF9" stroke-miterlimit="10"/>
<path d="M266.25 399.736C266.25 396.481 268.889 393.842 272.144 393.842H335.165C338.42 393.842 341.059 396.481 341.059 399.736" stroke="#11BAF9" stroke-miterlimit="10"/>
<path d="M297.203 399.736C297.203 396.481 299.842 393.842 303.097 393.842" stroke="#11BAF9" stroke-miterlimit="10"/>
<path d="M272.199 405.687C272.199 408.974 269.535 411.638 266.248 411.638C262.961 411.638 260.297 408.974 260.297 405.687C260.297 402.4 262.961 399.736 266.248 399.736C269.535 399.736 272.199 402.401 272.199 405.687Z" fill="#E3EDFF"/>
<g opacity="0.45">
<path d="M268.435 405.688C268.435 406.895 267.456 407.874 266.249 407.874C265.042 407.874 264.062 406.895 264.062 405.688C264.062 404.481 265.042 403.502 266.249 403.502C267.456 403.503 268.435 404.481 268.435 405.688Z" fill="#B7C2CE"/>
</g>
<path d="M303.152 405.687C303.152 408.974 300.488 411.638 297.201 411.638C293.914 411.638 291.25 408.974 291.25 405.687C291.25 402.4 293.914 399.736 297.201 399.736C300.488 399.736 303.152 402.401 303.152 405.687Z" fill="#E3EDFF"/>
<g opacity="0.45">
<path d="M299.388 405.686C299.388 406.893 298.409 407.872 297.202 407.872C295.995 407.872 295.016 406.893 295.016 405.686C295.016 404.479 295.995 403.5 297.202 403.5C298.409 403.501 299.388 404.479 299.388 405.686Z" fill="#B7C2CE"/>
</g>
<path d="M347.011 405.687C347.011 408.974 344.347 411.638 341.06 411.638C337.773 411.638 335.109 408.974 335.109 405.687C335.109 402.4 337.773 399.736 341.06 399.736C344.347 399.736 347.011 402.401 347.011 405.687Z" fill="#E3EDFF"/>
<g opacity="0.45">
<path d="M343.247 405.688C343.247 406.895 342.268 407.874 341.061 407.874C339.854 407.874 338.875 406.895 338.875 405.688C338.875 404.481 339.854 403.502 341.061 403.502C342.269 403.503 343.247 404.481 343.247 405.688Z" fill="#B7C2CE"/>
</g>
<path d="M365.453 363.993L368.191 397.123L367.9 407.99L410.508 407.773C411.548 407.768 412.387 406.92 412.382 405.879C412.378 405.099 411.894 404.403 411.166 404.127L392.79 395.677L391.732 361.148" fill="#F9A895"/>
<path d="M414.249 407.315C413.814 405.95 413.014 404.417 412.208 404.07L392.724 395.678C381.984 400.031 368.082 396.704 368.082 396.704L365.602 411.374C365.605 411.86 366 412.251 366.486 412.249H413.923C414.877 412.244 414.262 407.358 414.249 407.315Z" fill="#FF8D27"/>
<path d="M396.935 396.518C395.843 397.941 394.919 399.493 394.188 401.13" stroke="#DD5E17" stroke-width="0.75" stroke-miterlimit="10"/>
<path d="M399.391 397.986C398.26 399.552 397.808 400.456 397.133 401.908" stroke="#DD5E17" stroke-width="0.75" stroke-miterlimit="10"/>
<path d="M401.461 399.055C400.693 400.087 399.94 401.514 399.344 402.654" stroke="#DD5E17" stroke-width="0.75" stroke-miterlimit="10"/>
<path d="M365.852 409.083L414.448 408.834" stroke="#DD5E17" stroke-width="0.75" stroke-miterlimit="10"/>
<path d="M367.195 401.908C367.195 401.908 378.611 402.14 379.593 409.018" stroke="#DD5E17" stroke-width="0.75" stroke-miterlimit="10"/>
<path d="M408.213 402.35C408.213 402.35 405.065 406.823 404.445 408.886" stroke="#DD5E17" stroke-width="0.75" stroke-miterlimit="10"/>
<path d="M345.25 363.993L345.832 397.123L345.541 407.99L388.149 407.773C389.189 407.768 390.028 406.92 390.023 405.879C390.019 405.099 389.535 404.403 388.807 404.127L370.431 395.677L371.529 361.148" fill="#FFCBBB"/>
<path d="M391.889 407.315C391.454 405.95 390.654 404.417 389.848 404.07L370.364 395.678C359.624 400.031 345.722 396.704 345.722 396.704L343.242 411.374C343.245 411.86 343.64 412.251 344.126 412.249H391.563C392.517 412.244 391.903 407.358 391.889 407.315Z" fill="#11BAF9"/>
<path d="M374.583 396.518C373.491 397.941 372.568 399.493 371.836 401.13" stroke="#ED841B" stroke-width="0.75" stroke-miterlimit="10"/>
<path d="M377.031 397.986C375.9 399.552 375.448 400.456 374.773 401.908" stroke="#ED841B" stroke-width="0.75" stroke-miterlimit="10"/>
<path d="M379.109 399.055C378.341 400.087 377.588 401.514 376.992 402.654" stroke="#ED841B" stroke-width="0.75" stroke-miterlimit="10"/>
<path d="M343.492 409.083L392.089 408.834" stroke="#ED841B" stroke-width="0.75" stroke-miterlimit="10"/>
<path d="M344.844 401.908C344.844 401.908 356.26 402.14 357.242 409.018" stroke="#ED841B" stroke-width="0.75" stroke-miterlimit="10"/>
<path d="M385.854 402.35C385.854 402.35 382.706 406.823 382.086 408.886" stroke="#ED841B" stroke-width="0.75" stroke-miterlimit="10"/>
<path d="M279.041 259.898C279.041 259.898 271.441 289.201 281.907 303.691C286.517 310.074 294.413 310.248 302.036 310.248H347.016C350.799 310.248 353.952 313.143 354.275 316.912L360.351 387.952H396.848C396.848 387.952 393.195 326.804 392.215 314.657C391.423 304.839 389.637 291.558 385.792 282.968C380.63 271.436 370.983 265.54 361.185 265.54H344.295C343.431 265.54 342.73 264.839 342.73 263.976V260.305" fill="#11BAF9"/>
<path d="M360.812 380.385H396.372" stroke="#11BAF9" stroke-width="0.75" stroke-miterlimit="10"/>
<path d="M257.431 259.898C257.431 259.898 249.831 289.201 260.297 303.691C264.907 310.074 272.803 310.248 280.426 310.248H325.406C329.189 310.248 332.342 313.143 332.665 316.912L338.741 387.952H375.238C375.238 387.952 371.292 326.824 370.605 314.657C369.919 302.49 368.908 291.107 364.182 282.968C356.795 270.248 343.859 265.739 329.638 265.739C315.417 265.739 302.768 265.739 302.768 265.739V258.643" fill="#0496CD"/>
<path d="M264.059 262.191C264.059 262.191 259.351 288.696 266.723 297.359C270.706 302.04 278.044 302.269 283.603 302.269H332.441C336.07 302.269 339.09 305.059 339.376 308.677L345.649 387.952" stroke="#11BAF9" stroke-width="0.75" stroke-miterlimit="10"/>
<path d="M338.094 380.385H374.751" stroke="#11BAF9" stroke-width="0.75" stroke-miterlimit="10"/>
<path d="M281.293 263.807C277.684 272.073 262.93 271.436 262.93 271.436" stroke="#11BAF9" stroke-width="0.75" stroke-miterlimit="10"/>
<path d="M292.546 142.1C292.516 141.62 291.929 141.363 291.452 141.428C290.774 141.52 290.207 142.034 289.899 142.645C289.591 143.256 289.508 143.956 289.488 144.64C289.47 145.276 289.509 145.937 289.801 146.501C290.322 147.506 291.679 147.975 292.709 147.506" fill="#F9BBAF"/>
<path d="M293.312 133.857C293.312 133.857 289.352 148.958 291.528 152.055C294.787 156.694 302.539 157.051 305.807 154.91C308.547 153.114 310.797 143.491 310.797 140.994C310.797 134.214 296.88 130.289 293.312 133.857Z" fill="#FFCBBB"/>
<path d="M293.211 139.35C293.094 139.631 292.992 139.919 292.908 140.212C292.767 140.701 293.527 140.909 293.669 140.422C293.754 140.13 293.823 139.833 293.874 139.533C293.951 139.09 293.38 138.944 293.211 139.35Z" fill="#11BAF9"/>
<path d="M294.807 137.804C294.807 137.804 293.785 136.396 292.273 137.475" stroke="#11BAF9" stroke-width="0.5" stroke-miterlimit="10" stroke-linecap="round" stroke-linejoin="round"/>
<path d="M301.249 141.202C301.148 141.488 301.064 141.781 300.996 142.077C300.883 142.571 301.643 142.782 301.757 142.287C301.832 141.96 301.886 141.627 301.924 141.294C301.972 140.887 301.37 140.859 301.249 141.202Z" fill="#11BAF9"/>
<path d="M300.891 138.552C300.891 138.552 302.551 138.006 304.246 139.979" stroke="#11BAF9" stroke-width="0.5" stroke-miterlimit="10" stroke-linecap="round" stroke-linejoin="round"/>
<path d="M295.743 153.839L294.406 165.257C294.406 165.257 294.985 170.253 302.478 170.253C309.971 170.253 315.341 164.901 315.341 164.901L312.729 145.318" fill="#FFCBBB"/>
<path d="M296.172 155.738C296.172 155.738 301.371 156.762 304.952 154.84C307.777 153.324 308.794 149.812 308.794 149.812" stroke="#F7A794" stroke-miterlimit="10"/>
<path d="M297.483 140.234C297.483 140.234 294.983 143.722 295.237 144.536C295.578 145.627 297.483 145.351 297.483 145.351" stroke="#F7A794" stroke-width="0.5" stroke-miterlimit="10" stroke-linejoin="round"/>
<path d="M305.541 144.515C304.868 145.706 303.189 146.559 301.349 146.759C297.984 147.126 294.22 145.655 290.871 146.02C290.123 146.102 290.076 149.558 290.087 150.661C290.101 151.97 290.377 153.36 291.044 154.487C291.695 155.587 292.9 156.241 294.109 156.655C296.657 157.529 299.408 157.55 302.043 157.109C303.334 156.893 304.439 156.756 305.558 156.074C306.69 155.385 307.714 154.634 308.577 153.615C309.547 152.469 310.306 151.069 311.579 150.217C313.071 149.218 314.674 149.291 315.506 147.413C316.011 146.274 316.076 144.995 316.131 143.75C316.24 141.299 316.213 138.839 316.066 136.37C315.707 130.326 310.799 127.59 305.85 126.988C303.623 126.717 300.379 126.634 298.138 126.561C296.33 126.502 293.841 125.76 292.177 126.672C289.277 128.261 290.277 133.298 293.212 134.227C296.419 135.241 301.406 134.128 304.744 134.546C307.07 134.837 307.061 138.193 307.111 138.601C307.389 140.833 306.544 142.741 305.541 144.515Z" fill="#011E3B"/>
<path d="M298.258 149.269L293.222 148.67C293.222 148.67 292.387 152.297 295.43 152.542C298.242 152.769 298.258 149.269 298.258 149.269Z" fill="white"/>
<path d="M310.992 142.853C311.56 143.068 312.004 143.559 312.293 144.125C313.649 146.783 310.487 150.359 307.666 149.138C306.63 148.69 307.012 145.928 309.053 143.271C309.506 142.681 310.424 142.638 310.992 142.853Z" fill="#FFCBBB"/>
<path d="M353.94 198.668C353.94 198.668 358.129 220.583 361.216 227.971C364.303 235.359 381.219 234.648 381.219 234.648L375.842 249.419C375.842 249.419 347.704 252.106 341.727 242.215C333.214 228.128 333.628 202.994 333.628 202.994" fill="#FFCBBB"/>
<path d="M369.594 234.956C369.594 234.956 390.55 234.132 391.025 235.075C391.5 236.018 387.459 236.089 387.993 236.79C388.527 237.491 397.826 237.081 398.049 238.149C398.351 239.597 389.93 239.754 389.93 239.754C389.93 239.754 399.162 240.041 399.061 241.374C398.989 242.318 391.933 242.422 389.241 242.8C392.21 242.761 397.028 243.269 396.933 244.247C396.839 245.217 392.037 245.39 388.364 245.719C390.675 245.728 394.88 245.971 394.834 246.879C394.789 247.784 378.175 249.072 367.164 249.804" fill="#FFCBBB"/>
<path d="M315.133 161.895C348.327 167.734 356.353 202.308 356.353 202.308L332.738 210.032L319.587 176.378" fill="#11BAF9"/>
<path d="M316.673 161.895C316.673 161.895 335.482 168.537 340.148 190.204C344.815 211.871 345.063 239.114 342.665 262.89C304.113 267.628 255.817 264.164 255.817 264.164C255.817 264.164 252.997 204.023 266.148 185.537C279.298 167.051 292.962 162.736 292.962 162.736L305.39 167.439L316.673 161.895Z" fill="#11BAF9"/>
<path d="M291.547 248.016H334.789V250.438H289.125C289.125 249.1 290.21 248.016 291.547 248.016Z" fill="#91A9D8"/>
<path d="M387.481 250.438H326.727L338.344 213.107C338.94 211.193 340.711 209.889 342.716 209.889H397.643C398.862 209.889 399.732 211.07 399.369 212.234L387.481 250.438Z" fill="#91A9D8"/>
<path d="M390.207 250.438H329.453L341.07 213.107C341.666 211.193 343.437 209.889 345.442 209.889H400.369C401.588 209.889 402.458 211.07 402.095 212.234L390.207 250.438Z" fill="#C7D2EF"/>
<path d="M372.286 230.771C371.93 232.513 369.819 233.925 367.571 233.925C365.323 233.925 363.789 232.513 364.145 230.771C364.501 229.029 366.612 227.617 368.86 227.617C371.108 227.617 372.642 229.029 372.286 230.771Z" fill="#91A9D8"/>
<path d="M280.23 206.393C280.23 206.393 272.315 224.695 273.626 227.923C274.936 231.151 308.797 233.454 308.797 233.454L307.728 250.14C307.728 250.14 269.832 250.437 253.429 250.437C232.612 250.437 251.909 200.141 251.909 200.141" fill="#FFCBBB"/>
<path d="M298.193 232.615C298.193 232.615 323.343 233.978 323.805 235.158C324.267 236.339 319.427 235.971 319.987 236.87C320.547 237.768 331.713 238.319 331.86 239.622C332.059 241.388 321.972 240.632 321.972 240.632C321.972 240.632 332.979 242.01 332.709 243.592C332.517 244.712 324.069 244.047 320.808 244.197C324.362 244.483 330.067 245.63 329.843 246.789C329.621 247.938 323.861 247.608 319.432 247.589C322.195 247.859 327.195 248.621 327.039 249.701C326.884 250.778 306.874 250.457 293.625 250.099" fill="#FFCBBB"/>
<path d="M293.628 163.376C257.509 161.176 248.617 203.593 248.617 203.593L281.384 210.032L286.818 187.951" fill="#11BAF9"/>
<path d="M295.015 160.076C299.11 164.171 305.394 167.438 305.394 167.438C305.35 167.544 303.335 171.477 301.181 175.186C301.181 175.186 292.93 168.66 289.945 163.311C289.945 163.311 293.816 160.597 295.015 160.076Z" fill="white"/>
<path d="M305.391 167.439L310.345 174.525C310.345 174.525 314.894 171.972 318.285 162.411C318.285 162.411 316.44 159.932 314.536 158.871C312.283 161.858 305.391 167.439 305.391 167.439Z" fill="white"/>
<path d="M280.422 209.843L286.782 193.121" stroke="#E2690E" stroke-miterlimit="10"/>
<path d="M343.213 206.514C341.46 194.401 336.609 183.758 336.609 183.758" stroke="#E2690E" stroke-miterlimit="10"/>
<path d="M466.234 257.805V412.603" stroke="#11BAF9" stroke-miterlimit="10"/>
<path d="M216.93 257.805V412.603" stroke="#11BAF9" stroke-miterlimit="10"/>
<g opacity="0.55">
<path d="M404.843 234.616C404.843 234.616 405.443 234.505 405.687 234.166C406.191 233.467 405.357 232.725 404.814 232.379C404.118 231.935 403.159 231.783 402.822 230.927C402.442 229.961 403.1 228.894 403.896 228.367C404.566 227.924 405.352 227.7 406.104 227.418C406.942 227.103 407.79 226.599 408.282 225.813C408.895 224.832 408.772 223.569 408.852 222.463C409.167 218.135 413.59 215.99 417.317 215.902C419.18 215.858 422.026 216.525 423.265 217.973C423.68 218.458 423.996 219.035 424.115 219.666C424.299 220.642 423.921 221.543 423.287 222.273C422.649 223.006 421.769 223.431 421.07 224.09C420.348 224.771 420.862 225.488 420.697 226.299C420.513 227.202 419.909 227.586 419.125 228.023C417.471 228.945 415.525 229.175 413.726 229.677C413.166 229.833 412.6 230.023 412.147 230.387C411.56 230.859 411.226 231.569 410.781 232.177C409.97 233.284 408.738 234.074 407.394 234.349" fill="url(#paint0_linear_199_1188)"/>
</g>
<path d="M415.207 245.509H411.672V243.824H415.207C416.346 243.824 417.272 242.897 417.272 241.759V238.854C417.272 237.715 416.345 236.789 415.207 236.789H411.672V235.104H415.207C417.275 235.104 418.958 236.787 418.958 238.854V241.759C418.958 243.826 417.275 245.509 415.207 245.509Z" fill="#E8EAEF"/>
<path d="M408.195 249.945H406.179C402.797 249.945 400.055 247.203 400.055 243.821V232.713H414.318V243.821C414.319 247.204 411.578 249.945 408.195 249.945Z" fill="#E8EAEF"/>
<path d="M397.75 247.539C397.75 247.539 397.888 250.894 403.102 250.894H411.278C416.492 250.894 416.63 247.539 416.63 247.539H397.75Z" fill="#CFDAE5"/>
<path d="M474.691 250.439H205.867V259.365H474.691V250.439Z" fill="#F0F6FF"/>
<path d="M425.475 250.415L422.535 250.439L409.523 211.56C409.22 210.825 409.757 210.016 410.552 210.01C411.324 210.004 412.022 210.467 412.316 211.181L425.475 250.415Z" fill="#7D97D3"/>
<path d="M472.271 248.018H423.984V250.44H474.693C474.693 249.102 473.608 248.018 472.271 248.018Z" fill="#7D97D3"/>
<path d="M167.312 114.049L168.459 125.546C168.459 125.546 167.544 128.8 161.178 129.503C153.465 130.355 150.133 124.479 150.133 124.479L151.694 113.795" fill="#F49C84"/>
<path d="M171.622 99.8225C171.622 99.8225 176.161 114.233 169.72 118.025C163.879 121.464 154.113 116.11 153.542 114.286C152.971 112.462 150.382 96.9495 154.099 95.7865C160.705 93.7185 169.683 93.6285 171.622 99.8225Z" fill="#F49C84"/>
<path d="M167.722 119.481C167.722 119.481 161.6 121.073 157.039 117.045" stroke="#C45F47" stroke-width="0.75" stroke-miterlimit="10"/>
<path d="M175.82 91.6107C175.064 90.3107 173.758 89.3087 172.274 89.0127C170.852 88.7297 169.266 88.9927 168.037 88.2247C167.719 88.0257 167.442 87.7667 167.129 87.5587C166.113 86.8837 164.781 86.8157 163.607 87.1447C162.433 87.4737 161.391 88.1597 160.43 88.9097C159.726 89.4587 159.031 90.0597 158.185 90.3477C156.636 90.8737 154.935 90.2457 153.308 90.4147C151.45 90.6067 149.757 91.9347 149.126 93.6927C148.482 95.4887 148.884 97.5927 147.96 99.2617C147.48 100.131 146.671 100.811 146.329 101.743C145.872 102.987 146.351 104.378 146.987 105.541C147.574 106.613 148.283 107.621 148.624 108.808C148.876 109.684 149.008 110.587 149.3 111.454C149.87 113.145 150.91 114.666 152.829 114.837C153.511 114.898 154.261 114.941 154.814 114.538C155.36 114.14 155.554 113.419 155.636 112.748C155.769 111.654 155.692 110.538 155.429 109.467C156.09 109.825 156.713 110.423 157.454 110.315C157.698 110.279 157.86 110.088 158.035 109.913C159.63 108.317 157.82 105.735 157.631 104.069C157.424 102.24 159.139 100.444 160.975 100.566C161.773 100.619 162.544 100.974 163.341 100.91C164.902 100.785 165.944 99.1477 167.463 98.7637C168.865 98.4087 170.347 98.8027 171.758 98.8307C174.196 98.8797 176.412 96.6777 176.504 94.2407C176.539 93.3137 176.282 92.4067 175.82 91.6107Z" fill="#173789"/>
<path d="M156.335 109.221C155.786 107.866 154.828 106.234 153.327 107.153C152.796 107.478 152.501 108.172 152.294 108.845C151.606 111.081 153.21 114.531 155.406 114.212C156.476 114.056 157.07 112.786 157.506 111.739" fill="#F49C84"/>
<path d="M167.325 105.566C167.325 105.566 169.356 109.238 169.016 110C168.561 111.021 166.742 110.535 166.742 110.535" stroke="#C45F47" stroke-width="0.75" stroke-miterlimit="10"/>
<path d="M165.719 113.097L170.574 112.512C170.574 112.512 170.937 115.953 168.753 116.472C166.069 117.11 165.719 113.097 165.719 113.097Z" fill="white"/>
<path d="M170.343 104.787C170.395 105.086 170.464 105.384 170.548 105.676C170.689 106.163 171.451 105.956 171.309 105.466C171.224 105.174 171.123 104.885 171.006 104.604C170.837 104.199 170.266 104.343 170.343 104.787Z" fill="#00276F"/>
<path d="M169.414 103.058C169.414 103.058 170.436 101.65 171.948 102.729" stroke="#00276F" stroke-width="0.5" stroke-miterlimit="10" stroke-linecap="round" stroke-linejoin="round"/>
<path d="M162.3 106.549C162.338 106.882 162.392 107.215 162.467 107.542C162.581 108.037 163.341 107.827 163.228 107.332C163.16 107.036 163.076 106.743 162.975 106.457C162.856 106.118 162.252 106.139 162.3 106.549Z" fill="#00276F"/>
<path d="M163.324 103.808C163.324 103.808 161.664 103.262 159.969 105.235" stroke="#00276F" stroke-width="0.5" stroke-miterlimit="10" stroke-linecap="round" stroke-linejoin="round"/>
<path d="M174.078 363.993L178.193 397.123L177.902 407.99L220.51 407.773C221.55 407.768 222.389 406.92 222.384 405.879C222.38 405.099 221.896 404.403 221.168 404.127L202.792 395.677L200.356 361.148" fill="#F49C84"/>
<path d="M224.131 407.315C223.696 405.95 222.896 404.417 222.09 404.07L202.606 395.678C191.866 400.031 177.964 396.704 177.964 396.704L175.484 411.374C175.487 411.86 175.882 412.251 176.368 412.249H223.805C224.759 412.244 224.144 407.358 224.131 407.315Z" fill="#11BAF9"/>
<path d="M206.825 396.518C205.733 397.941 204.81 399.493 204.078 401.13" stroke="#11BAF9" stroke-width="0.75" stroke-miterlimit="10"/>
<path d="M209.281 397.986C208.15 399.552 207.698 400.456 207.023 401.908" stroke="#11BAF9" stroke-width="0.75" stroke-miterlimit="10"/>
<path d="M211.351 399.055C210.583 400.087 209.83 401.514 209.234 402.654" stroke="#11BAF9" stroke-width="0.75" stroke-miterlimit="10"/>
<path d="M175.734 409.083L224.33 408.834" stroke="#11BAF9" stroke-width="0.75" stroke-miterlimit="10"/>
<path d="M177.086 401.908C177.086 401.908 188.502 402.14 189.484 409.018" stroke="#11BAF9" stroke-width="0.75" stroke-miterlimit="10"/>
<path d="M218.104 402.35C218.104 402.35 214.956 406.823 214.336 408.886" stroke="#11BAF9" stroke-width="0.75" stroke-miterlimit="10"/>
<path d="M194.078 221.393C201.132 272.071 206.506 391.785 206.506 391.785H167.753C167.753 391.785 161.654 303.692 155.364 248.771C144.899 228.254 140.684 214.12 142.556 205.512" fill="#223082"/>
<path d="M172.756 391.784C172.756 391.784 166.657 303.691 160.367 248.77" stroke="#0D1735" stroke-width="0.75" stroke-miterlimit="10"/>
<path d="M121.382 363.993L118.963 397.123L118.672 407.99L161.28 407.773C162.32 407.768 163.159 406.92 163.154 405.879C163.15 405.099 162.666 404.403 161.938 404.127L143.562 395.677L147.66 361.148" fill="#F49C84"/>
<path d="M164.905 407.315C164.47 405.95 163.67 404.417 162.864 404.07L143.38 395.678C132.64 400.031 118.738 396.704 118.738 396.704L116.258 411.374C116.261 411.86 116.656 412.251 117.142 412.249H164.579C165.533 412.244 164.918 407.358 164.905 407.315Z" fill="#11BAF9"/>
<path d="M147.599 396.518C146.507 397.941 145.584 399.493 144.852 401.13" stroke="#11BAF9" stroke-width="0.75" stroke-miterlimit="10"/>
<path d="M150.047 397.986C148.916 399.552 148.464 400.456 147.789 401.908" stroke="#11BAF9" stroke-width="0.75" stroke-miterlimit="10"/>
<path d="M152.125 399.055C151.357 400.087 150.604 401.514 150.008 402.654" stroke="#11BAF9" stroke-width="0.75" stroke-miterlimit="10"/>
<path d="M116.508 409.083L165.104 408.834" stroke="#11BAF9" stroke-width="0.75" stroke-miterlimit="10"/>
<path d="M117.859 401.908C117.859 401.908 129.275 402.14 130.257 409.018" stroke="#11BAF9" stroke-width="0.75" stroke-miterlimit="10"/>
<path d="M158.87 402.35C158.87 402.35 155.722 406.823 155.102 408.886" stroke="#11BAF9" stroke-width="0.75" stroke-miterlimit="10"/>
<path d="M119.215 216.701C116.036 225.39 115.286 240.739 118.743 255.452C118.976 256.442 119.083 257.451 119.032 258.466C116.008 319.317 112.906 391.784 112.906 391.784H151.189C151.189 391.784 165.626 240.621 168.465 215.598" fill="#223082"/>
<path d="M125.215 216.701C122.036 225.39 121.286 240.739 124.743 255.452C124.976 256.442 125.083 257.451 125.032 258.466C122.008 319.317 118.906 391.784 118.906 391.784" stroke="#0D1735" stroke-width="0.75" stroke-miterlimit="10"/>
<path d="M160.258 297.645C160.258 297.645 166.098 238.326 167.901 224.236" stroke="#0D1735" stroke-width="0.75" stroke-miterlimit="10"/>
<path d="M122.844 243.69C122.844 243.69 133.607 241.495 139.195 230.518" stroke="#0D1735" stroke-width="0.75" stroke-miterlimit="10"/>
<path d="M165.984 241.299C165.984 241.299 169.732 240.701 170.131 239.299C170.53 237.897 172.526 225.607 172.526 225.607" stroke="#0D1735" stroke-width="0.75" stroke-miterlimit="10"/>
<path d="M184.703 227.922C184.703 227.922 187.241 239.999 196.351 240.447" stroke="#0D1735" stroke-width="0.75" stroke-miterlimit="10"/>
<path d="M113.219 384.57H151.88" stroke="#0D1735" stroke-width="0.75" stroke-miterlimit="10"/>
<path d="M167.242 384.57H206.169" stroke="#0D1735" stroke-width="0.75" stroke-miterlimit="10"/>
<path d="M203.479 153.442C203.479 153.442 212.066 166.617 215.246 166.966C220.298 167.52 244.841 148.982 244.841 148.982L257.312 163.293C257.312 163.293 233.789 191.02 214.36 192.249C199.082 193.215 180.781 168.989 180.781 168.989" fill="#F49C84"/>
<path d="M237.094 154.617C237.094 154.617 258.201 138.222 259.261 138.556C260.322 138.89 257.408 141.994 258.33 142.105C259.252 142.216 265.94 135.355 266.91 135.971C268.225 136.806 261.346 143.35 261.346 143.35C261.346 143.35 269.344 136.63 270.275 137.685C270.935 138.432 263.089 145.935 263.089 145.935C263.089 145.935 271.021 140.143 271.69 140.932C272.353 141.716 265.346 148.38 265.346 148.38C265.346 148.38 270.849 143.549 271.735 144.359C272.62 145.169 260.924 160.126 250.769 170.254" fill="#F49C84"/>
<path d="M256.841 143.021C256.841 143.021 255.308 146.838 253.383 149.783" stroke="#C45F47" stroke-width="0.75" stroke-miterlimit="10"/>
<path d="M255.961 151.573C258.212 149.275 261.203 148.873 264.012 149.004" stroke="#C45F47" stroke-width="0.75" stroke-miterlimit="10"/>
<path d="M150.361 123.041C150.361 123.041 153.436 126.922 159.175 127.407C164.914 127.892 168.46 124.847 168.46 124.847C168.46 124.847 186.61 133.998 191.735 172.123C196.86 210.248 197.36 230.206 197.36 230.206H116.24C116.24 230.206 106.076 134.749 150.361 123.041Z" fill="#11BAF9"/>
<path d="M168.461 124.846C173.598 124.846 181.089 126.881 185.969 130.355C196.433 137.804 199.633 146.448 209.366 159.69L185.877 176.269L168.461 124.846Z" fill="#11BAF9"/>
<path d="M153.589 252.645L118.414 235.488L141.373 188.043L176.548 205.2L153.589 252.645Z" fill="#D1F2FF"/>
<path d="M168.752 202.905L148.992 193.266L150.301 190.581C150.5 190.173 150.993 190.003 151.401 190.202L169.683 199.119C170.092 199.318 170.261 199.811 170.062 200.219L168.752 202.905Z" fill="#173789"/>
<path d="M162.696 190.252C161.05 189.449 159.113 190.035 158.369 191.56C157.625 193.086 158.356 194.973 160.002 195.776C161.647 196.579 163.585 195.993 164.329 194.467C165.072 192.942 164.342 191.055 162.696 190.252ZM160.71 194.323C159.931 193.943 159.584 193.049 159.937 192.326C160.289 191.603 161.207 191.326 161.987 191.706C162.766 192.086 163.113 192.98 162.76 193.703C162.408 194.425 161.49 194.703 160.71 194.323Z" fill="#173789"/>
<path d="M132.295 172.508C132.295 172.508 125.4 187.787 124.949 192.075C124.498 196.364 152.284 209.274 152.284 209.274L145.033 226.409C145.033 226.409 100.594 215.504 96.5216 202.152C92.4506 188.8 106.676 161.109 106.676 161.109" fill="#F49C84"/>
<path d="M138.087 202.088C138.087 202.088 164.2 213.933 164.293 215.315C164.386 216.697 159.466 214.722 159.754 215.842C160.042 216.962 171.49 221.207 171.215 222.612C170.842 224.516 161.491 220.413 161.491 220.413C161.491 220.413 171.595 225.467 170.793 227.026C170.225 228.13 161.644 224.659 158.198 223.743C161.806 225.21 167.37 228.28 166.757 229.413C166.148 230.537 160.257 228.299 155.65 226.824C158.438 228.014 163.396 230.451 162.878 231.524C162.362 232.594 141.626 225.681 127.945 220.952" fill="#F49C84"/>
<path d="M150.36 123.04C138.752 122.854 127.352 126.358 120.875 132.512C111.165 141.737 102.234 164.808 102.234 164.808L133.234 176.808L146.734 150.54" fill="#11BAF9"/>
<path d="M131.086 176.27L141.533 158.166" stroke="#273B7A" stroke-width="0.75" stroke-miterlimit="10"/>
<path d="M134.031 171.163L104.176 159.09" stroke="#273B7A" stroke-width="0.75" stroke-miterlimit="10"/>
<path d="M191.866 171.869C190.523 161.189 187.609 147.512 187.609 147.512" stroke="#273B7A" stroke-width="0.75" stroke-miterlimit="10"/>
<path d="M191.125 166.617L206.508 155.965" stroke="#273B7A" stroke-width="0.75" stroke-miterlimit="10"/>
<path d="M590.797 293.466C587.924 292.547 584.633 292.246 581.87 293.399C580.336 294.039 579.071 295.078 577.736 296.004C575.321 297.679 572.102 299.059 569.267 298.02C566.666 297.067 565.378 294.194 566.066 291.779C566.754 289.364 569.073 287.488 571.708 286.613C574.344 285.738 577.258 285.748 580.044 286.11" fill="#86ADA8"/>
<path d="M605.638 318.718C591.082 318.911 590.656 299.225 584.64 291.512C581.876 287.969 578.216 285.808 573.492 286.099C575.552 284.73 592.727 283.311 596.419 285.231C600.562 287.385 602.713 290.008 604.648 293.82C606.854 298.166 614.904 314.319 605.638 318.718Z" fill="#BCDDCB"/>
<path d="M577.777 285.516C606.349 284.639 605.509 325.533 609.487 344.695C609.554 345.019 610.018 344.873 609.973 344.561C608.921 337.2 607.898 329.821 606.654 322.49C605.482 315.581 604.091 308.552 601.356 302.067C597.146 292.087 589.186 284.459 577.777 285.2C577.576 285.213 577.572 285.522 577.777 285.516Z" fill="#8EBCA1"/>
<path d="M612.202 303.369C606.797 301.314 603.768 295.438 602.763 289.743C600.945 279.443 599.595 269.023 596.801 258.924C593.811 248.115 588.563 238.878 582.885 229.302C580.378 225.074 577.833 219.3 581.214 215.731C582.553 214.318 584.547 213.703 586.487 213.541C593.271 212.975 599.696 217.374 603.479 223.033C607.262 228.692 608.909 235.471 610.489 242.092C611.559 246.577 612.63 251.061 613.7 255.546C617.446 271.247 621.458 293.657 612.202 303.369Z" fill="#D6E8DD"/>
<path d="M645.281 270.506C648.801 268.315 653.168 267.79 657.279 268.332C661.39 268.874 665.3 270.409 669.087 272.098C670.713 272.823 672.362 273.589 674.132 273.77C675.903 273.951 677.856 273.432 678.924 272.009C680.17 270.348 679.848 267.881 678.63 266.2C677.412 264.519 675.488 263.493 673.546 262.758C668.657 260.907 663.338 260.557 658.111 260.473" fill="#86ADA8"/>
<path d="M659.768 263.589C666.191 262.886 671.627 266.475 674.015 272.384C674.1 272.595 674.434 272.518 674.365 272.288C672.458 265.884 666.226 262.35 659.722 263.256C659.535 263.281 659.577 263.609 659.768 263.589Z" fill="#8EBCA1"/>
<path d="M582.453 214.748C591.115 220.035 598.215 233.806 602.609 245.68C606.131 255.197 608.606 265.059 610.102 275.097C613.307 296.601 614.757 327.943 613.977 349.67" stroke="#8EBCA1" stroke-width="0.75" stroke-miterlimit="10"/>
<path d="M629.107 298.411C637.254 295.22 637.564 283.217 644.492 274.284C650.214 266.906 657.914 262.625 671.495 261.794C665.581 259.759 659.428 258.217 653.174 258.143C646.92 258.068 640.528 259.543 635.393 263.112C628.023 268.234 616.451 291.914 629.107 298.411Z" fill="#D6E8DD"/>
<path d="M664.039 259.6C654.804 258.888 645.615 262.762 639.068 269.192C628.972 279.109 629.109 294.428 628.168 307.548C626.946 324.589 625.871 341.64 624.945 358.7" stroke="#8EBCA1" stroke-width="0.75" stroke-miterlimit="10"/>
<path d="M625.3 279.755C618.078 276.226 618.784 266.247 619.141 260.037C620.005 244.979 623.372 226.95 632.328 214.12C639.246 204.208 649.505 198.669 661.58 202.521C665.567 203.793 672.071 208.665 669.513 213.618C667.81 216.915 660.504 219.085 657.513 221.768C653.684 225.203 650.623 229.403 648.127 233.882C643.039 243.015 640.265 253.231 637.566 263.263C635.534 270.807 633.63 278.563 625.3 279.755Z" fill="#BCDDCB"/>
<path d="M660.832 297.289C663.496 296.539 668.226 296.203 670.98 296.746C672.228 297.403 674.521 298.807 676.112 301.387C677.94 304.353 678.18 312.763 672.538 311.313C670.186 310.708 669.109 308.089 667.698 306.112C665.938 303.646 663.208 301.894 660.233 301.322C657.259 300.749 654.073 301.363 651.523 302.999" fill="#86ADA8"/>
<path d="M673.605 307.673C673.364 302.924 670.45 299.754 666.857 296.94C665.096 295.561 663.582 294.498 661.311 294.235C658.78 293.942 656.058 294.249 653.588 294.844C653.45 294.877 653.485 295.081 653.621 295.086C658.196 295.245 661.933 293.948 665.931 296.962C669.6 299.728 672.872 302.816 673.195 307.673C673.212 307.934 673.618 307.938 673.605 307.673Z" fill="#8EBCA1"/>
<path d="M672.785 297.864C666.168 296.636 657.578 299.957 652.876 304.888C650.664 307.208 648.54 310.198 645.388 310.482C642.133 310.775 638.022 311.077 637.908 304.251C637.821 299.071 640.952 297.738 643.701 295.926C646.45 294.114 649.776 293.461 653.035 293.215C656.853 292.927 666.978 291.591 672.785 297.864Z" fill="#BCDDCB"/>
<path d="M663.523 293.848C652.89 293.919 644.045 300.814 639.445 310.118C635.582 317.932 634.268 326.932 633.3 335.499C632.278 344.54 631.566 353.818 631.78 362.918C631.787 363.218 632.222 363.213 632.243 362.918C633.167 349.671 633.129 336.394 635.857 323.33C637.327 316.292 639.597 309.426 644.26 303.83C649.139 297.975 655.845 294.378 663.524 294.187C663.741 294.182 663.742 293.847 663.523 293.848Z" fill="#8EBCA1"/>
<path d="M653.037 208.192C645.992 212.018 641.191 219.302 637.553 226.23C633.574 233.805 630.9 242 628.984 250.32C624.624 269.255 622.906 289.081 622.123 308.459C621.658 319.967 621.504 331.584 622.328 343.079C622.344 343.295 622.672 343.3 622.668 343.079C622.272 323.615 622.348 304.307 624.27 284.909C626.055 266.888 628.218 248.077 635.541 231.328C639.296 222.738 644.682 213.044 653.106 208.311C653.181 208.266 653.114 208.151 653.037 208.192Z" fill="#8EBCA1"/>
<path d="M653.171 340.607V355.92C653.171 389.821 640.521 411.639 640.521 411.639H601.352C601.352 411.639 588.703 389.822 588.703 355.92V340.607H653.171Z" fill="#F2F5F9"/>
<path d="M24.5255 316.353C22.7745 317.915 20.9875 319.522 19.8855 321.593C18.7835 323.664 18.4895 326.329 19.7575 328.303C20.2025 328.995 20.8125 329.568 21.4675 330.065C23.5615 331.652 26.2515 332.522 28.8555 332.172C31.4595 331.822 33.9165 330.164 34.9715 327.758C35.5895 326.349 35.7175 324.781 36.1275 323.298C37.3575 318.85 41.6025 315.222 46.2155 315.337" fill="#86ADA8"/>
<path d="M62.5976 331.611C58.8466 334.851 52.2066 334.597 48.1516 332.083C42.5106 328.585 39.5456 322.199 33.3216 319.327C30.9996 318.255 28.3506 317.753 25.9036 318.46C23.4126 319.18 21.3926 321.051 19.1016 322.305C23.7896 311.643 36.4036 307.243 41.3716 307.264C50.6246 307.304 59.5976 313.488 63.3066 322.382C64.5756 325.423 65.0406 329.5 62.5976 331.611Z" fill="#BCDDCB"/>
<path d="M106.305 294.591C109.75 293.346 113.697 292.937 117.01 294.501C118.849 295.369 120.366 296.777 121.967 298.032C124.863 300.302 128.723 302.173 132.123 300.764C135.242 299.472 136.786 295.577 135.962 292.303C135.137 289.029 132.357 286.486 129.196 285.3C126.036 284.114 122.54 284.127 119.201 284.618" fill="#86ADA8"/>
<path d="M79.9411 304.45C72.7191 300.921 73.4251 290.941 73.7821 284.732C74.3511 274.815 74.7281 264.72 77.0351 255.022C80.1551 241.905 88.7051 229.229 103.303 226.871C107.571 226.182 112.073 225.893 116.22 227.216C120.366 228.539 124.077 231.793 124.625 235.795C124.754 236.739 124.694 237.744 124.163 238.543C123.532 239.491 122.365 239.987 121.282 240.478C110.678 245.288 102.581 254.449 99.5671 265.046C97.4291 272.563 97.7601 280.582 95.7301 288.126C93.6991 295.672 88.2711 303.258 79.9411 304.45Z" fill="#BCDDCB"/>
<path d="M88.5073 328.824C100.493 329.004 100.372 318.105 103.294 314.379C108.427 307.834 108.97 298.779 113.686 291.943C117 287.14 121.389 284.21 127.053 284.605C124.583 282.75 103.989 280.826 99.5623 283.428C94.5933 286.348 92.0143 289.903 89.6943 295.071C87.0493 300.964 77.3973 322.86 88.5073 328.824Z" fill="#D6E8DD"/>
<path d="M121.917 283.44C94.2667 281.493 89.3837 319.088 86.6597 338.816C85.5037 347.185 84.4477 355.569 83.3497 363.945C83.3127 364.224 83.7947 364.291 83.8447 364.012C87.0207 346.358 87.6467 328.231 92.8137 310.955C96.9517 297.119 105.711 283.037 121.917 283.756C122.122 283.765 122.118 283.454 121.917 283.44Z" fill="#BCDDCB"/>
<path d="M63.9127 300.579C59.3327 300.213 55.6867 296.391 53.8017 292.2C49.4447 282.514 50.2687 271.379 44.1087 262.385C40.9077 257.711 36.5527 253.945 33.1037 249.451C28.2277 243.099 25.8327 234.077 29.5737 226.652C35.2177 215.449 47.1667 220.529 54.4207 227.058C64.4647 236.099 72.7497 249.278 75.0497 262.133C76.5607 270.575 78.8957 291.728 63.9127 300.579Z" fill="#D6E8DD"/>
<path d="M37.3469 230.41C43.9309 230.748 49.1849 238.606 52.0519 243.749C56.0579 250.932 57.9969 259.551 59.6189 267.549C63.3019 285.713 64.2279 304.52 65.1149 322.994C65.6289 333.689 65.9009 344.394 66.0839 355.099C66.0899 355.461 66.6459 355.462 66.6469 355.099C66.6999 334.706 65.6649 314.289 63.8859 293.976C63.0779 284.751 62.0039 275.53 60.1029 266.459C58.4059 258.361 56.3449 249.706 52.0789 242.525C49.0899 237.496 43.8699 230.173 37.3469 229.981C37.0709 229.974 37.0729 230.396 37.3469 230.41Z" fill="#BCDDCB"/>
<path d="M23.4712 276.714C19.0322 276.448 11.4852 277.42 7.33619 279.06C5.59319 280.4 2.45819 283.149 0.820185 287.389C-0.817815 291.629 -0.0118144 296.955 3.32319 299.971C5.90019 302.302 9.55319 303.005 12.9822 302.793C14.6552 302.689 16.3582 302.375 17.7992 301.498C21.4712 299.264 22.3222 294.316 24.3942 290.487C27.2222 285.26 32.9562 281.83 38.7832 281.879" fill="#86ADA8"/>
<path d="M10.0744 294.227C10.2664 289.574 10.8604 284.818 13.9984 281.146C17.9234 276.554 23.2254 275.381 28.9544 274.902C29.1274 274.887 29.1904 274.623 28.9984 274.58C23.5174 273.339 17.2794 276.257 13.6744 280.346C10.2524 284.227 9.64343 289.249 9.52743 294.228C9.51943 294.579 10.0604 294.577 10.0744 294.227Z" fill="#3F6D54"/>
<path d="M7.33594 279.061C15.4609 277.553 24.0929 280.868 29.8659 286.923C32.5819 289.772 35.1899 293.443 39.0599 293.792C43.0569 294.152 48.1039 294.522 48.2439 286.142C48.3509 279.781 44.5069 278.145 41.1309 275.92C37.7549 273.695 33.6719 272.894 29.6699 272.591C24.9839 272.236 13.5959 272.574 7.33594 279.061Z" fill="#BCDDCB"/>
<path d="M16.7972 273.744C30.1322 274.017 40.9922 283.068 46.3352 294.878C50.8272 304.805 52.3052 316.106 53.3932 326.836C54.4512 337.267 54.5712 347.722 55.2562 358.172C55.2752 358.467 55.7132 358.473 55.7192 358.172C55.9152 348.215 55.1802 338.107 54.2152 328.2C53.5602 321.474 52.6792 314.744 51.2092 308.143C49.2232 299.221 46.0292 290.683 39.7502 283.866C33.7422 277.342 25.7182 273.455 16.7962 273.404C16.5782 273.403 16.5782 273.74 16.7972 273.744Z" fill="#8EBCA1"/>
<path d="M34.6885 311.383C40.1315 310.771 45.6375 311.321 50.2105 314.575C54.4505 317.592 57.3205 322.26 58.9735 327.125C62.2755 336.844 63.0925 347.19 61.7675 357.337C61.7415 357.54 62.0815 357.584 62.1245 357.385C64.3535 346.97 62.8595 334.418 58.5935 324.629C56.7185 320.328 53.8145 316.348 49.8435 313.767C45.3035 310.815 39.8965 310.426 34.6625 311.193C34.5555 311.209 34.5805 311.395 34.6885 311.383Z" fill="#8EBCA1"/>
<path d="M107.678 232.888C100.633 236.714 95.8319 243.998 92.1939 250.926C88.2149 258.501 85.5409 266.696 83.6249 275.016C79.2649 293.951 77.5469 313.777 76.7639 333.155C76.2989 344.663 76.1449 356.28 76.9689 367.775C76.9839 367.991 77.3129 367.996 77.3089 367.775C76.9129 348.311 76.9889 329.003 78.9109 309.604C80.6959 291.583 82.8589 272.772 90.1819 256.023C93.9379 247.433 99.3229 237.739 107.747 233.006C107.821 232.961 107.754 232.846 107.678 232.888Z" fill="#8EBCA1"/>
<path d="M42.2188 352.91V362.548C42.2188 400.766 55.6137 411.638 55.6137 411.638H85.1058C85.1058 411.638 98.5007 400.767 98.5007 362.548V352.91H42.2188Z" fill="#F2F5F9"/>
<path d="M29.082 412.602H661.498" stroke="#91AFE5" stroke-miterlimit="10" stroke-linecap="round" stroke-linejoin="round"/>
<path d="M470.609 123.685L471.978 132.43C471.978 132.43 472.148 137.752 478.144 137.143C484.461 136.5 489.625 130.24 489.625 130.24L484.024 114.559" fill="#AF5743"/>
<path d="M468.463 102.493C464.672 106.675 459.397 123.604 466.58 126.474C473.163 129.105 482.412 126.567 484.875 116.658C487.464 106.245 478.429 91.4987 468.463 102.493Z" fill="#AF5743"/>
<path d="M471.438 127.737C471.438 127.737 477.01 128.273 481.297 123.986" stroke="#752D21" stroke-width="0.75" stroke-miterlimit="10"/>
<path d="M484.09 115.539C484.095 115.539 484.095 115.531 484.09 115.531C484.085 115.531 484.085 115.539 484.09 115.539Z" fill="#FF855A"/>
<path d="M484.05 115.511C484.029 115.541 484.008 115.572 483.986 115.602C483.949 115.655 484.036 115.705 484.072 115.652C484.093 115.622 484.114 115.591 484.136 115.561C484.173 115.508 484.086 115.458 484.05 115.511Z" fill="#FF855A"/>
<path d="M469.054 112.715C469.054 112.715 466.691 116.011 466.931 116.781C467.253 117.812 469.054 117.551 469.054 117.551" stroke="#752D21" stroke-width="0.75" stroke-miterlimit="10"/>
<path d="M473.185 113.778C473.104 114.142 473.262 114.487 473.537 114.548C473.812 114.609 474.101 114.364 474.182 114C474.263 113.636 474.105 113.291 473.83 113.23C473.555 113.169 473.266 113.414 473.185 113.778Z" fill="#4A1A1A"/>
<path d="M465.56 111.208C465.479 111.572 465.637 111.917 465.912 111.978C466.187 112.039 466.476 111.794 466.557 111.43C466.638 111.066 466.48 110.721 466.205 110.66C465.93 110.598 465.641 110.844 465.56 111.208Z" fill="#4A1A1A"/>
<path d="M469.946 120.27L465.331 118.977C465.331 118.977 464.756 122.271 466.828 122.915C469.374 123.706 469.946 120.27 469.946 120.27Z" fill="white"/>
<path d="M481.679 118.396C476.332 113.049 478.263 108.445 478.263 108.445C478.263 108.445 466.178 108.077 461.797 103.696C461.797 103.696 464.974 93.9829 473.469 97.6299C478.303 95.1269 485.955 97.5709 489.071 102.641C493.927 110.54 489.019 119.385 486.12 121.005" fill="#011E3B"/>
<path d="M484.824 101.584C484.027 100.188 484.752 97.9661 485.48 96.9631C486.831 95.0981 489.595 94.4511 491.658 95.4741C493.721 96.4971 494.877 99.0441 494.342 101.284C493.807 103.524 491.669 105.261 489.369 105.38C488.462 105.427 487.428 105.165 486.997 104.365" fill="#011E3B"/>
<path d="M479.338 115.595C479.332 115.257 479.727 114.278 480.747 113.907C482.543 113.255 483.649 115.62 483.442 117.494C483.311 118.671 482.924 119.589 482.163 120.5C481.16 121.7 479.844 121.964 479.125 120.48" fill="#AF5743"/>
<path d="M473.164 110.648C476.047 110.46 476.581 113.335 476.581 113.335" stroke="#4A1A1A" stroke-width="0.5" stroke-miterlimit="10" stroke-linecap="round"/>
<path d="M465.484 108.916C467.067 108.196 468.65 109.377 468.65 109.377" stroke="#4A1A1A" stroke-width="0.5" stroke-miterlimit="10" stroke-linecap="round"/>
<path d="M486.66 262.522L473.951 397.106L464.141 408.149C464.141 408.149 497.757 406.74 498.866 405.616C499.975 404.491 498.431 396.822 498.431 396.822L521.035 261.184L486.66 262.522Z" fill="#AF5743"/>
<path d="M493.413 405.536L499.492 400.507L498.762 397.877L489.956 405.561L486.185 405.588L470.877 399.076L454.486 408.154C452.823 409.203 453.576 411.775 455.542 411.76L478.927 411.622L485.098 407.296L486.855 407.283L486.885 411.564L499.509 411.474L499.466 405.492L493.413 405.536Z" fill="#011E3B"/>
<path d="M525.711 262.522L531.731 397.106L521.922 408.149C521.922 408.149 555.538 406.74 556.647 405.616C557.756 404.491 556.212 396.822 556.212 396.822L560.087 261.184L525.711 262.522Z" fill="#AF5743"/>
<path d="M551.194 405.536L557.273 400.507L556.543 397.877L547.737 405.561L543.966 405.588L528.658 399.076L512.267 408.154C510.604 409.203 511.358 411.775 513.323 411.76L536.708 411.622L542.88 407.296L544.637 407.283L544.667 411.564L557.291 411.474L557.248 405.492L551.194 405.536Z" fill="#011E3B"/>
<path d="M539.311 195.027C543.839 198.182 548.377 202.298 552.752 209.267C566.818 231.671 563.032 285.971 563.032 285.971H476.164C476.164 285.971 484.645 216.687 490.042 201.213" fill="#223082"/>
<path d="M521.922 186.93C521.922 186.93 538.286 199.072 548.103 214.296C559.567 232.074 558.672 285.971 558.672 285.971" stroke="#121E3A" stroke-width="0.75" stroke-miterlimit="10"/>
<path d="M519.836 204.094C531.074 214.039 540.308 204.094 540.308 204.094" stroke="#121E3A" stroke-width="0.75" stroke-miterlimit="10"/>
<path d="M461.796 172.005C461.796 172.005 441.536 197.194 430.117 194.221C418.698 191.248 401.461 153.326 401.461 153.326L414.826 147.488C414.826 147.488 429.939 167.259 432.125 167.354C434.311 167.449 448.734 151.51 448.734 151.51" fill="#AF5743"/>
<path d="M418.355 152.024C418.355 152.024 406.918 135.3 406.051 135.3C405.184 135.3 406.624 138.291 405.912 138.158C405.2 138.025 401.833 131.353 400.967 131.584C399.793 131.897 403.022 137.831 403.022 137.831C403.022 137.831 402.098 136.698 401.158 137.264C400.492 137.665 401.041 139.461 401.041 139.461C401.041 139.461 400.05 138.776 399.368 139.207C398.691 139.635 399.222 141.183 399.222 141.183C399.222 141.183 398.298 139.889 397.522 140.845C396.795 141.74 399.798 150.673 404.979 160.587" fill="#AF5743"/>
<path d="M406.648 139.646C406.648 139.646 406.894 142.845 407.636 145.487" stroke="#752D21" stroke-width="0.75" stroke-miterlimit="10"/>
<path d="M397.656 142.867C398.149 143.607 398.65 144.341 399.191 145.04C399.461 145.389 399.744 145.729 400.048 146.037C400.198 146.191 400.361 146.336 400.523 146.448C400.688 146.596 400.864 146.584 400.864 146.574C400.908 146.539 400.92 146.29 400.889 146.102C400.862 145.899 400.813 145.69 400.757 145.482C400.642 145.066 400.496 144.652 400.34 144.242C400.029 143.422 399.658 142.616 399.298 141.818L399.878 141.54C400.334 142.417 400.824 143.291 401.354 144.121C401.621 144.533 401.899 144.942 402.205 145.299C402.354 145.471 402.526 145.648 402.665 145.729C402.741 145.783 402.765 145.745 402.679 145.773C402.584 145.839 402.642 145.821 402.644 145.727C402.684 145.364 402.573 144.843 402.478 144.381C402.372 143.905 402.241 143.428 402.1 142.953C401.816 142.004 401.492 141.057 401.147 140.128L401.766 139.872C402.17 140.802 402.626 141.72 403.093 142.618C403.331 143.064 403.58 143.506 403.865 143.908C404.007 144.107 404.161 144.301 404.322 144.437C404.399 144.501 404.486 144.536 404.495 144.532C404.48 144.544 404.502 144.548 404.533 144.444C404.615 144.039 404.517 143.495 404.433 143.01C404.341 142.512 404.233 142.012 404.109 141.515C403.861 140.521 403.571 139.536 403.276 138.551C403.681 139.497 404.04 140.462 404.366 141.441C404.527 141.931 404.682 142.425 404.807 142.931C404.911 143.448 405.06 143.933 404.976 144.548C404.958 144.685 404.84 144.966 404.552 145.002C404.301 145.023 404.152 144.91 404.025 144.827C403.785 144.642 403.612 144.434 403.444 144.224C403.115 143.802 402.839 143.359 402.571 142.911C402.037 142.015 401.592 141.084 401.154 140.141L401.773 139.885C402.141 140.829 402.481 141.775 402.787 142.742C402.939 143.226 403.081 143.714 403.201 144.214C403.309 144.727 403.442 145.202 403.372 145.841C403.34 145.986 403.321 146.245 402.994 146.431C402.671 146.566 402.425 146.427 402.297 146.351C402.008 146.167 401.841 145.963 401.663 145.759C401.323 145.348 401.044 144.921 400.773 144.488C400.237 143.62 399.759 142.735 399.305 141.827L399.885 141.549C400.255 142.371 400.562 143.209 400.85 144.061C400.99 144.488 401.12 144.92 401.222 145.366C401.271 145.59 401.314 145.816 401.335 146.055C401.33 146.294 401.411 146.543 401.161 146.864C401.011 147.018 400.77 146.998 400.648 146.953C400.504 146.905 400.394 146.835 400.302 146.758C400.104 146.61 399.952 146.437 399.803 146.264C399.508 145.916 399.249 145.55 399.003 145.176C398.507 144.432 398.063 143.659 397.656 142.867Z" fill="#752D21"/>
<path d="M472.13 131C458.457 131 441.594 156.558 441.594 156.558L462.435 176.043L491.565 145.283" fill="#B9B5B2"/>
<path d="M491.493 128.311C491.493 128.311 503.528 127.76 511.262 133.131C525.633 143.11 539.311 195.029 539.311 195.029C524.89 210.032 488.958 215.779 488.958 215.779C488.958 215.779 477.777 195.527 469.382 187.132C460.987 178.737 458.613 170.663 462.073 153.45L491.493 128.311Z" fill="#B9B5B2"/>
<path d="M487.578 124.518L478.141 135.459L483.982 141.745C483.982 141.745 488.119 134.687 491.494 128.312L487.578 124.518Z" fill="white"/>
<path d="M478.147 135.459L472.623 141.669C472.623 141.669 469.645 136.522 469.055 131.384L471.561 129.752L478.147 135.459Z" fill="white"/>
<path d="M461.179 174.436C459.414 166.936 462.434 153.9 462.434 153.9" stroke="#846A6A" stroke-width="0.75" stroke-miterlimit="10"/>
<path d="M512.687 173.663C500.674 218.994 483.831 247.466 483.831 247.466L469.203 241.034C484.02 194.465 488.042 167.566 488.042 167.566" fill="#AF5743"/>
<path d="M489.469 147.488L484.523 170.721L514.043 176C514.043 176 517.078 165.491 518.363 156.011" fill="#B9B5B2"/>
<path d="M513.633 176.044L517.485 160.588" stroke="#846A6A" stroke-width="0.75" stroke-miterlimit="10"/>
<path d="M484.523 170.722L487.687 154.941" stroke="#846A6A" stroke-width="0.75" stroke-miterlimit="10"/>
<path d="M491.564 232.359C491.564 232.359 484.337 250.165 481.294 250.165C478.25 250.165 451.573 250.336 443.867 250.336C444.014 248.954 450.4 246.195 455.807 244.54C459.042 243.55 469.206 241.033 469.206 241.033L474.874 222.443" fill="#AF5743"/>
<defs>
<linearGradient id="paint0_linear_199_1188" x1="413.436" y1="234.616" x2="413.436" y2="215.899" gradientUnits="userSpaceOnUse">
<stop stop-color="white" stop-opacity="0.1"/>
<stop offset="1" stop-color="white" stop-opacity="0.4"/>
</linearGradient>
</defs>
</svg>
