<svg width="754" height="690" viewBox="0 0 754 690" fill="none" xmlns="http://www.w3.org/2000/svg">
<g clip-path="url(#clip0_203_1669)">
<path d="M317.844 73.6504H315.344V76.1504V124.415V126.915H317.844H350.051H352.551V124.415V76.1504V73.6504H350.051H317.844Z" fill="#00ABEB" stroke="#00ABEB" stroke-width="5"/>
<path d="M381.164 73.6504H378.664V76.1504V124.415V126.915H381.164H413.372H415.872V124.415V76.1504V73.6504H413.372H381.164Z" fill="#00ABEB" stroke="#00ABEB" stroke-width="5"/>
<path d="M444.477 73.6504H441.977V76.1504V124.415V126.915H444.477H476.684H479.184V124.415V76.1504V73.6504H476.684H444.477Z" fill="#00ABEB" stroke="#00ABEB" stroke-width="5"/>
<path d="M317.844 152.828H315.344V155.328V203.591V206.091H317.844H350.051H352.551V203.591V155.328V152.828H350.051H317.844Z" fill="#00ABEB" stroke="#00ABEB" stroke-width="5"/>
<path d="M381.164 152.828H378.664V155.328V203.591V206.091H381.164H413.372H415.872V203.591V155.328V152.828H413.372H381.164Z" fill="#00ABEB" stroke="#00ABEB" stroke-width="5"/>
<path d="M444.477 152.828H441.977V155.328V203.591V206.091H444.477H476.684H479.184V203.591V155.328V152.828H476.684H444.477Z" fill="#00ABEB" stroke="#00ABEB" stroke-width="5"/>
<path d="M57.1016 431.953H54.6016V434.453V482.718V485.218H57.1016H89.3093H91.8093V482.718V434.453V431.953H89.3093H57.1016Z" fill="#00ABEB" stroke="#00ABEB" stroke-width="5"/>
<path d="M120.422 431.953H117.922V434.453V482.718V485.218H120.422H152.63H155.13V482.718V434.453V431.953H152.63H120.422Z" fill="#00ABEB" stroke="#00ABEB" stroke-width="5"/>
<path d="M183.742 431.953H181.242V434.453V482.718V485.218H183.742H215.95H218.45V482.718V434.453V431.953H215.95H183.742Z" fill="#00ABEB" stroke="#00ABEB" stroke-width="5"/>
<path d="M57.1016 511.129H54.6016V513.629V561.893V564.393H57.1016H89.3093H91.8093V561.893V513.629V511.129H89.3093H57.1016Z" fill="#00ABEB" stroke="#00ABEB" stroke-width="5"/>
<path d="M120.422 511.129H117.922V513.629V561.893V564.393H120.422H152.63H155.13V561.893V513.629V511.129H152.63H120.422Z" fill="#00ABEB" stroke="#00ABEB" stroke-width="5"/>
<path d="M183.742 511.129H181.242V513.629V561.893V564.393H183.742H215.95H218.45V561.893V513.629V511.129H215.95H183.742Z" fill="#00ABEB" stroke="#00ABEB" stroke-width="5"/>
<path d="M756.5 377.474V374.974H754H714.38C714.519 371.375 714.598 367.769 714.598 364.17C714.598 251.326 647.435 147.508 539.529 93.1352L539.528 93.1349C538.457 92.5957 537.37 92.0652 536.292 91.5417V19.1719V16.6719H533.792H260.741H258.241V19.1719V74.716C195.2 96.4011 141.161 134.457 101.856 184.986C61.0121 237.493 39.4001 299.462 39.4001 364.172C39.4001 367.77 39.4788 371.376 39.6178 374.976H0H-2.5V377.476V639.132V641.632H0H227.983C274.555 662.656 324.675 673.33 377 673.33C429.211 673.33 479.292 662.705 525.835 641.738L526.069 641.632H754H756.5V639.132V377.474ZM478.449 377.474V622.8C446.093 633.449 412.106 638.854 377 638.854C341.872 638.854 307.889 633.469 275.551 622.825V377.474V374.974H273.051H76.8383C76.685 371.372 76.6078 367.765 76.6078 364.17C76.6078 254.499 148.837 154.925 258.239 111.811V280.824V283.324H260.739H533.792H536.292V280.824V131.276C623.796 181.396 677.39 269.281 677.39 364.17C677.39 367.763 677.313 371.371 677.161 374.974H480.949H478.449V377.474ZM295.449 51.1458H499.086V248.852H295.449V51.1458ZM34.7077 409.448H238.343V607.158H34.7077V409.448ZM719.292 607.158H515.657V409.448H719.292V607.158Z" fill="#00ABEB" stroke="#00ABEB" stroke-width="5"/>
<path d="M538.055 431.953H535.555V434.453V482.718V485.218H538.055H570.262H572.762V482.718V434.453V431.953H570.262H538.055Z" fill="#00ABEB" stroke="#00ABEB" stroke-width="5"/>
<path d="M601.367 431.953H598.867V434.453V482.718V485.218H601.367H633.575H636.075V482.718V434.453V431.953H633.575H601.367Z" fill="#00ABEB" stroke="#00ABEB" stroke-width="5"/>
<path d="M664.688 431.953H662.188V434.453V482.718V485.218H664.688H696.895H699.395V482.718V434.453V431.953H696.895H664.688Z" fill="#00ABEB" stroke="#00ABEB" stroke-width="5"/>
<path d="M538.055 511.129H535.555V513.629V561.893V564.393H538.055H570.262H572.762V561.893V513.629V511.129H570.262H538.055Z" fill="#00ABEB" stroke="#00ABEB" stroke-width="5"/>
<path d="M601.367 511.129H598.867V513.629V561.893V564.393H601.367H633.575H636.075V561.893V513.629V511.129H633.575H601.367Z" fill="#00ABEB" stroke="#00ABEB" stroke-width="5"/>
<path d="M664.688 511.129H662.188V513.629V561.893V564.393H664.688H696.895H699.395V561.893V513.629V511.129H696.895H664.688Z" fill="#00ABEB" stroke="#00ABEB" stroke-width="5"/>
</g>
<defs>
<clipPath id="clip0_203_1669">
<rect width="754" height="690" rx="1" fill="white"/>
</clipPath>
</defs>
</svg>
