<svg width="800" height="800" viewBox="0 0 800 800" fill="none" xmlns="http://www.w3.org/2000/svg">
<path d="M400 395C315 395 240 325 240 235C240 145 310 80 400 80C485 80 560 150 560 240C560 330 485 395 400 395ZM400 115C335 115 280 170 280 235C280 300 330 355 400 355C470 355 520 300 520 235C520 170 465 115 400 115Z" fill="#00ABEB"/>
<path d="M650 675C650 510 535 380 395 380C255 380 140 510 140 675H650Z" fill="#00ABEB"/>
<path d="M650 695.001H115V675.001C115 500.001 240 360.001 390 360.001C540 360.001 665 500.001 665 670.001V690.001L650 695.001ZM155 655.001H630C625 515.001 520 400.001 395 400.001C265 400.001 165 515.001 155 655.001ZM555 390.001C545 390.001 535 380.001 535 370.001C535 360.001 545 350.001 555 350.001C605 350.001 650 310.001 650 255.001C650 215.001 625 180.001 585 165.001C575 160.001 570 150.001 575 140.001C580 130.001 590 125.001 600 130.001C655 145.001 690 195.001 690 255.001C685 330.001 625 390.001 555 390.001Z" fill="#00ABEB"/>
<path d="M755 630H710C700 630 690 620 690 610C690 600 700 590 710 590H735C725 480 645 395 550 395C540 395 530 385 530 375C530 365 540 355 550 355C675 355 775 470 775 610V630H755Z" fill="#00ABEB"/>
<path d="M235 390.001C230 390.001 230 390.001 235 390.001C200 390.001 165 380.001 140 355.001C115 330.001 105 295.001 105 260.001C105 205.001 140 155.001 195 135.001C205 130.001 215 135.001 220 145.001C225 155.001 220 165.001 210 170.001C165 185.001 140 220.001 140 260.001C140 285.001 150 310.001 165 325.001C180 345.001 205 350.001 230 355.001C245 355.001 250 365.001 250 375.001C250 385.001 245 390.001 235 390.001Z" fill="#00ABEB"/>
<path d="M70 630H10V610C10 470 110 360 235 360C245 360 255 370 255 380C255 390 245 400 235 400C140 400 60 485 50 595H75C85 595 95 605 95 615C90 620 85 630 70 630Z" fill="#00ABEB"/>
</svg>
