    <svg width="800" height="800" viewBox="0 0 800 800" fill="none" xmlns="http://www.w3.org/2000/svg">
<g clip-path="url(#clip0_203_1706)">
<path fill-rule="evenodd" clip-rule="evenodd" d="M179.071 799.999H13.2143V265.891H179.071V799.999ZM96.0537 193.033C43.018 193.033 0 149.105 0 96.0693C7.9049e-07 43.0204 43.0047 0.015625 96.0537 0.015625C149.102 0.015625 192.107 43.0204 192.107 96.0693C192.107 149.105 149.071 193.033 96.0537 193.033ZM799.82 799.999H634.32V539.999C634.32 478.033 633.07 398.569 548.09 398.569C461.857 398.569 448.643 465.889 448.643 535.533V799.999H282.964V265.891H442.037V338.749H444.357C466.5 296.783 520.59 252.498 601.287 252.498C769.143 252.498 800 363.033 800 506.606V799.999H799.82Z" fill="#00ABEB"/>
</g>
<defs>
<clipPath id="clip0_203_1706">
<rect width="800" height="800" fill="white"/>
</clipPath>
</defs>
</svg>
