<svg width="708" height="670" viewBox="0 0 708 670" fill="none" xmlns="http://www.w3.org/2000/svg">
<g clip-path="url(#clip0_199_1626)">
<path d="M616.645 453.871H601.172C624.502 436.03 639.484 408.765 639.484 378.226V335C639.484 293.298 603.616 259.355 559.548 259.355H513.871C509.988 259.355 506.197 259.711 502.452 260.219V64.8387H525.29V0H0V64.8387H22.8387V378.226H0V443.065H267.007L324.104 551.129H433.935V670H708V540.323C708 492.655 667.016 453.871 616.645 453.871ZM603.205 501.592L556.853 520.395L588.496 475.484H596.307L603.205 501.592ZM512.364 475.484H561.056L536.71 510.032L512.364 475.484ZM516.543 520.395L470.192 501.592L477.101 475.484H484.911L516.543 520.395ZM616.657 378.226C616.645 419.928 580.777 453.871 536.71 453.871C492.642 453.871 456.774 419.928 456.774 378.226H510.194C530.349 378.226 549.294 370.791 563.534 357.315L569.426 351.739C581.279 365.615 598.134 374.616 616.657 377.296V378.226ZM68.5161 259.355V356.613H221.501C221.684 356.991 221.752 357.402 221.947 357.769L232.749 378.226H45.6774V64.8387H479.613V266.757C452.652 278.925 433.935 304.904 433.935 335V378.226H341.062L305.639 315.375C297.428 300.819 281.499 291.774 264.073 291.774C249.741 291.774 237.032 297.999 228.387 307.595V259.355H68.5161ZM205.548 280.968V335H91.3548V280.968H205.548ZM513.871 280.968H559.548C591.032 280.968 616.645 305.207 616.645 335V355.359C603.559 352.615 591.922 345.255 584.306 334.449L572.738 318.034L547.375 342.035C537.44 351.437 524.24 356.613 510.194 356.613H456.774V335C456.774 305.207 482.388 280.968 513.871 280.968ZM22.8387 21.6129H502.452V43.2258H22.8387V21.6129ZM22.8387 421.452V399.839H244.169L255.588 421.452H22.8387ZM365.419 529.516H338.218L242.376 348.119C240.697 344.931 239.806 341.376 239.806 337.842V336.351C239.806 323.686 250.689 313.387 264.073 313.387C273.048 313.387 281.259 318.055 285.484 325.544L365.419 467.368V529.516ZM353.235 399.839H436.585C438.412 407.425 441.198 414.654 444.784 421.452H365.419L353.235 399.839ZM377.604 443.065H460.326C464.014 446.944 467.965 450.586 472.259 453.871H383.69L377.604 443.065ZM685.161 648.387H639.484V605.161H685.161V648.387ZM685.161 583.548H639.484V540.323H616.645V648.387H456.774V529.516H388.258V475.484H453.577L443.345 514.214L536.71 552.08L630.086 514.214L619.888 475.635C656.156 477.256 685.161 505.601 685.161 540.323V583.548Z" fill="#00ABEB"/>
<path d="M228.387 172.903V151.29H204.395C202.91 144.406 200.01 138.009 196.036 132.346L213.05 116.245L196.903 100.964L179.889 117.066C173.905 113.305 167.145 110.56 159.87 109.156V86.4512H137.032V109.156C129.758 110.56 122.997 113.305 117.014 117.066L99.9988 100.964L83.8518 116.245L100.867 132.346C96.8927 138.009 93.9922 144.406 92.5077 151.29H68.5156V172.903H92.5077C93.9922 179.786 96.8927 186.184 100.867 191.846L83.8518 207.948L99.9988 223.228L117.014 207.127C122.997 210.887 129.758 213.632 137.032 215.037V237.741H159.87V215.037C167.145 213.632 173.905 210.887 179.889 207.127L196.903 223.228L213.05 207.948L196.036 191.846C200.01 186.184 202.91 179.786 204.395 172.903H228.387ZM148.451 194.516C129.563 194.516 114.193 179.97 114.193 162.096C114.193 144.222 129.563 129.677 148.451 129.677C167.339 129.677 182.709 144.222 182.709 162.096C182.709 179.97 167.339 194.516 148.451 194.516Z" fill="#00ABEB"/>
<path d="M348.691 108.064H388.259V86.4512H336.472L290.795 151.29H251.227V172.903H303.013L348.691 108.064Z" fill="#00ABEB"/>
<path d="M456.771 86.4512H411.094V108.064H456.771V86.4512Z" fill="#00ABEB"/>
<path d="M319.743 194.516H251.227V259.354H319.743V194.516ZM296.904 237.741H274.065V216.129H296.904V237.741Z" fill="#00ABEB"/>
<path d="M388.256 216.129H342.578V237.742H388.256V216.129Z" fill="#00ABEB"/>
<path d="M456.771 216.129H411.094V237.742H456.771V216.129Z" fill="#00ABEB"/>
</g>
<defs>
<clipPath id="clip0_199_1626">
<rect width="708" height="670" fill="white"/>
</clipPath>
</defs>
</svg>
