<svg width="800" height="800" viewBox="0 0 800 800" fill="none" xmlns="http://www.w3.org/2000/svg">
<path d="M595.041 357.382C594.987 356.684 594.969 355.987 594.898 355.308C594.308 328.85 589.695 307.469 568.886 298.655C546.898 289.341 527.519 289.216 513.307 294.74C512.377 295.116 509.946 298.316 509.016 298.906C508.069 299.496 503.081 297.833 501.204 298.28C470.008 302.731 459.711 332.121 461.981 355.04C469.436 368.054 471.796 384.465 472.493 401.431C484.113 421.703 504.064 437.274 527.876 437.274C559.68 437.274 584.869 410.423 592.717 381.194C595.72 380.854 598.205 378.584 598.437 375.473L599.421 363.925C599.671 360.903 597.776 358.311 595.041 357.382ZM527.823 428.336C495 428.336 470.455 393.565 470.455 362.441C470.455 360.975 470.58 359.545 470.688 358.115C484.364 353.109 510.643 342.651 513.521 337.145C525.463 349.551 567.653 356.524 586.192 358.865C586.281 360.045 586.388 361.243 586.388 362.441C586.352 392.921 560.788 428.336 527.823 428.336Z" fill="#00ABEB"/>
<path d="M172.353 363.656L173.337 375.205C173.623 378.459 176.304 380.801 179.486 380.979C187.156 410.28 211.916 437.256 243.29 437.256C267.907 437.256 288.429 421.131 300.157 400.34C299.907 385.806 303.732 370.879 312.027 358.526C311.509 358.15 311.133 357.596 310.508 357.382C310.454 356.684 310.436 355.987 310.365 355.308C309.775 328.85 305.162 307.469 284.353 298.655C262.365 289.341 242.986 289.216 228.774 294.74C227.844 295.116 225.431 298.316 224.483 298.906C223.536 299.496 218.548 297.833 216.671 298.28C185.475 302.731 175.178 332.139 177.448 355.058C177.377 355.701 177.341 356.345 177.288 356.988C174.231 357.721 172.067 360.492 172.353 363.656ZM186.119 358.132C199.795 353.127 226.074 342.669 228.935 337.163C240.876 349.569 283.084 356.541 301.623 358.883C301.712 360.063 301.819 361.261 301.819 362.459C301.819 392.921 276.255 428.354 243.308 428.354C210.467 428.354 185.94 393.583 185.94 362.459C185.904 360.975 186.012 359.545 186.119 358.132Z" fill="#00ABEB"/>
<path d="M340.037 155.281C344.703 173.105 359.756 189.516 378.848 189.516C398.209 189.516 413.494 173.176 418.303 155.406C420.144 155.192 421.646 153.815 421.789 151.92L422.379 144.895C422.558 143.053 421.36 141.48 419.733 140.908C419.698 140.497 419.698 140.068 419.662 139.657C419.286 123.567 416.48 110.571 403.823 105.19C390.433 99.5227 378.652 99.4333 369.999 102.812C369.427 103.044 367.961 104.993 367.389 105.351C366.817 105.708 363.778 104.707 362.634 104.975C343.666 107.675 337.409 125.552 338.786 139.514C338.732 139.889 338.714 140.3 338.679 140.694C336.837 141.141 335.532 142.821 335.693 144.752L336.301 151.777C336.462 153.762 338.106 155.192 340.037 155.281ZM344.077 141.373C352.39 138.334 368.372 131.97 370.124 128.609C377.382 136.153 403.054 140.408 414.334 141.82C414.388 142.553 414.46 143.268 414.46 144.001C414.46 162.522 398.889 184.063 378.848 184.063C358.862 184.063 343.952 162.915 343.952 144.001C343.952 143.107 344.006 142.249 344.077 141.373Z" fill="#00ABEB"/>
<path d="M253.297 153.993C226.946 157.747 218.258 182.579 220.171 201.957C220.117 202.494 220.081 203.048 220.028 203.584C217.471 204.21 215.648 206.534 215.898 209.215L216.738 218.976C216.971 221.729 219.241 223.714 221.923 223.839C228.412 248.581 249.31 271.374 275.822 271.374C302.691 271.374 323.947 248.688 330.597 224.018C333.118 223.732 335.21 221.801 335.442 219.173L336.264 209.43C336.479 206.874 334.87 204.693 332.582 203.888C332.528 203.316 332.528 202.726 332.457 202.136C331.956 179.79 328.059 161.734 310.486 154.279C291.911 146.413 275.536 146.306 263.54 150.972C262.754 151.294 260.716 153.993 259.911 154.494C259.107 154.994 254.906 153.6 253.297 153.993ZM263.683 186.833C273.766 197.309 309.413 203.209 325.073 205.175C325.145 206.176 325.234 207.177 325.234 208.196C325.234 233.922 303.639 263.83 275.804 263.83C248.059 263.83 227.357 234.458 227.357 208.196C227.357 206.963 227.447 205.747 227.536 204.55C239.085 200.331 261.27 191.464 263.683 186.833Z" fill="#00ABEB"/>
<path d="M428.405 223.84C434.894 248.582 455.793 271.375 482.304 271.375C509.191 271.375 530.429 248.689 537.08 224.019C538.832 223.822 540.083 222.678 540.941 221.23L542.264 221.087C542.568 221.051 543.104 220.855 543.158 220.319L543.998 210.593C544.034 209.932 543.372 209.682 543.301 209.664L542.747 209.467C542.961 206.911 541.352 204.73 539.046 203.925C539.01 203.353 539.01 202.763 538.939 202.173C538.438 179.827 534.541 161.771 516.968 154.316C498.394 146.45 482.018 146.343 470.023 151.009C469.236 151.331 467.198 154.03 466.394 154.531C465.607 155.013 461.406 153.637 459.797 154.012C433.446 157.767 424.758 182.598 426.671 201.977C426.617 202.513 426.581 203.067 426.51 203.603C423.953 204.229 422.148 206.553 422.398 209.235L423.238 218.996C423.471 221.713 425.723 223.733 428.405 223.84ZM434 204.533C445.549 200.314 467.752 191.465 470.148 186.817C480.213 197.293 515.877 203.192 531.556 205.159C531.627 206.16 531.717 207.161 531.717 208.18C531.717 233.905 510.121 263.813 482.286 263.813C454.523 263.813 433.822 234.441 433.822 208.18C433.875 206.964 433.929 205.731 434 204.533Z" fill="#00ABEB"/>
<path d="M334.215 227.594C331.122 237.623 325.455 247.455 318 255.696L378.693 255.732V255.625L440.673 255.589C433.397 247.384 427.855 237.569 424.816 227.576C421.473 226.217 419.095 223.124 418.773 219.37L417.933 209.609C417.611 206.016 419.292 202.673 422.152 200.707C421.83 197.274 421.973 193.734 422.349 190.195C418.737 186.476 414.518 183.848 409.423 183.115C408.422 182.955 407.439 183.187 406.796 183.455L390.813 205.069L378.675 195.397L378.603 195.451V195.504L378.585 195.486L366.483 205.176L350.501 183.562C349.857 183.312 348.874 183.08 347.89 183.241C343.314 183.884 339.47 186.119 336.092 189.229C336.521 193.216 336.807 197.238 336.914 201.225C339.524 203.227 341.008 206.445 340.722 209.824L339.899 219.549C339.578 223.16 337.379 226.146 334.215 227.594Z" fill="#00ABEB"/>
<path d="M591.462 389.078C586.779 401.038 579.056 412.211 569.188 420.47C579.181 412.104 586.904 400.877 591.462 389.078Z" fill="#00ABEB"/>
<path d="M221.709 294.222C222.049 294.276 222.37 294.347 222.674 294.401C222.799 294.258 222.925 294.115 223.068 293.954C224.659 292.202 225.696 291.112 227.108 290.557C235.152 287.429 244.252 286.231 253.923 286.767L236.44 263.116C235.546 262.758 234.187 262.455 232.811 262.669C216.417 264.975 206.084 280.868 199.523 299.335C204.368 296.796 209.696 294.741 216.006 293.829L217.454 293.704C218.634 293.739 220.225 293.972 221.709 294.222Z" fill="#00ABEB"/>
<path d="M298.462 418.003L299.677 432.215C300.017 436.237 303.324 439.151 307.24 439.33C316.679 475.37 347.141 508.604 385.756 508.604C424.924 508.604 455.888 475.531 465.559 439.58C469.242 439.169 472.281 436.362 472.638 432.519L473.836 418.324C474.176 414.624 471.834 411.424 468.455 410.28C468.384 409.439 468.366 408.563 468.259 407.723C467.561 375.169 461.894 348.854 436.241 338.003C409.193 326.543 385.345 326.382 367.861 333.176C366.717 333.623 363.749 337.573 362.587 338.306C361.425 339.022 355.293 337.001 352.969 337.556C314.587 343.026 301.912 379.209 304.701 407.419C304.629 408.206 304.558 408.992 304.504 409.797C300.768 410.709 298.104 414.087 298.462 418.003ZM315.409 411.191C332.214 405.042 364.571 392.17 368.075 385.395C382.788 400.662 434.721 409.243 457.514 412.103C457.622 413.569 457.765 415.035 457.765 416.501C457.765 454.007 426.301 497.573 385.756 497.573C345.336 497.573 315.159 454.776 315.159 416.501C315.141 414.713 315.284 412.961 315.409 411.191Z" fill="#00ABEB"/>
<path d="M292.451 293.007L275.61 279.581L275.503 279.67V279.76L275.485 279.742L264.688 288.341C271.695 289.646 278.828 291.487 286.069 294.562C310.095 304.734 314.136 330.28 314.761 354.182C323.271 343.563 335.463 335.536 352.303 333.123L353.93 332.98C355.342 332.98 357.237 333.284 359.007 333.606C359.329 333.659 359.615 333.713 359.919 333.766C355.539 305.431 344.741 266.263 318.247 262.526C316.853 262.312 315.494 262.616 314.6 262.991L292.451 293.007Z" fill="#00ABEB"/>
<path d="M524.766 262.526C523.372 262.312 522.031 262.616 521.137 262.991L498.952 293.025L482.111 279.599L482.004 279.688V279.778L481.986 279.76L465.146 293.185L442.943 263.152C442.067 262.794 440.708 262.49 439.332 262.705C415.716 266.03 404.543 297.547 399.305 324.435C411.658 325.185 424.78 328.314 438.026 333.909C446.304 337.413 452.543 342.383 457.387 348.354C457.226 324.399 469.973 298.263 500.596 293.883L502.044 293.758C503.206 293.758 504.815 294.008 506.317 294.276C506.657 294.33 506.978 294.401 507.282 294.455C507.407 294.312 507.55 294.169 507.676 294.008C509.249 292.256 510.286 291.165 511.716 290.611C523.926 285.856 538.585 285.427 553.977 289.127C547.381 275.219 538.067 264.403 524.766 262.526Z" fill="#00ABEB"/>
<path d="M385.412 642.377L512.608 642.27C512.608 642.27 508.728 504.277 447.624 495.678C445.604 495.338 443.602 495.821 442.333 496.339L409.993 540.067L385.448 520.509L385.305 520.616V520.759L385.269 520.724L360.724 540.299L328.384 496.536C327.097 496.018 325.113 495.571 323.093 495.875C261.989 504.456 258.109 642.485 258.109 642.485L385.394 642.556L385.412 642.377Z" fill="#00ABEB"/>
<path d="M527.553 546.003L630.918 545.931C630.918 545.931 627.772 433.788 578.109 426.762C576.465 426.512 574.856 426.87 573.819 427.299L547.522 462.856L527.589 446.928L527.463 447.035V447.16L527.446 447.124L507.513 463.035L481.233 427.495C480.339 427.12 478.945 426.977 477.569 427.048L477.068 432.912C476.693 437.703 473.582 441.636 469.184 443.281C462.891 464.34 448.929 485.078 429.908 498.45C429.247 501.721 428.693 504.903 428.156 508.014L439.508 492.675L440.652 492.211C441.939 491.692 445.014 490.745 448.322 491.263C473.779 494.856 489.743 518.561 499.861 546.146L527.571 546.181L527.553 546.003Z" fill="#00ABEB"/>
<path d="M139.57 546.11L243.007 546.146V545.967H271.021C281.157 518.526 297.103 494.999 322.471 491.46C325.474 491.013 328.764 491.853 330.033 492.371L331.213 492.836L342.332 507.871C341.742 504.278 341.081 500.613 340.294 496.841C322.614 483.433 309.599 463.5 303.646 443.174C298.998 441.672 295.637 437.596 295.208 432.59L294.743 427.084C294.332 427.013 293.993 426.816 293.564 426.745C291.919 426.476 290.31 426.852 289.255 427.263L262.976 462.821L243.043 446.91L242.918 447.017V447.124L242.9 447.089L222.967 462.999L196.688 427.442C195.633 427.049 194.024 426.673 192.379 426.923C142.717 433.931 139.57 546.11 139.57 546.11Z" fill="#00ABEB"/>
<path d="M669.408 87.2943L715.566 17.6094L546.252 39.0083L598.454 194.432L639.339 132.72C705.162 195.755 746.351 284.228 746.351 382.356C746.351 573.372 590.981 728.724 399.982 728.724C209.001 728.742 53.6313 573.372 53.6313 382.374C53.6313 240.68 139.209 118.794 261.309 65.1803L220.961 24.8496C90.0827 90.6731 0 226.146 0 382.391C0 602.941 179.45 782.391 400 782.391C620.55 782.391 800 602.941 800 382.391C800 265.565 749.533 160.501 669.408 87.2943Z" fill="#00ABEB"/>
</svg>
