<svg width="800" height="800" viewBox="0 0 800 800" fill="none" xmlns="http://www.w3.org/2000/svg">
<path d="M357.188 345.938L340 346.562L340.625 455.313H357.188V345.938ZM340.625 236.25L354.688 257.812L356.563 112.5H340.313V236.25H340.625ZM741.25 112.5H757.813V455.625H741.25V112.5ZM438.438 354.688H477.5V418.437H438.438V354.688ZM503.75 290.938H542.813V418.437H503.75V290.938ZM569.375 266.25H608.438V418.75H569.375V266.25ZM634.688 206.875H673.75V418.75H634.688V206.875ZM183.438 144.375C219.063 144.375 247.812 115.625 247.812 80C247.812 44.375 219.063 15.625 183.438 15.625C147.813 15.625 119.063 44.375 119.063 80C119.063 115.625 147.813 144.375 183.438 144.375ZM344.688 331.25H450C486.563 331.25 489.063 274.062 448.75 274.062H347.813L345 270L289.375 189.375C272.5 165.313 252.813 155 225.625 155H139.688C112.5 155 92.8125 166.25 75.9375 189.375L21.25 269.375V331.25V433.438C21.25 449.063 34.0625 461.875 49.6875 461.875C65.3125 461.875 78.125 449.063 78.125 433.438V292.188L104.062 255L104.688 747.812C104.688 771.562 121.25 783.125 138.438 784.375C157.188 785.313 177.188 772.812 176.875 746.562L177.5 460H183.125H188.75L189.375 746.562C189.375 771.875 207.813 784.375 226.25 784.375C244.063 784.375 261.563 772.187 261.563 747.812L262.5 255L306.563 318.125C312.813 327.813 324.063 331.25 333.125 331.25H344.688ZM321.25 84.375V112.5H340.938H357.188H741.563H758.125H778.125V84.375H321.25ZM357.188 455.625H340.625H320.938V483.75H532.813V481.25H553.438V483.75H777.5V455.625H757.5H740.938H357.188ZM553.438 481.25H532.813V483.75V679.062L442.188 769.687H471.25L532.813 708.125V769.687H553.438V708.125L615.625 769.687H644.375L553.75 679.062V483.75V481.25H553.438Z" fill="#00ABEB"/>
</svg>
