<svg width="562" height="364" viewBox="0 0 562 364" fill="none" xmlns="http://www.w3.org/2000/svg">
<path d="M355.422 339.854L540.395 129.97L539.248 125.244L553.072 128.058L360.821 352.317L33.784 243.772L38.516 240.797L44.536 242.78L49.204 239.815L355.422 339.854Z" fill="white"/>
<path d="M95.684 205.625L95.376 203.989L93.343 203.476L65.818 197.092L65.668 197.061L65.648 197.059L62.112 197.417L58.494 198.43L54.848 200.096L51.234 202.397L47.709 205.307L44.332 208.785L41.162 212.782L38.253 217.237L37.044 219.493L35.866 217.168L32.513 209.328L29.776 201.469L27.69 193.673L26.284 186.017L25.582 178.586L25.603 171.462L26.359 164.726L27.445 160.171L348.947 251.643L347.445 257.975L346.111 265.849L345.27 273.848L344.916 281.949L345.043 290.132L345.644 298.378L346.707 306.665L348.227 314.973L350.192 323.288L352.594 331.587L355.422 339.854L49.204 239.815L44.256 232.485L42.235 229.055L67.839 234.36L70.326 229.595L73.043 225.134L75.959 221.024L79.04 217.306L82.25 214.015L85.553 211.182L88.912 208.83L92.292 206.975L95.659 205.631L95.684 205.625Z" fill="url(#paint0_linear_33_4)"/>
<path d="M95.684 205.625L95.376 203.989L93.343 203.476L65.818 197.092L65.668 197.061L65.648 197.059L62.112 197.417L58.494 198.43L54.848 200.096L51.234 202.397L47.709 205.307L44.332 208.785L41.162 212.782L38.253 217.237L37.044 219.493L35.866 217.168L32.513 209.328L29.776 201.469L27.69 193.673L26.284 186.017L25.582 178.586L25.603 171.462L26.359 164.726L27.445 160.171L348.947 251.643L347.445 257.975L346.111 265.849L345.27 273.848L344.916 281.949L345.043 290.132L345.644 298.378L346.707 306.665L348.227 314.973L350.192 323.288L352.594 331.587L355.422 339.854L49.204 239.815L44.256 232.485L42.235 229.055L67.839 234.36L70.326 229.595L73.043 225.134L75.959 221.024L79.04 217.306L82.25 214.015L85.553 211.182L88.912 208.83L92.292 206.975L95.659 205.631L95.684 205.625Z" fill="url(#paint1_linear_33_4)"/>
<path d="M5.64503 204.483L2.82703 194.591L2.99803 195.073L5.79203 204.876L5.64503 204.483Z" fill="#D3D3D3"/>
<path d="M6.36298 143.373L291.189 0L559.424 44.507L356.802 240.849L6.36298 143.373Z" fill="url(#paint2_linear_33_4)"/>
<path d="M34.04 225.809L33.424 227.229L34.921 227.54L35.059 227.809L39.555 235.417L44.536 242.78L38.516 240.797L35.987 237.299L30.805 229.038L26.238 220.536L22.345 211.895L19.18 203.213L16.79 194.597L15.214 186.153L14.487 177.987L14.629 170.208L15.658 162.923L17.276 157.279L23.636 159.088L22.854 161.116L21.381 167.402L20.65 174.159L20.656 181.307L21.386 188.764L22.823 196.446L24.941 204.272L27.71 212.161L31.096 220.033L34.04 225.809Z" fill="#656A6F"/>
<path d="M65.668 197.061L65.818 197.092L65.648 197.059L65.668 197.061Z" fill="#A50000"/>
<path d="M35.354 227.629L35.059 227.809L34.921 227.54L35.354 227.629Z" fill="#444444"/>
<path d="M554.713 130.633L554.473 129.917L554.118 129.244L553.649 128.622L553.072 128.058L360.821 352.317L361.125 353.807L361.386 355.249L361.601 356.627L361.767 357.923L361.881 359.122L361.945 360.21L361.955 361.173L361.911 362.001L361.817 362.682L361.67 363.212L361.476 363.585L553.075 136.135L553.649 135.36L554.116 134.566L554.472 133.762L554.711 132.958L554.832 132.163L554.833 131.384L554.713 130.633Z" fill="#828282"/>
<path d="M539.248 125.244L538.899 123.801L537.738 117.58L536.918 111.32L536.446 105.036L536.324 98.744L536.557 92.46L537.147 86.201L538.096 79.98L538.655 77.351L539.409 73.819L539.602 73.113L357.277 254.012L352.781 252.735L348.947 251.643L347.445 257.975L346.111 265.85L345.913 267.717L345.27 273.848L344.916 281.949L345.043 290.132L345.643 298.378L346.707 306.665L348.227 314.974L350.193 323.288L352.594 331.587L355.421 339.854L540.395 129.97L539.248 125.244Z" fill="#929292"/>
<path d="M553.073 128.058L381.762 327.891L381.761 327.893L355.422 339.854L540.396 129.97L539.248 125.244L553.073 128.058Z" fill="url(#paint3_linear_33_4)"/>
<path d="M561.127 47.395L560.88 46.599L560.511 45.847L560.024 45.147L559.424 44.507L356.802 240.849L357.126 242.4L357.406 243.922L357.635 245.399L357.815 246.811L357.94 248.141L358.009 249.374L358.023 250.495L357.981 251.49L357.883 252.348L357.733 253.06L357.53 253.617L357.277 254.013L539.602 73.113L558.689 54.174L559.395 53.377L559.998 52.547L560.489 51.692L560.864 50.823L561.117 49.948L561.246 49.079L561.25 48.224L561.127 47.395Z" fill="url(#paint4_linear_33_4)"/>
<path d="M37.044 219.493L35.866 217.168L32.513 209.328L29.776 201.469L27.69 193.673L26.284 186.017L25.582 178.586L25.603 171.462L26.359 164.726L27.445 160.171L25.612 159.65L23.636 159.088L22.854 161.116L21.381 167.402L20.65 174.159L20.656 181.307L21.386 188.764L22.823 196.446L24.941 204.272L27.71 212.161L31.096 220.033L34.04 225.809L35.659 222.079L37.044 219.493Z" fill="#53575E"/>
<path d="M44.256 232.485L42.235 229.055L35.354 227.629L35.059 227.809L39.555 235.417L44.536 242.78L49.204 239.815L44.256 232.485Z" fill="#53575E"/>
<path d="M361.945 360.21L361.881 359.122L361.767 357.923L361.601 356.627L361.386 355.249L361.125 353.807L360.821 352.317L33.784 243.772L33.154 244.73L32.592 245.682L32.105 246.616L31.699 247.521L31.378 248.387L31.146 249.205L31.005 249.962L30.957 250.653L31.002 251.268L31.14 251.8L31.368 252.244L31.683 252.594L361.235 363.794L361.476 363.585L361.67 363.212L361.817 362.682L361.911 362.001L361.955 361.173L361.945 360.21Z" fill="url(#paint5_linear_33_4)"/>
<path d="M35.987 237.299L30.805 229.038L26.238 220.536L22.345 211.895L19.18 203.213L16.79 194.597L15.214 186.153L14.487 177.987L14.629 170.208L15.658 162.923L17.276 157.279L16.184 156.967L13.714 156.265L12.494 158.898L10.601 165.601L9.59902 172.907L9.48602 180.711L10.247 188.906L11.856 197.381L14.282 206.03L17.484 214.745L21.415 223.422L26.019 231.96L31.238 240.258L33.784 243.772L38.516 240.797L35.987 237.299Z" fill="url(#paint6_linear_33_4)"/>
<path d="M358.009 249.374L357.94 248.141L357.815 246.811L357.635 245.399L357.406 243.922L357.126 242.4L356.802 240.849L6.36298 143.373L6.39697 144.592L6.55097 145.834L6.82597 147.081L7.21597 148.319L7.71898 149.534L8.32797 150.712L9.03397 151.837L9.83097 152.899L10.707 153.883L11.655 154.779L12.662 155.576L13.714 156.265L16.184 156.967L17.276 157.279L23.636 159.088L25.612 159.65L27.445 160.171L348.947 251.643L352.78 252.734L357.277 254.013L357.53 253.617L357.733 253.06L357.883 252.348L357.981 251.49L358.023 250.495L358.009 249.374Z" fill="url(#paint7_linear_33_4)"/>
<path d="M31.238 240.258L26.019 231.96L21.415 223.422L17.484 214.745L14.282 206.03L11.856 197.381L10.247 188.906L9.486 180.711L9.599 172.907L10.601 165.601L12.494 158.898L13.714 156.265L12.662 155.576L11.655 154.779L10.707 153.883L9.83099 152.899L9.034 151.837L8.328 150.712L7.719 149.534L7.216 148.319L6.826 147.081L6.55099 145.834L6.397 144.592L6.363 143.373L3.244 150.328L1.142 158.078L0.0639954 166.502L0 175.478L0.931 184.882L2.827 194.591L2.998 195.073L5.792 204.876L9.343 214.441L9.454 214.742L13.931 224.554L19.161 234.202L25.076 243.575L31.368 252.244L31.14 251.8L31.002 251.268L30.957 250.653L31.005 249.962L31.146 249.205L31.378 248.387L31.699 247.521L32.105 246.616L32.592 245.682L33.154 244.73L33.784 243.772L31.238 240.258Z" fill="url(#paint8_linear_33_4)"/>
<path opacity="0.3" d="M73.766 224.115L80.42 250.012L106.99 258.693L95.684 205.625H91.422L84.102 209.973L77.148 215.71L70.351 224.502L73.766 224.115Z" fill="url(#paint9_linear_33_4)"/>
<path opacity="0.3" d="M80.42 250.012L106.99 258.693L99.864 265.705L72.783 256.716L80.42 250.012Z" fill="url(#paint10_linear_33_4)"/>
<path opacity="0.3" d="M99.864 265.705C99.864 265.705 98.248 267.778 98.304 270.723C98.37 274.182 99.864 275.6 99.864 275.6L72.783 266.462C72.783 266.462 71.456 265.072 71.456 261.504C71.456 258.318 72.783 256.716 72.783 256.716L99.864 265.705Z" fill="url(#paint11_linear_33_4)"/>
<g opacity="0.5">
<g opacity="0.6">
<path d="M35.354 215.971C31.579 184.002 42.131 179.471 42.131 179.471L345.914 267.717L346.11 265.849L347.444 257.975L348.946 251.643L27.445 160.171L26.359 164.726L25.604 171.462L25.583 178.586L26.284 186.017L27.69 193.672L29.776 201.469L32.513 209.327L35.354 215.971Z" fill="url(#paint12_linear_33_4)"/>
</g>
<g opacity="0.5">
<path d="M345.157 276.691L345.133 276.684L25.978 183.294L26.002 183.212L345.133 276.596L537.328 84.785L537.388 84.845L345.157 276.691Z" fill="#707070"/>
<path d="M345.024 279.741L345 279.734L26.344 186.639L26.368 186.557L344.999 279.645L537.007 87.33L537.067 87.39L345.024 279.741Z" fill="#707070"/>
<path d="M344.93 281.811L344.906 281.804L26.79 189.122L26.813 189.04L344.905 281.715L536.692 89.889L536.751 89.949L344.93 281.811Z" fill="#707070"/>
<path d="M25.6089 174.632L25.5851 174.714L345.842 268.375L345.865 268.293L25.6089 174.632Z" fill="#707070"/>
<path d="M345.549 271.427L345.525 271.42L25.578 177.948L25.602 177.866L345.524 271.332L538.253 79.0699L538.313 79.1299L345.549 271.427Z" fill="#707070"/>
<path d="M345.346 273.29L345.322 273.282L25.565 180.299L25.589 180.217L345.321 273.194L537.784 81.803L537.843 81.863L345.346 273.29Z" fill="#707070"/>
<path d="M344.992 285.949L344.967 285.942L27.581 193.471L27.605 193.389L344.967 285.852L536.527 92.43L536.586 92.49L345.009 285.93L344.992 285.949Z" fill="#707070"/>
<path d="M345.014 287.426L344.989 287.42L28.139 195.105L28.163 195.024L344.989 287.331L536.478 93.7419L536.538 93.801L345.014 287.426Z" fill="#707070"/>
<path d="M345.095 290.666L345.071 290.659L29.045 198.585L29.069 198.502L345.071 290.569L536.416 95.413L536.477 95.472L345.095 290.666Z" fill="#707070"/>
<path d="M345.303 293.299L345.278 293.293L29.64 200.945L29.663 200.863L345.278 293.204L536.35 97.196L536.411 97.255L345.303 293.299Z" fill="#707070"/>
<path d="M345.493 296.458L345.467 296.451L30.83 204.529L30.854 204.448L345.467 296.362L536.293 98.714L536.354 98.773L345.493 296.458Z" fill="#707070"/>
<path d="M345.682 298.611L345.658 298.604L31.783 207.157L31.806 207.075L345.657 298.515L536.35 101.105L536.411 101.164L345.682 298.611Z" fill="#707070"/>
<path d="M346.217 302.886L346.192 302.879L33.52 211.782L33.543 211.7L346.191 302.79L536.293 102.748L536.355 102.806L346.217 302.886Z" fill="#707070"/>
<path d="M346.432 304.422L346.407 304.415L34.242 213.466L34.266 213.384L346.406 304.327L536.415 105.006L536.477 105.065L346.432 304.422Z" fill="#707070"/>
<path d="M346.909 307.741L346.883 307.733L35.89 217.159L35.913 217.078L346.882 307.644L536.691 108.669L536.752 108.727L346.909 307.741Z" fill="#707070"/>
<path d="M348.549 316.445L348.524 316.437L38.384 220.93L38.409 220.848L348.524 316.348L537.006 113.17L537.069 113.228L348.549 316.445Z" fill="#707070"/>
<path d="M349.362 319.769L349.336 319.761L35.813 223.389L35.837 223.308L349.335 319.673L537.327 114.648L537.389 114.706L349.38 319.75L349.362 319.769Z" fill="#707070"/>
<path d="M349.905 322.062L349.878 322.054L36.217 225.876L36.242 225.794L349.877 321.965L537.534 116.23L537.596 116.287L349.905 322.062Z" fill="#707070"/>
<path d="M351.185 326.604L351.16 326.596L44.332 232.501L44.357 232.419L351.159 326.506L538.077 120.726L538.14 120.783L351.185 326.604Z" fill="#707070"/>
<path d="M351.618 328.213L351.591 328.206L45.518 234.342L45.543 234.26L351.59 328.116L537.705 117.552L537.77 117.608L351.618 328.213Z" fill="#707070"/>
<path d="M352.643 331.756L352.618 331.749L48.415 238.46L48.439 238.377L352.617 331.66L538.867 123.773L538.93 123.83L352.643 331.756Z" fill="#707070"/>
<path d="M345.879 268.36L345.82 268.299L538.625 77.321L538.685 77.381L345.879 268.36Z" fill="#707070"/>
</g>
</g>
<path d="M539.602 73.113L539.409 73.819L538.655 77.351L345.913 267.717L346.111 265.85L347.445 257.975L348.947 251.643L352.781 252.735L357.277 254.012L539.602 73.113Z" fill="url(#paint13_linear_33_4)"/>
<path d="M95.376 203.989L95.684 205.625L95.659 205.631L92.292 206.975L88.912 208.83L85.553 211.182L82.25 214.015L79.04 217.306L75.959 221.024L73.043 225.134L70.326 229.595L67.839 234.36L70.028 229.128L72.56 224.205L75.389 219.669L78.465 215.595L81.734 212.044L85.141 209.065L88.627 206.701L92.137 204.979L95.376 203.989Z" fill="#AB0000"/>
<path d="M93.343 203.476L67.839 196.476L66.717 196.166L62.112 197.416L58.493 198.43L54.848 200.096L51.233 202.397L47.709 205.307L44.332 208.785L41.162 212.782L38.253 217.237L37.044 219.493L35.658 222.079L34.039 225.809L33.423 227.229C33.423 227.229 39.455 228.616 48.807 231.192C57.633 233.622 66.696 237.701 66.696 237.701L70.026 229.129L72.558 224.205L75.387 219.67L78.463 215.596L81.732 212.044L85.138 209.065L88.625 206.701L92.135 204.979L95.374 203.989L93.343 203.476Z" fill="url(#paint14_linear_33_4)"/>
<path d="M241.766 43.1064C243.114 43.3704 244.018 43.775 244.48 44.32C244.966 44.8608 244.987 45.4877 244.543 46.2007C244.112 46.9163 243.262 47.6543 241.992 48.4146C240.688 49.1956 239.043 49.8323 237.057 50.325C235.095 50.8134 233.141 51.126 231.193 51.2626C229.27 51.395 227.72 51.3458 226.542 51.115C225.941 50.9971 225.361 50.8608 224.803 50.706C223.853 50.4744 223.103 50.3047 222.553 50.197L220.061 49.7086L220.592 49.3901L223.707 48.9912L234.14 42.744L232.682 41.9947L233.761 41.6606L236.037 42.1067C237.281 42.3502 238.525 42.5668 239.771 42.7565C240.707 42.9034 241.377 43.0166 241.783 43.0961L241.766 43.1064ZM228.362 50.4624C229.304 50.6469 230.378 50.6847 231.585 50.5757C232.803 50.4598 234.017 50.2112 235.227 49.83C236.461 49.4445 237.564 48.9607 238.536 48.3784C239.703 47.6797 240.552 47.0051 241.083 46.3545C241.625 45.697 241.75 45.1125 241.458 44.6007C241.18 44.0916 240.406 43.7127 239.137 43.464C238.339 43.3076 237.394 43.2861 236.301 43.3994L225.886 49.6363C226.398 49.964 227.223 50.2393 228.362 50.4624ZM253.772 48.9363C254.204 49.0209 254.481 49.1569 254.602 49.3443C254.723 49.5317 254.692 49.7529 254.509 50.008L251.79 50.6071L251.044 50.4609C251.278 50.2794 251.38 50.1403 251.35 50.0436C251.345 49.9426 251.225 49.8691 250.989 49.8229C250.702 49.7665 250.325 49.7474 249.861 49.7655C249.421 49.7793 248.815 49.8561 248.044 49.9958L242.93 53.0578L244.94 54.038L243.861 54.3721L237.404 53.1069L237.936 52.7883L240.884 52.4113L245.74 49.5035L244.885 48.6269L245.417 48.3084L250.215 48.1029L248.713 49.4859L252.573 48.7967C252.939 48.7958 253.345 48.8389 253.79 48.926L253.772 48.9363ZM254.257 56.4226C253.642 56.3749 252.969 56.2792 252.236 56.1357C251.372 55.9664 250.788 55.6975 250.484 55.3287C250.204 54.9556 250.205 54.5285 250.487 54.0475C250.783 53.569 251.337 53.0866 252.149 52.6002C253.03 52.0727 254.161 51.6398 255.542 51.3013C256.935 50.956 258.318 50.7361 259.692 50.6416C261.09 50.5427 262.22 50.5779 263.084 50.7471C264.327 50.9907 264.86 51.436 264.682 52.0831C264.518 52.7327 263.732 53.4788 262.325 54.3213L255.063 52.8985C254.169 53.4961 253.675 54.0312 253.581 54.5036C253.5 54.9786 253.917 55.3059 254.833 55.4853C255.683 55.652 257.471 55.5432 260.197 55.159L260.134 55.6648L254.257 56.4226ZM260.504 51.3872C259.091 51.1103 257.505 51.4724 255.747 52.4733L260.34 53.3732C260.84 52.9802 261.184 52.675 261.374 52.4576C261.588 52.2359 261.641 52.0326 261.532 51.8478C261.449 51.6586 261.106 51.5051 260.504 51.3872ZM270.436 59.5654L266.707 58.8347L268.2 57.9408L264.455 58.4207C264.102 58.4242 263.729 58.3875 263.336 58.3106C262.211 58.0902 261.639 57.7826 261.621 57.3881C261.616 56.9961 261.956 56.5946 262.642 56.1836C263.054 55.937 263.63 55.7272 264.371 55.5541C265.112 55.381 265.973 55.2498 266.956 55.1605L271.392 56.0296L272.49 55.372C273.233 54.9268 273.53 54.5668 273.381 54.2921C273.245 54.02 272.785 53.807 272 53.6532C271.188 53.4942 269.765 53.5563 267.73 53.8393L267.793 53.3335L272.575 52.7159C273.19 52.7636 273.864 52.8593 274.597 53.0029C275.787 53.2362 276.452 53.571 276.592 54.0075C276.743 54.4371 276.332 54.943 275.36 55.5252L270.349 58.5256L271.515 59.2313L270.436 59.5654ZM265.423 57.5603C266.221 57.7167 267.398 57.6928 268.955 57.4887L270.688 56.4509L267.214 55.7702C266.861 55.8465 266.554 55.9317 266.292 56.026C266.044 56.1227 265.811 56.2362 265.593 56.3664C265.17 56.6198 264.928 56.8634 264.868 57.097C264.819 57.3238 265.004 57.4783 265.423 57.5603ZM290.85 63.5651L287.121 62.8345L292.903 59.3718C293.533 58.995 293.862 58.7095 293.891 58.5152C293.92 58.3209 293.647 58.1674 293.071 58.0546C292.666 57.9751 292.198 57.938 291.668 57.9433C291.15 57.9418 290.428 58.0049 289.502 58.1327L284.286 61.2563L285.452 61.962L284.373 62.2961L280.644 61.5654L286.427 58.1027C287.056 57.726 287.385 57.4405 287.414 57.2462C287.443 57.0519 287.17 56.8984 286.594 56.7856C286.189 56.7061 285.721 56.669 285.191 56.6743C284.673 56.6727 283.951 56.7358 283.026 56.8636L277.809 59.9872L278.975 60.693L277.896 61.0271L272.42 59.9541L272.952 59.6356L275.9 59.2586L280.756 56.3508L279.902 55.4742L280.434 55.1557L285.231 54.9502L283.663 56.3884L288.178 55.7594C288.544 55.7584 288.95 55.8015 289.395 55.8887C290.153 56.0374 290.598 56.27 290.73 56.5867C290.872 56.8964 290.694 57.2525 290.196 57.6549L294.618 57.0348C294.984 57.0339 295.39 57.077 295.835 57.1641C296.724 57.3385 297.191 57.6208 297.234 58.011C297.288 58.3944 296.909 58.8293 296.097 59.3157L290.743 62.5215L291.929 63.2311L290.85 63.5651ZM315.524 62.6312C316.28 62.9793 316.648 63.3879 316.629 63.8569C316.61 64.3259 316.212 64.7933 315.434 65.2591C314.713 65.6906 313.699 66.0328 312.391 66.2857C311.108 66.5343 309.78 66.6742 308.408 66.7054C307.049 66.7391 305.925 66.6689 305.035 66.4945C304.381 66.3663 303.768 66.2236 303.197 66.0663C302.208 65.8269 301.425 65.6509 300.85 65.5381L298.357 65.0497L298.889 64.7311L302.004 64.3323L312.436 58.085L310.978 57.3357L312.057 57.0016L314.334 57.4477C315.525 57.681 316.73 57.8899 317.95 58.0744C318.886 58.2214 319.563 58.3359 319.981 58.4179C320.858 58.5897 321.481 58.83 321.851 59.1388C322.221 59.4477 322.325 59.7908 322.164 60.1683C322.027 60.5415 321.644 60.9165 321.015 61.2932C320.443 61.6357 319.665 61.9197 318.68 62.145C317.721 62.3661 316.68 62.5213 315.558 62.6107L315.524 62.6312ZM317.507 61.2878C318.411 60.7467 318.874 60.251 318.896 59.8008C318.919 59.3506 318.387 59.0192 317.301 58.8064C316.516 58.6525 315.615 58.6306 314.598 58.7404L310.051 61.4633L312.857 62.0132C313.669 62.1722 314.48 62.1903 315.293 62.0677C316.117 61.9382 316.861 61.6748 317.524 61.2775L317.507 61.2878ZM306.837 65.8521C307.779 66.0367 308.731 66.0595 309.692 65.9206C310.667 65.7843 311.503 65.5071 312.201 65.0893C313.093 64.555 313.513 64.0645 313.46 63.6177C313.42 63.1736 312.829 62.8258 311.685 62.5746C311.582 62.5635 311.452 62.5425 311.295 62.5118L309.038 62.0695L304.182 64.9774C304.75 65.3341 305.629 65.6291 306.82 65.8624L306.837 65.8521ZM319.239 69.1275L313.763 68.0546L314.295 67.736L317.243 67.359L322.253 64.3587L321.57 63.3794L322.102 63.0609L326.556 63.0609L327.302 63.207L319.152 68.0877L320.318 68.7934L319.239 69.1275ZM331.194 59.8784C331.586 59.9553 331.781 60.0934 331.778 60.2929C331.788 60.4948 331.604 60.7088 331.227 60.9349C330.964 61.0924 330.62 61.2252 330.197 61.3332C329.785 61.4343 329.373 61.499 328.961 61.5274C328.549 61.5557 328.212 61.5443 327.95 61.493C327.558 61.4161 327.356 61.2766 327.346 61.0747C327.349 60.8753 327.54 60.6625 327.917 60.4365C328.18 60.2789 328.518 60.1496 328.93 60.0485C329.353 59.9405 329.771 59.8724 330.183 59.844C330.595 59.8156 330.932 59.8271 331.194 59.8784ZM337.915 66.4865C337.824 66.8323 337.492 67.1765 336.92 67.519C336.417 67.8204 335.756 68.0863 334.937 68.3167C334.129 68.5404 333.268 68.7079 332.352 68.8194C331.436 68.931 330.56 68.9774 329.723 68.9589C329.061 69.0746 328.558 69.2352 328.215 69.4407C328.02 69.5572 328.007 69.7001 328.176 69.8695C328.369 70.0346 328.692 70.2523 329.143 70.5226C329.752 70.8965 330.173 71.2109 330.407 71.4658C330.643 71.7302 330.567 71.9789 330.178 72.2118C329.834 72.4173 329.139 72.631 328.091 72.853C327.056 73.0775 325.966 73.2366 324.819 73.3302C323.673 73.4238 322.753 73.4027 322.06 73.2668C321.327 73.1232 320.566 72.8877 319.776 72.5601C318.998 72.2351 318.385 71.9422 317.935 71.6813L320.577 70.0989L321.323 70.2451C321.267 70.8613 321.412 71.367 321.759 71.7623C322.106 72.1576 322.757 72.4489 323.712 72.636C324.066 72.7052 324.449 72.7304 324.863 72.7114C325.29 72.695 325.679 72.644 326.03 72.5583C326.383 72.482 326.646 72.3925 326.817 72.2898C327.126 72.1048 327.192 71.9041 327.015 71.6876C326.827 71.478 326.461 71.1927 325.918 70.8317C325.391 70.4921 325.033 70.2174 324.845 70.0078C324.67 69.8008 324.725 69.6116 325.011 69.4404C325.286 69.2759 325.776 69.1491 326.48 69.0599C327.185 68.9707 327.934 68.9174 328.727 68.9001C328.483 68.8796 328.25 68.8476 328.028 68.804C327.334 68.6681 326.831 68.465 326.519 68.1947C326.217 67.9175 326.12 67.612 326.226 67.2781C326.345 66.9469 326.667 66.6237 327.194 66.3086C327.823 65.9319 328.678 65.6175 329.758 65.3656C330.839 65.1137 331.949 64.9584 333.089 64.8999C334.253 64.8371 335.247 64.8864 336.071 65.048C336.987 65.2274 337.563 65.5221 337.799 65.932L340.881 66.5357L340.231 66.9403L337.915 66.4865ZM330.642 68.1434C331.231 68.2588 331.801 68.2706 332.354 68.1788C332.931 68.0828 333.471 67.8841 333.975 67.5827C334.661 67.1717 334.961 66.7895 334.873 66.4361C334.799 66.0852 334.35 65.829 333.526 65.6675C332.95 65.5547 332.38 65.5429 331.814 65.632C331.273 65.7169 330.75 65.9101 330.247 66.2115C329.549 66.6293 329.232 67.0171 329.294 67.3748C329.381 67.7283 329.83 67.9845 330.642 68.1434ZM330.046 74.8589L329.815 74.4045C331.18 74.1174 332.264 73.8479 333.067 73.596C333.858 73.351 334.594 73.0453 335.276 72.6788L334.534 71.9062L335.066 71.5877L339.863 71.3822L338.001 73.0901L330.046 74.8589ZM358.502 74.4067C358.856 74.1944 359.024 73.9637 359.006 73.7146C358.988 73.4656 358.856 73.217 358.61 72.9689C358.389 72.7165 358.049 72.3952 357.589 72.0051C357.052 71.5362 356.643 71.1469 356.361 70.8372C356.091 70.5206 355.963 70.1865 355.978 69.8347C356.005 69.4855 356.288 69.1499 356.825 68.828C357.397 68.4855 358.284 68.1728 359.486 67.8901C360.699 67.6004 361.921 67.399 363.152 67.2856C364.408 67.168 365.369 67.1746 366.036 67.3053C366.848 67.4643 367.704 67.7003 368.605 68.0132C369.507 68.3262 370.109 68.5896 370.411 68.8035L367.083 70.7969L366.337 70.6507C366.622 69.9703 366.636 69.4003 366.379 68.9408C366.135 68.4838 365.594 68.1733 364.757 68.0092C364.011 67.8631 363.21 67.8697 362.353 68.0292C361.521 68.1843 360.779 68.4571 360.127 68.8476C359.749 69.0736 359.558 69.318 359.554 69.5808C359.573 69.8392 359.7 70.0912 359.932 70.3368C360.178 70.5849 360.539 70.9147 361.015 71.3263C361.56 71.7694 361.967 72.1493 362.238 72.4659C362.519 72.7756 362.645 73.1004 362.616 73.4401C362.612 73.7756 362.341 74.1044 361.803 74.4263C361.231 74.7688 360.319 75.081 359.067 75.363C357.826 75.6381 356.551 75.8293 355.243 75.9366C353.96 76.0397 352.971 76.0233 352.278 75.8874C351.427 75.7208 350.499 75.4707 349.493 75.1372C348.5 74.8063 347.846 74.5326 347.53 74.3162L350.859 72.3228L351.605 72.469C351.345 73.1546 351.384 73.7348 351.719 74.2097C352.055 74.6846 352.674 75.0105 353.577 75.1874C354.114 75.2925 354.694 75.3244 355.319 75.2832C355.943 75.2419 356.533 75.1438 357.087 74.9887C357.653 74.8268 358.124 74.6328 358.502 74.4067ZM365.993 78.3156C365.601 78.3115 365.189 78.2671 364.757 78.1825C363.671 77.9697 363.119 77.666 363.1 77.2715C363.106 76.8727 363.63 76.3616 364.671 75.7382L369.681 72.7379L367.561 72.3226L368.265 71.9013L375.786 70.3612L376.532 70.5073L372.74 72.7781L376.273 73.4703L375.569 73.8916L372.036 73.1994L366.82 76.323C365.894 76.8779 365.941 77.2553 366.961 77.4552C367.236 77.5091 367.549 77.5295 367.901 77.5166C368.265 77.5062 368.769 77.4594 369.411 77.3762L369.348 77.882L365.993 78.3156ZM379.61 80.9564L375.881 80.2258L377.374 79.3319L373.629 79.8118C373.276 79.8153 372.903 79.7786 372.511 79.7017C371.385 79.4812 370.813 79.1737 370.795 78.7792C370.79 78.3872 371.13 77.9857 371.817 77.5747C372.228 77.3281 372.805 77.1183 373.545 76.9452C374.286 76.7721 375.147 76.6409 376.13 76.5516L380.566 77.4207L381.664 76.7631C382.407 76.3178 382.705 75.9579 382.555 75.6832C382.419 75.4111 381.959 75.1981 381.174 75.0443C380.363 74.8853 378.939 74.9474 376.904 75.2304L376.967 74.7246L381.749 74.107C382.364 74.1547 383.038 74.2504 383.771 74.3939C384.961 74.6272 385.626 74.9621 385.766 75.3985C385.917 75.8281 385.506 76.3341 384.534 76.9163L379.523 79.9166L380.689 80.6224L379.61 80.9564ZM374.597 78.9514C375.395 79.1078 376.573 79.0839 378.129 78.8798L379.862 77.842L376.388 77.1613C376.035 77.2376 375.728 77.3228 375.466 77.417C375.218 77.5138 374.985 77.6273 374.767 77.7574C374.344 78.0109 374.102 78.2544 374.042 78.4881C373.993 78.7149 374.178 78.8693 374.597 78.9514ZM397.926 77.1811C398.358 77.2657 398.634 77.4017 398.755 77.5891C398.877 77.7765 398.846 77.9977 398.663 78.2528L395.943 78.8518L395.198 78.7057C395.431 78.5242 395.533 78.3851 395.504 78.2884C395.499 78.1874 395.378 78.1138 395.143 78.0677C394.855 78.0113 394.479 77.9921 394.015 78.0102C393.575 78.0241 392.969 78.1008 392.197 78.2406L387.084 81.3025L389.094 82.2827L388.015 82.6168L381.558 81.3516L382.09 81.0331L385.038 80.6561L389.893 77.7483L389.039 76.8717L389.571 76.5532L394.368 76.3477L392.866 77.7307L396.726 77.0415C397.093 77.0405 397.498 77.0836 397.943 77.1708L397.926 77.1811ZM397.312 84.4521C396.919 84.4479 396.507 84.4035 396.075 84.3189C394.989 84.1061 394.437 83.8025 394.419 83.4079C394.425 83.0091 394.948 82.498 395.989 81.8746L401 78.8743L398.88 78.459L399.584 78.0377L407.105 76.4976L407.851 76.6437L404.058 78.9145L407.591 79.6067L406.888 80.028L403.355 79.3358L398.139 82.4594C397.212 83.0143 397.259 83.3917 398.28 83.5917C398.555 83.6455 398.868 83.6659 399.219 83.653C399.584 83.6426 400.087 83.5958 400.73 83.5126L400.667 84.0185L397.312 84.4521ZM417.995 86.0637C418.35 85.8513 418.518 85.6206 418.5 85.3716C418.482 85.1225 418.35 84.8739 418.104 84.6258C417.883 84.3734 417.543 84.0521 417.083 83.662C416.546 83.1932 416.137 82.8039 415.855 82.4941C415.585 82.1776 415.457 81.8434 415.471 81.4916C415.499 81.1424 415.781 80.8069 416.319 80.4849C416.891 80.1424 417.778 79.8298 418.979 79.547C420.192 79.2574 421.414 79.0559 422.646 78.9426C423.901 78.825 424.863 78.8315 425.53 78.9623C426.341 79.1212 427.198 79.3572 428.099 79.6702C429 79.9831 429.602 80.2466 429.905 80.4604L426.576 82.4538L425.831 82.3077C426.116 81.6272 426.13 81.0572 425.873 80.5977C425.629 80.1407 425.088 79.8302 424.251 79.6661C423.505 79.52 422.703 79.5267 421.847 79.6861C421.015 79.8413 420.273 80.1141 419.62 80.5045C419.243 80.7306 419.052 80.975 419.047 81.2377C419.067 81.4962 419.193 81.7482 419.426 81.9937C419.671 82.2418 420.032 82.5717 420.509 82.9832C421.054 83.4264 421.461 83.8062 421.731 84.1228C422.013 84.4325 422.139 84.7573 422.11 85.0971C422.106 85.4326 421.835 85.7613 421.297 86.0832C420.725 86.4257 419.813 86.738 418.561 87.0199C417.32 87.295 416.045 87.4862 414.737 87.5936C413.454 87.6966 412.465 87.6802 411.772 87.5444C410.921 87.3777 409.993 87.1277 408.987 86.7942C407.994 86.4632 407.34 86.1896 407.024 85.9731L410.353 83.9798L411.098 84.1259C410.839 84.8115 410.877 85.3918 411.213 85.8666C411.549 86.3415 412.168 86.6674 413.071 86.8443C413.607 86.9494 414.188 86.9814 414.813 86.9401C415.437 86.8988 416.027 86.8007 416.581 86.6456C417.146 86.4837 417.618 86.2897 417.995 86.0637ZM438.377 92.4709L434.648 91.7402L440.43 88.2775C441.059 87.9008 441.389 87.6153 441.418 87.421C441.447 87.2267 441.174 87.0731 440.598 86.9603C440.192 86.8809 439.725 86.8438 439.195 86.8491C438.677 86.8475 437.955 86.9106 437.029 87.0384L431.813 90.162L432.979 90.8677L431.9 91.2018L428.171 90.4712L433.953 87.0085C434.583 86.6317 434.912 86.3462 434.941 86.1519C434.97 85.9576 434.697 85.8041 434.121 85.6913C433.716 85.6118 433.248 85.5747 432.718 85.58C432.2 85.5785 431.478 85.6416 430.552 85.7694L425.336 88.893L426.502 89.5987L425.423 89.9328L419.947 88.8599L420.479 88.5414L423.427 88.1644L428.283 85.2565L427.429 84.3799L427.96 84.0614L432.758 83.8559L431.19 85.2942L435.705 84.6651C436.071 84.6641 436.477 84.7072 436.921 84.7944C437.68 84.9431 438.125 85.1758 438.257 85.4924C438.399 85.8022 438.221 86.1582 437.723 86.5606L442.145 85.9406C442.511 85.9396 442.917 85.9827 443.361 86.0699C444.251 86.2442 444.718 86.5265 444.761 86.9168C444.815 87.3002 444.436 87.735 443.624 88.2214L438.27 91.4272L439.456 92.1368L438.377 92.4709ZM450.547 94.8554L446.818 94.1247L448.31 93.2308L444.565 93.7107C444.212 93.7143 443.839 93.6776 443.447 93.6006C442.322 93.3802 441.75 93.0727 441.731 92.6781C441.726 92.2861 442.067 91.8847 442.753 91.4737C443.165 91.2271 443.741 91.0172 444.481 90.8441C445.222 90.671 446.084 90.5398 447.066 90.4505L451.502 91.3196L452.6 90.662C453.344 90.2168 453.641 89.8568 453.492 89.5821C453.356 89.31 452.895 89.097 452.11 88.9432C451.299 88.7843 449.876 88.8463 447.84 89.1293L447.903 88.6235L452.686 88.0059C453.3 88.0537 453.974 88.1493 454.707 88.2929C455.898 88.5262 456.563 88.861 456.702 89.2975C456.853 89.7271 456.442 90.233 455.47 90.8152L450.46 93.8156L451.626 94.5213L450.547 94.8554ZM445.533 92.8503C446.332 93.0067 447.509 92.9828 449.065 92.7787L450.798 91.7409L447.325 91.0602C446.971 91.1365 446.664 91.2218 446.403 91.316C446.154 91.4128 445.921 91.5262 445.704 91.6564C445.281 91.9098 445.039 92.1534 444.979 92.387C444.93 92.6139 445.115 92.7683 445.533 92.8503ZM457.595 96.2363L452.119 95.1634L452.651 94.8449L455.599 94.4679L466.151 88.1487L465.468 87.1694L466 86.8509L470.454 86.8509L471.2 86.997L457.508 95.1965L458.673 95.9022L457.595 96.2363ZM464.84 97.6559L459.364 96.583L459.896 96.2644L462.844 95.8874L473.396 89.5683L472.713 88.589L473.245 88.2704L477.7 88.2704L478.445 88.4165L464.753 96.6161L465.919 97.3218L464.84 97.6559ZM463.102 100.929L462.871 100.475C464.236 100.188 465.32 99.9183 466.122 99.6664C466.914 99.4214 467.65 99.1157 468.331 98.7492L467.59 97.9766L468.122 97.658L472.919 97.4525L471.057 99.1605L463.102 100.929ZM190.97 79.4515L185.004 78.2825L185.536 77.964L188.633 77.5754L190.296 75.3784L183.702 74.0862L178.849 75.7129L181.274 77.0062L180.195 77.3403L174.228 76.1713L174.76 75.8527L177.875 75.4539L194.565 69.8736L197.482 69.7496L191.133 78.1061L192.049 79.1175L190.97 79.4515ZM193.872 70.6788L184.866 73.7008L190.715 74.8468L193.872 70.6788ZM207.537 75.3199C208.073 75.425 208.626 75.5879 209.196 75.8085C209.789 76.0249 210.163 76.2118 210.317 76.3692L207.675 77.9516L206.929 77.8054C206.99 77.3629 206.848 76.9804 206.501 76.6579C206.178 76.331 205.664 76.0984 204.957 75.96C204.355 75.842 203.663 75.8927 202.88 76.112C202.11 76.3339 201.273 76.7154 200.369 77.2566C199.294 77.9005 198.659 78.4942 198.463 79.0377C198.279 79.5744 198.684 79.9402 199.678 80.135C200.424 80.2811 201.953 80.2079 204.265 79.9154L204.202 80.4212L199.103 81.0723C198.488 81.0246 197.814 80.9289 197.081 80.7853C196.218 80.6161 195.634 80.3471 195.329 79.9784C195.049 79.6053 195.05 79.1782 195.333 78.6972C195.628 78.2187 196.182 77.7362 196.994 77.2499C197.875 76.7224 198.986 76.2809 200.326 75.9254C201.68 75.5724 203.017 75.3435 204.338 75.2387C205.659 75.1339 206.726 75.1609 207.537 75.3199ZM210.041 83.2154C209.648 83.2112 209.236 83.1668 208.804 83.0822C207.718 82.8694 207.166 82.5658 207.148 82.1712C207.154 81.7724 207.677 81.2613 208.718 80.638L213.728 77.6377L211.609 77.2223L212.312 76.801L219.833 75.2609L220.579 75.4071L216.787 77.6778L220.32 78.37L219.617 78.7913L216.084 78.0991L210.867 81.2227C209.941 81.7776 209.988 82.155 211.008 82.355C211.283 82.4088 211.596 82.4293 211.948 82.4163C212.313 82.406 212.816 82.3592 213.459 82.276L213.396 82.7818L210.041 83.2154ZM244.006 80.57L232.321 87.5674L231.242 87.3558L232.232 79.3539L223.515 84.5736L224.666 85.522L223.587 85.8561L218.995 84.9562L219.527 84.6377L222.641 84.2388L232.696 78.2176L231.616 77.2423L232.695 76.9082L235.659 77.4889L234.691 85.2906L243.167 80.2147L242.018 79.2804L243.097 78.9463L247.69 79.8462L247.141 80.175L244.006 80.57ZM251.553 83.9442C252.417 84.1134 252.988 84.3846 253.268 84.7576C253.573 85.1264 253.578 85.55 253.282 86.0285C253 86.5096 252.452 86.9933 251.64 87.4797C250.759 88.0071 249.623 88.4435 248.23 88.7888C246.848 89.1273 245.459 89.3459 244.061 89.4447C242.687 89.5393 241.569 89.502 240.705 89.3327C239.841 89.1635 239.257 88.8945 238.953 88.5258C238.673 88.1527 238.674 87.7256 238.956 87.2446C239.252 86.7661 239.806 86.2836 240.618 85.7973C241.499 85.2698 242.63 84.8369 244.011 84.4984C245.404 84.1531 246.787 83.9332 248.161 83.8387C249.559 83.7398 250.689 83.775 251.553 83.9442ZM248.973 84.5843C247.495 84.2946 245.835 84.7012 243.993 85.804C242.906 86.4548 242.265 87.0519 242.069 87.5954C241.885 88.1321 242.29 88.4978 243.285 88.6927C244.763 88.9824 246.429 88.5724 248.282 87.4627C249.358 86.8188 249.987 86.2285 250.172 85.6918C250.367 85.1483 249.968 84.7791 248.973 84.5843ZM273.674 88.8375L260.717 93.1175L259.226 92.8252L261.56 89.8051L254.653 91.9292L253.161 91.6369L256.637 87.1222L255.738 86.2097L256.27 85.8912L261.067 85.6857L259.222 87.3834L256.521 90.9042L262.065 89.1131L262.682 88.3067L261.783 87.3942L262.315 87.0757L267.113 86.8701L265.267 88.5678L262.644 91.9949L269.804 89.5794L268.809 88.0071L269.888 87.673L274.205 88.519L273.674 88.8375ZM270.621 92.9443C271.014 93.0212 271.209 93.1593 271.205 93.3588C271.215 93.5607 271.032 93.7747 270.654 94.0008C270.391 94.1583 270.048 94.2911 269.625 94.3991C269.213 94.5002 268.801 94.5649 268.388 94.5933C267.976 94.6216 267.64 94.6102 267.378 94.5589C266.985 94.482 266.784 94.3425 266.774 94.1406C266.777 93.9412 266.967 93.7284 267.345 93.5024C267.608 93.3448 267.946 93.2155 268.357 93.1144C268.781 93.0064 269.199 92.9383 269.611 92.9099C270.023 92.8815 270.36 92.893 270.621 92.9443Z" fill="white"/>
<path d="M161.131 145.463C161.722 145.481 163.127 145.69 165.344 146.091C167.582 146.476 169.542 146.878 171.224 147.297C172.932 147.723 174.188 148.101 174.994 148.432C174.935 148.504 174.843 148.59 174.717 148.688C174.612 148.77 174.272 148.956 173.696 149.246C173.147 149.542 172.77 149.729 172.566 149.809C172.191 149.888 171.483 149.842 170.441 149.669L160.424 165.135L163.859 166.252C163.27 166.711 162.42 167.149 161.308 167.565L152.381 165.339L153.368 164.448C154.215 164.4 155.302 164.443 156.63 164.579L159.158 160.564L148.33 157.864L142.376 160.636L145.268 161.616C144.679 162.076 143.829 162.514 142.717 162.93L133.79 160.704L134.777 159.813C136.08 159.835 137.385 159.922 138.692 160.074L164.093 147.988C162.001 147.25 160.636 146.65 159.998 146.188L161.131 145.463ZM163.121 154.308L167.242 148.968C167.108 148.913 166.898 148.85 166.614 148.779L158.088 153.281L151.045 156.462L160.477 158.814L163.121 154.308ZM156.283 174.141C155.455 173.934 154.582 173.576 153.665 173.066C152.722 172.549 152.147 172.146 151.938 171.856C153.979 170.394 155.623 169.363 156.867 168.764C157.521 168.84 158.054 168.93 158.468 169.033C158.856 169.13 159.105 169.203 159.213 169.252L156.748 172.178C157.031 172.357 157.547 172.54 158.298 172.727C160.549 173.288 163.177 172.395 166.182 170.047C167.947 168.668 170.532 166.595 173.938 163.827C177.391 161.05 179.682 159.206 180.812 158.297C179.452 157.893 178.44 157.51 177.775 157.15L179.569 155.908C181.204 155.99 183.276 156.345 185.786 156.97C186.588 157.17 187.136 157.329 187.431 157.445C186.926 157.84 186.292 158.255 185.527 158.693C184.763 159.13 184.378 159.337 184.373 159.314C181.185 161.725 176.356 165.404 169.886 170.353C167.438 172.212 165.192 173.46 163.147 174.098C161.107 174.759 158.819 174.773 156.283 174.141ZM189.911 155.108C189.112 155.038 188.389 154.923 187.742 154.762C187.121 154.607 186.532 154.428 185.974 154.224C186.407 153.725 186.918 153.246 187.506 152.786C188.116 152.31 188.593 151.964 188.939 151.747C189.614 151.807 190.261 151.914 190.882 152.069C191.529 152.23 192.194 152.418 192.876 152.631C192.485 153.097 192.027 153.535 191.502 153.945C190.997 154.339 190.467 154.727 189.911 155.108ZM200.546 166.725L192.219 173.03C193.269 173.357 194.234 173.749 195.116 174.207L193.935 175.05C193.353 175.078 192.413 175.039 191.117 174.932C189.867 174.815 188.724 174.628 187.689 174.37C187.98 173.663 188.446 173.032 189.088 172.477C184.562 172.973 181.704 173.073 180.514 172.776C178.677 172.318 177.601 171.638 177.287 170.737C176.973 169.836 177.53 168.827 178.959 167.71C182.259 165.133 186.445 164.422 191.518 165.579C194.479 166.252 195.972 166.592 195.998 166.598L197.031 165.751C198.429 164.606 199.133 163.709 199.142 163.062C199.173 162.398 198.386 161.866 196.782 161.466C196.109 161.298 195.258 161.216 194.23 161.22L190.146 163.45C189.996 163.434 189.765 163.388 189.455 163.31L187.958 162.84C188.448 162.03 189.478 160.999 191.049 159.745C191.751 159.703 193.192 159.737 195.372 159.848C197.572 159.942 198.919 160.05 199.41 160.172C202.049 160.83 203.44 161.664 203.581 162.674C203.722 163.684 202.71 165.034 200.546 166.725ZM183.511 171.314C184.262 171.501 186.678 171.4 190.761 171.01L194.507 167.883C192.621 167.543 191.031 167.266 189.736 167.051C188.44 166.836 187.199 166.819 186.012 167C184.847 167.164 183.78 167.624 182.814 168.379C181.028 169.774 181.26 170.753 183.511 171.314ZM193.732 181.691C194.715 181.936 196.439 181.576 198.905 180.61C201.396 179.65 203.127 178.858 204.097 178.233L203.165 178.001L210.902 165.636L207.894 164.627C208.482 164.167 209.333 163.729 210.445 163.314L219.372 165.539L218.385 166.43C217.263 166.454 216.113 166.405 214.936 166.285L209.707 173.85L207.826 176.239L208.214 176.336L224.251 168.607L221.684 167.253L222.904 166.42L231.636 168.597C231.404 169.232 230.993 169.78 230.405 170.239C229.239 170.057 228.105 169.85 227.002 169.618C224.732 170.698 221.338 172.31 216.819 174.453C212.327 176.604 208.82 178.263 206.3 179.432C203.805 180.608 201.636 181.529 199.793 182.196C197.95 182.862 196.475 183.242 195.367 183.334C194.265 183.448 193.26 183.393 192.355 183.167C190.751 182.767 189.502 182.196 188.609 181.454L188.194 181.058C190.771 179.231 192.201 178.234 192.484 178.067C192.754 178.069 193.535 178.231 194.829 178.554L192.934 181.395C193.104 181.502 193.37 181.601 193.732 181.691ZM251.561 178.178C246.812 181.888 242.254 184.076 237.886 184.741C236.059 185.022 234.362 185.108 232.796 184.999C231.25 184.873 229.429 184.549 227.333 184.027L217.475 181.569L218.462 180.678C218.628 180.654 219.295 180.68 220.463 180.754C221.63 180.829 222.304 180.889 222.485 180.934C230.526 174.492 236.49 169.699 240.379 166.554C239.341 166.165 238.455 165.684 237.72 165.111C238.486 164.566 238.95 164.27 239.112 164.224L248.893 166.662C251.584 167.333 253.506 168.018 254.659 168.717C255.838 169.423 256.474 170.339 256.567 171.467C256.76 173.183 255.091 175.42 251.561 178.178ZM247.544 177.436C250.381 175.22 251.854 173.389 251.963 171.943C252.119 170.488 250.658 169.377 247.579 168.609L243.62 167.622C239.65 170.617 233.616 175.198 225.518 181.365L229.593 182.381C233.138 183.265 236.133 183.351 238.579 182.64C241.046 181.913 244.035 180.178 247.544 177.436ZM271.827 170.984C272.629 171.184 273.177 171.342 273.472 171.459C273.094 171.754 272.522 172.121 271.757 172.558C271.04 172.986 270.602 173.234 270.446 173.303C269.983 173.664 269.001 174.405 267.5 175.525C265.998 176.645 264.848 177.517 264.049 178.14C265.645 178.04 267.165 177.986 268.609 177.978C270.079 177.976 270.956 178.011 271.241 178.082C273.725 178.701 275.019 179.544 275.123 180.609C275.248 181.658 274.291 182.979 272.253 184.571C271.664 185.031 268.829 187.139 263.747 190.897L266.755 191.907C266.167 192.366 265.316 192.804 264.204 193.22L255.277 190.994L256.264 190.103C257.79 190.137 259.207 190.23 260.513 190.383C265.864 186.043 268.779 183.619 269.259 183.11C269.786 182.592 270.151 182.12 270.355 181.694C270.558 181.268 270.496 180.917 270.167 180.64C269.839 180.364 269.248 180.119 268.394 179.906C266.635 179.467 264.617 179.311 262.34 179.436L251.327 187.8L254.335 188.81C253.747 189.27 252.896 189.707 251.784 190.123L242.857 187.897L243.844 187.006C245.371 187.041 246.787 187.134 248.094 187.286L266.698 172.271C265.338 171.867 264.325 171.485 263.661 171.124L265.455 169.882C267.09 169.965 269.214 170.332 271.827 170.984ZM292.838 189.736L284.511 196.041C285.561 196.368 286.526 196.76 287.408 197.218L286.227 198.061C285.645 198.089 284.705 198.05 283.408 197.943C282.158 197.826 281.016 197.639 279.981 197.381C280.272 196.674 280.738 196.043 281.38 195.488C276.854 195.984 273.996 196.083 272.806 195.787C270.969 195.329 269.893 194.649 269.579 193.748C269.265 192.846 269.822 191.838 271.251 190.721C274.55 188.144 278.736 187.433 283.809 188.59C286.77 189.263 288.264 189.603 288.29 189.609L289.323 188.762C290.721 187.617 291.425 186.72 291.434 186.073C291.464 185.409 290.678 184.877 289.073 184.477C288.401 184.309 287.55 184.227 286.522 184.231L282.438 186.461C282.288 186.445 282.057 186.399 281.747 186.321L280.25 185.851C280.74 185.041 281.77 184.01 283.341 182.756C284.043 182.714 285.484 182.748 287.663 182.859C289.864 182.953 291.21 183.061 291.702 183.183C294.341 183.841 295.731 184.675 295.872 185.685C296.014 186.695 295.002 188.045 292.838 189.736ZM275.803 194.325C276.553 194.512 278.97 194.411 283.053 194.021L286.799 190.894C284.913 190.554 283.323 190.277 282.027 190.062C280.732 189.847 279.491 189.83 278.304 190.011C277.138 190.175 276.072 190.635 275.106 191.39C273.319 192.785 273.552 193.764 275.803 194.325ZM315.452 193.23L315.297 193.192L298.484 201.767L294.642 200.809L303.194 188.647L300.186 187.638C300.774 187.178 301.625 186.74 302.737 186.324L311.664 188.55L310.677 189.441C309.555 189.465 308.405 189.416 307.228 189.296L301.378 196.706L299.303 199.047L299.691 199.144L303.273 197.146L317.563 190.021C317.894 190.082 318.125 190.129 318.254 190.161L320.869 190.878L314.652 200.015L312.732 202.395L313.081 202.483L316.508 200.446L328.341 194.56L325.775 193.205L326.994 192.373L335.727 194.55C335.494 195.185 335.084 195.732 334.495 196.192C333.33 196.009 332.195 195.802 331.092 195.571L311.875 205.105L308.032 204.147L315.452 193.23ZM347.113 203.269L338.787 209.574C339.837 209.901 340.802 210.293 341.684 210.751L340.503 211.593C339.921 211.622 338.981 211.582 337.684 211.475C336.434 211.359 335.292 211.171 334.257 210.913C334.548 210.206 335.014 209.575 335.656 209.021C331.13 209.516 328.272 209.616 327.082 209.319C325.245 208.861 324.169 208.181 323.855 207.28C323.541 206.379 324.098 205.37 325.527 204.254C328.826 201.676 333.012 200.966 338.085 202.122C341.046 202.795 342.54 203.135 342.566 203.142L343.598 202.295C344.997 201.149 345.7 200.253 345.71 199.605C345.74 198.941 344.953 198.41 343.349 198.01C342.676 197.842 341.826 197.76 340.798 197.763L336.714 199.994C336.564 199.978 336.333 199.931 336.023 199.854L334.526 199.383C335.016 198.574 336.046 197.542 337.617 196.288C338.319 196.246 339.76 196.281 341.939 196.391C344.14 196.485 345.486 196.593 345.978 196.716C348.617 197.374 350.007 198.208 350.148 199.217C350.289 200.227 349.278 201.578 347.113 203.269ZM330.079 207.857C330.829 208.045 333.246 207.943 337.329 207.553L341.075 204.427C339.189 204.087 337.599 203.809 336.303 203.594C335.008 203.38 333.767 203.363 332.58 203.543C331.414 203.707 330.348 204.167 329.382 204.922C327.595 206.318 327.828 207.296 330.079 207.857ZM370.626 202.861C373.11 203.481 374.404 204.323 374.508 205.388C374.633 206.437 373.676 207.758 371.638 209.351C371.049 209.81 368.214 211.919 363.132 215.676L366.14 216.686C365.551 217.146 364.701 217.583 363.589 217.999L354.662 215.773L355.649 214.883C357.175 214.917 358.592 215.01 359.898 215.162C365.249 210.822 368.164 208.398 368.644 207.89C369.171 207.371 369.536 206.899 369.74 206.474C369.943 206.048 369.881 205.697 369.552 205.42C369.224 205.143 368.633 204.898 367.779 204.685C366.071 204.26 364.079 204.109 361.803 204.235C356.856 207.939 353.159 210.721 350.712 212.58L353.72 213.589C353.132 214.049 352.281 214.487 351.169 214.903L342.242 212.677L343.229 211.786C344.756 211.82 346.172 211.913 347.479 212.066C352.661 207.857 356.482 204.738 358.942 202.709C357.582 202.305 356.57 201.923 355.905 201.562L357.699 200.321C359.412 200.423 361.601 200.806 364.266 201.47C364.198 201.843 363.884 202.328 363.325 202.925C364.921 202.825 366.454 202.774 367.924 202.772C369.441 202.761 370.341 202.79 370.626 202.861Z" fill="#474343"/>
<defs>
<linearGradient id="paint0_linear_33_4" x1="201.305" y1="208.336" x2="183.892" y2="281.827" gradientUnits="userSpaceOnUse">
<stop stop-color="#C4C4C4"/>
<stop offset="1" stop-color="#E3E3E3"/>
</linearGradient>
<linearGradient id="paint1_linear_33_4" x1="201.305" y1="208.336" x2="183.892" y2="281.827" gradientUnits="userSpaceOnUse">
<stop stop-color="#C4C4C4"/>
<stop offset="1" stop-color="#E3E3E3"/>
</linearGradient>
<linearGradient id="paint2_linear_33_4" x1="282.893" y1="0" x2="282.893" y2="240.849" gradientUnits="userSpaceOnUse">
<stop stop-color="#FF0505"/>
<stop offset="1" stop-color="white"/>
</linearGradient>
<linearGradient id="paint3_linear_33_4" x1="451.402" y1="231.481" x2="461.202" y2="240.006" gradientUnits="userSpaceOnUse">
<stop stop-color="#808080"/>
<stop offset="0.1671" stop-color="#8D8D8D"/>
<stop offset="0.4777" stop-color="#B0B0B0"/>
<stop offset="0.8949" stop-color="#E8E8E8"/>
<stop offset="1" stop-color="#F7F7F7"/>
</linearGradient>
<linearGradient id="paint4_linear_33_4" x1="356.802" y1="149.26" x2="561.25" y2="149.26" gradientUnits="userSpaceOnUse">
<stop stop-color="#929292"/>
<stop offset="1" stop-color="#6E6E6E"/>
</linearGradient>
<linearGradient id="paint5_linear_33_4" x1="195.814" y1="307.867" x2="198.992" y2="298.617" gradientUnits="userSpaceOnUse">
<stop stop-color="#808080"/>
<stop offset="0.6321" stop-color="#CECECE"/>
<stop offset="1" stop-color="#F7F7F7"/>
</linearGradient>
<linearGradient id="paint6_linear_33_4" x1="8.92312" y1="161.167" x2="36.1656" y2="242.574" gradientUnits="userSpaceOnUse">
<stop stop-color="#878787"/>
<stop offset="1" stop-color="#9C9C9C"/>
</linearGradient>
<linearGradient id="paint7_linear_33_4" x1="183.566" y1="192.78" x2="180.509" y2="203.724" gradientUnits="userSpaceOnUse">
<stop stop-color="#F7F7F7"/>
<stop offset="1" stop-color="#808080"/>
</linearGradient>
<linearGradient id="paint8_linear_33_4" x1="15.0519" y1="198.585" x2="0.0809995" y2="201.637" gradientUnits="userSpaceOnUse">
<stop stop-color="#ADADAD"/>
<stop offset="0.2718" stop-color="#BDBDBD"/>
<stop offset="1" stop-color="#E6E6E6"/>
</linearGradient>
<linearGradient id="paint9_linear_33_4" x1="89.8972" y1="250.212" x2="84.6339" y2="213.257" gradientUnits="userSpaceOnUse">
<stop offset="0.0079" stop-color="#444444"/>
<stop offset="0.3359" stop-color="#313131"/>
<stop offset="0.901667" stop-color="#090909"/>
<stop offset="0.9979"/>
<stop offset="1"/>
</linearGradient>
<linearGradient id="paint10_linear_33_4" x1="87.9106" y1="262.584" x2="91.2728" y2="254.28" gradientUnits="userSpaceOnUse">
<stop stop-color="#666666"/>
<stop offset="0.1635" stop-color="#5F5F5F"/>
<stop offset="0.4005" stop-color="#4C4C4C"/>
<stop offset="0.6822" stop-color="#2C2C2C"/>
<stop offset="0.996" stop-color="#010101"/>
<stop offset="1"/>
</linearGradient>
<linearGradient id="paint11_linear_33_4" x1="86.9278" y1="261.829" x2="85.2643" y2="269.939" gradientUnits="userSpaceOnUse">
<stop stop-color="#666666"/>
<stop offset="0.1635" stop-color="#5F5F5F"/>
<stop offset="0.4005" stop-color="#4C4C4C"/>
<stop offset="0.6822" stop-color="#2C2C2C"/>
<stop offset="0.996" stop-color="#010101"/>
<stop offset="1"/>
</linearGradient>
<linearGradient id="paint12_linear_33_4" x1="189.449" y1="202.243" x2="180.24" y2="241.108" gradientUnits="userSpaceOnUse">
<stop stop-color="#808080"/>
<stop offset="0.6321" stop-color="#CECECE"/>
<stop offset="1" stop-color="#F7F7F7"/>
</linearGradient>
<linearGradient id="paint13_linear_33_4" x1="437.798" y1="165.491" x2="443.504" y2="171.156" gradientUnits="userSpaceOnUse">
<stop stop-color="#808080"/>
<stop offset="0.4658" stop-color="#BFBFBF"/>
<stop offset="0.8185" stop-color="#E7E7E7"/>
<stop offset="1" stop-color="#F7F7F7"/>
</linearGradient>
<linearGradient id="paint14_linear_33_4" x1="59.6313" y1="235.415" x2="69.5194" y2="194.347" gradientUnits="userSpaceOnUse">
<stop offset="0.0079" stop-color="#FF0000"/>
<stop offset="0.1" stop-color="#FF0501"/>
<stop offset="0.2031" stop-color="#FF1206"/>
<stop offset="0.3115" stop-color="#FF280D"/>
<stop offset="0.4236" stop-color="#FF4817"/>
<stop offset="0.5381" stop-color="#FF7024"/>
<stop offset="0.6526" stop-color="#FFA033"/>
<stop offset="0.6857" stop-color="#FF882B"/>
<stop offset="0.761" stop-color="#FF581C"/>
<stop offset="0.8325" stop-color="#FF3210"/>
<stop offset="0.8982" stop-color="#FF1607"/>
<stop offset="0.9561" stop-color="#FF0602"/>
<stop offset="1" stop-color="#FF0000"/>
</linearGradient>
</defs>
</svg>
