<svg width="980" height="903" viewBox="0 0 980 903" fill="none" xmlns="http://www.w3.org/2000/svg">
<g clip-path="url(#clip0_43_13)">
<path d="M666.99 2.96565C666.91 7.56305 666.829 12.1605 666.747 16.8972C676.625 17.0025 686.357 16.6047 696.219 15.9021C723.006 13.9995 723.006 13.9995 728.675 16.8972C727.179 105.77 725.583 194.642 722.719 334.295C722.489 345.421 722.259 356.546 722.03 367.672C720.167 458.102 718.297 548.532 714.937 686.626C714.733 694.823 714.53 703.019 714.327 711.216C713.339 751.11 712.338 791.003 711.317 830.897C712.537 830.957 713.756 831.017 715.012 831.079C716.63 831.163 718.248 831.247 719.867 831.332C720.668 831.371 721.47 831.41 722.295 831.45C727.445 831.724 732.342 832.313 737.362 833.412C739.634 833.888 741.873 834.188 744.187 834.442C749.598 835.062 754.575 836.539 759.762 838.041C761.635 838.578 763.512 839.102 765.393 839.611C775.432 842.356 775.432 842.356 779.3 844.828C780.561 848.078 780.518 850.552 779.143 853.784C774.166 856.967 769.22 858.031 763.33 857.764C762.279 858.421 761.228 859.078 760.146 859.755C754.616 860.828 748.938 860.863 743.335 860.75C743.323 861.407 743.312 862.063 743.3 862.74C742.066 862.719 740.833 862.699 739.562 862.678C735.472 862.678 731.591 863.119 727.538 863.735C724.735 864.081 721.929 864.404 719.124 864.73C719.805 865.387 720.486 866.044 721.188 866.72C720.8 869.323 720.247 871.339 718.967 873.686C717.582 873.686 716.196 873.686 714.769 873.686C714.757 874.343 714.746 875 714.734 875.676C713.349 875.676 711.963 875.676 710.536 875.676C710.524 876.333 710.513 876.99 710.501 877.667C709.387 877.867 709.387 877.867 708.251 878.071C705.173 878.674 702.151 879.401 699.108 880.154C694.913 881.15 690.829 881.999 686.524 882.396C684.771 882.58 683.025 882.83 681.286 883.114C668.837 885.026 656.46 884.899 643.909 884.837C640.129 884.819 636.348 884.817 632.567 884.817C617.056 884.795 601.681 884.51 586.294 882.767C584.717 882.592 583.14 882.419 581.563 882.246C580.278 882.104 580.278 882.104 578.967 881.959C573.119 881.327 567.264 880.746 561.411 880.154C558.873 879.895 556.336 879.636 553.798 879.377C549.619 878.951 545.439 878.534 541.257 878.133C532.442 877.273 523.831 876.067 515.164 874.366C512.168 873.86 509.306 873.492 506.283 873.23C501.01 872.743 495.783 872.083 490.547 871.354C489.606 871.225 488.666 871.095 487.697 870.962C475.464 869.274 463.24 867.525 451.017 865.777C437.016 863.777 423.005 861.872 408.969 860.08C402.86 859.299 396.754 858.499 390.648 857.702C389.418 857.543 388.187 857.383 386.919 857.218C375.603 855.74 364.324 854.083 353.054 852.345C343.327 850.847 333.594 849.396 323.837 848.062C322.917 847.935 321.996 847.808 321.048 847.678C320.2 847.563 319.352 847.449 318.479 847.331C317.371 847.182 317.371 847.182 316.242 847.029C314.09 846.762 314.09 846.762 311.132 846.818C311.144 846.162 311.155 845.505 311.167 844.828C310.475 845.017 309.783 845.205 309.07 845.399C304.974 845.947 301.334 845.319 297.328 844.641C295.535 844.356 293.741 844.071 291.947 843.786C290.987 843.632 290.027 843.477 289.038 843.318C283.697 842.471 278.343 841.691 272.99 840.91C271.846 840.742 270.703 840.575 269.525 840.402C261.047 839.166 252.559 838.005 244.064 836.867C233.746 835.485 223.457 833.984 213.176 832.389C204.991 831.129 196.788 830 188.573 828.906C176.234 827.26 163.953 825.39 151.678 823.39C148.995 822.958 146.31 822.539 143.623 822.127C105.124 816.218 105.124 816.218 99.8378 809.463C99.4798 808.655 99.1218 807.847 98.753 807.014C99.1108 806.357 99.4687 805.7 99.8374 805.024C100.53 805.024 101.223 805.024 101.937 805.024C101.948 804.367 101.96 803.71 101.971 803.033C117.813 794.13 136.875 790.329 154.731 787.112C153.302 787.392 156.16 786.835 154.731 787.112C165.768 784.962 170.055 784.126 173.676 784.126C173.953 788.067 172.736 798.973 173.022 803.033C174.758 715.853 177.582 621.71 179.273 484.132C179.293 482.514 179.312 480.896 179.332 479.277C179.81 439.652 180.281 400.026 180.748 360.4C181.05 334.745 181.355 309.089 181.662 283.434C181.672 282.579 181.682 281.723 181.693 280.842C181.795 272.248 181.898 263.653 182.001 255.058C182.21 237.578 182.419 220.097 182.628 202.617C182.637 201.815 182.647 201.013 182.657 200.186C183.287 147.382 183.911 94.5786 184.534 41.7749C189.938 40.2541 195.006 39.3631 200.598 39.0073C201.414 38.9492 202.23 38.8912 203.071 38.8313C205.703 38.6452 208.335 38.4687 210.967 38.292C214.603 38.0373 218.239 37.7777 221.875 37.5185C222.758 37.4562 223.642 37.3938 224.553 37.3296C239.239 36.287 253.88 34.782 268.577 33.8762C280.474 33.1401 292.32 32.1099 304.185 30.9361C314.486 29.9322 324.785 29.1956 335.11 28.5392C341.856 28.1033 348.571 27.5736 355.293 26.8483C363.496 25.9641 371.697 25.4221 379.928 24.9202C391.627 24.2027 403.264 23.1794 414.927 21.9801C425.084 20.9533 435.238 20.2289 445.422 19.5832C452.208 19.1465 458.963 18.6188 465.726 17.8923C473.732 17.0322 481.737 16.4736 489.77 15.9643C499.999 15.3121 510.185 14.4597 520.385 13.4143C531.829 12.2412 543.262 11.355 554.739 10.6272C561.525 10.1905 568.28 9.6627 575.043 8.9363C583.006 8.08258 590.967 7.51812 598.956 7.00828C609.837 6.31279 620.684 5.42224 631.54 4.39612C662.376 1.49943 662.376 1.49943 666.99 2.96565Z" fill="#FCF113"/>
<path d="M682 882.5C685 909 145 832.5 90 809.5C60.8202 797.298 87.8619 795.489 123 795.412L135.5 791.5L175.5 781.5V795.412L648 882.5C648 880.333 682 882.5 682 882.5Z" fill="#575757"/>
<path d="M684.5 863.5L683 883.5L708.5 882.5L726 870L723 865L742.5 863.5C760.833 860.833 794 853.4 780 845C766 836.6 748.5 832.833 741.5 832V862H736L700.5 858.5L695 860L687.5 861L690 862L684.5 863.5Z" fill="#626262"/>
<path d="M693 26.0001C696.838 25.9327 700.421 25.9165 704.223 26.4649C709.613 27.2286 715.001 27.3657 720.438 27.5626C721.551 27.6058 722.664 27.6489 723.811 27.6934C726.54 27.7989 729.27 27.901 732 28.0001C732.111 107.793 732.082 187.583 731.562 267.375C731.551 269.099 731.54 270.822 731.529 272.546C731.523 273.405 731.518 274.264 731.512 275.149C731.506 276.012 731.501 276.875 731.495 277.765C731.489 278.632 731.484 279.499 731.478 280.393C731.413 290.396 731.349 300.399 731.285 310.402C731.279 311.333 731.273 312.264 731.267 313.223C731.043 348.629 730.884 384.035 730.746 419.441C730.741 420.751 730.736 422.061 730.731 423.411C730.671 438.846 730.612 454.281 730.554 469.716C730.272 544.262 729.989 618.808 729.545 693.353C729.511 699.084 729.478 704.815 729.446 710.545C729.173 758.7 728.634 806.849 728 855C727.331 855.075 726.661 855.15 725.971 855.228C722.876 855.581 719.782 855.947 716.688 856.313C715.635 856.43 714.582 856.548 713.498 856.67C707.303 857.413 701.503 858.53 695.546 860.403C693 861 693 861 687 861C687 822.06 687 783.12 687 743C686.01 743.33 685.02 743.66 684 744C684.008 743.145 684.008 743.145 684.016 742.272C684.037 739.702 684.05 737.132 684.062 734.563C684.071 733.665 684.079 732.767 684.088 731.842C684.091 730.988 684.094 730.134 684.098 729.254C684.103 728.463 684.108 727.672 684.114 726.858C684.205 724.984 684.205 724.984 683 724C682.901 722.451 682.869 720.897 682.867 719.344C682.866 718.404 682.865 717.464 682.863 716.496C682.869 715.013 682.869 715.013 682.875 713.5C682.871 712.511 682.867 711.523 682.863 710.504C682.865 709.564 682.866 708.625 682.867 707.656C682.868 706.788 682.869 705.92 682.871 705.025C683 703 683 703 684 702C684.126 699.396 684.186 696.818 684.205 694.212C684.215 693.385 684.225 692.557 684.235 691.705C684.267 688.903 684.292 686.102 684.316 683.301C684.337 681.295 684.358 679.288 684.379 677.282C684.436 671.782 684.485 666.282 684.532 660.782C684.563 657.311 684.595 653.841 684.628 650.37C684.972 613.676 685.046 576.984 685.004 540.288C684.929 471.188 684.929 471.188 685.289 442.844C685.312 440.835 685.329 438.827 685.346 436.818C685.379 433.26 685.43 429.702 685.488 426.145C685.495 425.135 685.501 424.126 685.508 423.086C685.527 422.181 685.547 421.276 685.568 420.343C685.579 419.569 685.59 418.794 685.601 417.996C686 416 686 416 687.503 414.727C689.941 411.914 689.413 408.577 689.385 405.028C689.39 404.216 689.396 403.404 689.401 402.568C689.411 400.805 689.414 399.042 689.411 397.279C689.406 394.488 689.42 391.698 689.439 388.907C689.476 382.98 689.49 377.052 689.5 371.125C689.512 364.264 689.534 357.402 689.58 350.541C689.594 347.793 689.589 345.045 689.585 342.297C689.594 340.608 689.604 338.92 689.615 337.231C689.609 336.468 689.603 335.705 689.597 334.92C689.636 331.506 689.808 329.319 691.587 326.361C693.509 323.15 692.642 321.668 692 318C691.849 315.033 691.865 312.069 691.873 309.098C691.871 308.212 691.87 307.326 691.868 306.413C691.864 303.446 691.867 300.479 691.871 297.513C691.869 295.381 691.867 293.249 691.865 291.117C691.861 285.309 691.863 279.502 691.866 273.694C691.868 267.552 691.866 261.41 691.864 255.268C691.862 244.89 691.865 234.511 691.87 224.133C691.874 213.608 691.875 203.084 691.87 192.559C691.818 79.4477 691.818 79.4477 693 26.0001Z" fill="#DDDDDD"/>
<path d="M745 22C745.053 111.31 745.01 200.618 744.605 340.958C744.57 352.138 744.537 363.319 744.503 374.5C743.96 556.549 743.96 556.549 743.109 686.083C743.013 699.788 742.927 713.492 742.844 727.197C742.763 740.485 742.679 753.773 742.591 767.06C742.581 768.647 742.571 770.234 742.56 771.82C742.555 772.597 742.55 773.374 742.545 774.175C742.51 779.477 742.478 784.78 742.446 790.082C742.404 797.011 742.357 803.94 742.308 810.87C742.29 813.366 742.275 815.862 742.26 818.359C742.177 832.932 741.828 847.449 741 862C739.406 862.011 737.812 862.019 736.217 862.025C735.329 862.03 734.442 862.034 733.527 862.039C730.411 861.991 727.445 861.584 724.375 861.062C716.6 859.855 708.85 859.387 701 859C704.54 856.64 706.922 856.41 711.125 855.875C713.016 855.624 713.016 855.624 714.945 855.367C717.895 855.047 720.787 854.961 723.753 854.977C724.952 854.982 724.952 854.982 726.174 854.987C727.078 854.993 727.078 854.993 728 855C727.999 854.133 727.998 853.265 727.997 852.372C727.956 814.132 727.929 775.892 728.184 737.652C728.191 736.575 728.191 736.575 728.198 735.476C728.248 727.96 728.3 720.445 728.353 712.929C728.485 694.319 728.604 675.708 728.719 657.098C728.728 655.652 728.728 655.652 728.737 654.178C728.944 620.638 729.095 587.099 729.219 553.559C729.228 551.158 729.237 548.758 729.245 546.357C729.287 535.227 729.327 524.098 729.368 512.968C729.691 424.113 730.112 335.26 731.062 177.937C731.074 176.04 731.086 174.143 731.098 172.245C731.394 124.163 731.694 76.0817 732 28C731.322 28.0072 730.645 28.0144 729.947 28.0218C726.828 28.0507 723.709 28.0684 720.59 28.0859C718.991 28.1032 718.991 28.1032 717.361 28.1208C708.725 28.1572 700.298 27.5658 692 25C691.67 24.34 691.34 23.68 691 23C698.557 21.9355 706.138 21.4432 713.75 20.9375C715.044 20.8466 716.338 20.7557 717.672 20.6621C739.728 19.1835 739.728 19.1835 745 22Z" fill="#373737"/>
<path d="M686 7.99993C686 12.6199 686 17.2399 686 21.9999C688.97 22.9899 691.94 23.9799 695 24.9999C694.34 25.3299 693.68 25.6599 693 25.9999C692.977 63.0969 692.959 100.194 692.949 137.291C692.948 141.669 692.946 146.048 692.945 150.426C692.945 151.734 692.945 151.734 692.944 153.068C692.94 167.186 692.932 181.305 692.923 195.424C692.913 209.909 692.908 224.393 692.906 238.878C692.904 247.817 692.9 256.757 692.892 265.696C692.887 271.824 692.885 277.952 692.886 284.081C692.887 287.617 692.886 291.154 692.881 294.691C692.875 298.525 692.877 302.359 692.88 306.193C692.875 307.871 692.875 307.871 692.871 309.583C692.88 314.52 693.044 319.138 694 324C693.687 326.312 693.687 326.312 693 328C692.34 328.33 691.68 328.66 691 329C690.994 330.046 690.988 331.091 690.982 332.169C690.925 342.013 690.852 351.857 690.764 361.701C690.719 366.762 690.68 371.824 690.653 376.885C690.628 381.767 690.587 386.65 690.537 391.532C690.52 393.397 690.509 395.262 690.502 397.126C690.493 399.734 690.465 402.341 690.432 404.948C690.434 405.723 690.435 406.498 690.437 407.296C690.399 409.45 690.399 409.45 690 413C689.506 413.46 689.011 413.919 688.502 414.393C686.388 416.654 686.603 418.196 686.568 421.257C686.548 422.347 686.528 423.437 686.508 424.561C686.501 425.757 686.495 426.953 686.488 428.185C686.47 429.442 686.452 430.699 686.434 431.995C686.385 435.454 686.356 438.913 686.33 442.372C686.306 445.301 686.272 448.229 686.237 451.158C685.896 480.339 685.915 509.523 685.982 538.705C686.015 553.31 686.023 567.915 686.027 582.519C686.028 583.602 686.028 583.602 686.028 584.706C686.035 611.34 685.908 637.972 685.595 664.605C685.563 667.366 685.532 670.127 685.503 672.888C685.456 677.106 685.405 681.323 685.347 685.541C685.327 687.052 685.308 688.564 685.291 690.076C685.267 692.095 685.236 694.115 685.205 696.134C685.19 697.253 685.174 698.371 685.158 699.523C685 702 685 702 684 703C683.901 704.514 683.869 706.033 683.867 707.551C683.866 708.477 683.865 709.403 683.863 710.357C683.867 711.333 683.871 712.308 683.875 713.312C683.871 714.276 683.867 715.24 683.863 716.232C683.865 717.627 683.865 717.627 683.867 719.051C683.868 719.903 683.869 720.756 683.871 721.634C683.994 723.899 684.425 725.815 685 728C685.093 730.373 685.13 732.75 685.125 735.125C685.127 736.365 685.13 737.605 685.133 738.883C685 742 685 742 684 744C685.32 743.34 686.64 742.68 688 742C688.023 754.71 688.041 767.42 688.052 780.131C688.057 786.034 688.064 791.938 688.075 797.842C688.086 803.554 688.092 809.267 688.095 814.979C688.097 817.143 688.1 819.307 688.106 821.471C688.138 834.684 687.855 847.813 687 861C687.99 861.33 688.98 861.66 690 862C688.02 862.66 686.04 863.32 684 864C683.67 870.93 683.34 877.86 683 885C681.35 885 679.7 885 678 885C678 884.34 678 883.68 678 883C677.01 883 676.02 883 675 883C674.977 848.617 674.959 814.233 674.949 779.85C674.948 775.704 674.946 771.558 674.945 767.412C674.945 766.587 674.944 765.762 674.944 764.912C674.94 753.494 674.934 742.076 674.926 730.658C674.87 651.6 675.073 572.553 675.782 493.497C676.01 468.036 676.161 442.575 676.281 417.113C676.291 415.137 676.3 413.161 676.31 411.185C676.356 401.491 676.401 391.797 676.445 382.103C676.54 361.433 676.644 340.763 676.75 320.094C676.758 318.579 676.758 318.579 676.766 317.034C676.946 282.12 677.204 247.208 677.561 212.295C677.624 206.189 677.685 200.083 677.746 193.976C677.756 192.949 677.766 191.921 677.777 190.862C678.138 153.971 678.335 117.079 678.562 80.1874C678.574 78.3602 678.585 76.5331 678.596 74.7059C678.733 52.4706 678.868 30.2353 679 7.99993C682.01 7.06569 682.866 6.95543 686 7.99993Z" fill="#BABBB8"/>
<path d="M739 22C740.98 22 742.96 22 745 22C745.053 111.31 745.01 200.618 744.605 340.958C744.57 352.138 744.537 363.319 744.503 374.5C743.96 556.549 743.96 556.549 743.109 686.083C743.013 699.788 742.927 713.492 742.844 727.197C742.763 740.485 742.679 753.773 742.592 767.06C742.581 768.647 742.571 770.234 742.56 771.82C742.555 772.597 742.55 773.374 742.545 774.175C742.51 779.477 742.478 784.78 742.446 790.082C742.404 797.011 742.357 803.94 742.308 810.87C742.29 813.366 742.275 815.862 742.261 818.359C742.177 832.932 741.828 847.449 741 862C739.35 862 737.7 862 736 862C735.912 774.152 735.854 686.303 736.438 479.062C736.44 478.268 736.443 477.474 736.446 476.656C736.744 391.256 737.077 305.856 738 158C738.006 157.18 738.011 156.36 738.017 155.515C738.324 111.01 738.651 66.505 739 22Z" fill="#5F5F5F"/>
<path d="M679 8C679.66 8 680.32 8 681 8C681.33 290.48 681.66 572.96 682 864C682.33 864 682.66 864 683 864C683 870.93 683 877.86 683 885C681.35 885 679.7 885 678 885C678 884.34 678 883.68 678 883C677.01 883 676.02 883 675 883C674.977 848.617 674.959 814.233 674.949 779.85C674.948 775.704 674.946 771.558 674.945 767.412C674.945 766.587 674.944 765.762 674.944 764.912C674.94 753.494 674.934 742.076 674.926 730.659C674.87 651.6 675.073 572.553 675.782 493.497C676.01 468.036 676.161 442.575 676.281 417.113C676.291 415.137 676.3 413.161 676.31 411.186C676.356 401.491 676.401 391.797 676.445 382.103C676.54 361.433 676.644 340.763 676.75 320.094C676.758 318.579 676.758 318.579 676.766 317.034C676.946 282.12 677.204 247.208 677.561 212.295C677.624 206.189 677.685 200.083 677.746 193.977C677.756 192.949 677.766 191.921 677.777 190.862C678.138 153.972 678.335 117.079 678.562 80.1875C678.574 78.3603 678.585 76.5331 678.596 74.706C678.733 52.4707 678.868 30.2353 679 8Z" fill="#918B25"/>
<path d="M717 28C721.95 28 726.9 28 732 28C732.11 107.793 732.082 187.583 731.562 267.375C731.551 269.099 731.54 270.822 731.529 272.546C731.523 273.405 731.518 274.264 731.512 275.149C731.506 276.012 731.501 276.875 731.495 277.765C731.489 278.632 731.484 279.499 731.478 280.393C731.413 290.396 731.349 300.399 731.285 310.402C731.279 311.333 731.273 312.264 731.267 313.223C731.043 348.629 730.884 384.035 730.746 419.441C730.741 420.751 730.736 422.061 730.731 423.411C730.671 438.846 730.612 454.281 730.554 469.716C730.272 544.262 729.989 618.808 729.545 693.353C729.511 699.083 729.478 704.814 729.446 710.545C729.173 758.7 728.634 806.849 728 855C726.02 855 724.04 855 722 855C721.826 827.484 722.304 799.997 722.927 772.49C723.051 766.997 723.17 761.504 723.289 756.012C723.522 745.341 723.759 734.67 724 724C724.33 724 724.66 724 725 724C725.144 722.701 725.289 721.401 725.438 720.062C725.875 716.125 725.875 716.125 727 715C727.076 712.241 727.086 709.507 727.053 706.748C727.047 705.883 727.041 705.018 727.034 704.127C727.011 701.253 726.981 698.378 726.949 695.504C726.93 693.515 726.911 691.526 726.892 689.536C726.851 685.361 726.806 681.185 726.758 677.01C726.697 671.648 726.651 666.287 726.607 660.925C726.572 656.815 726.528 652.705 726.481 648.595C726.46 646.618 726.442 644.641 726.427 642.663C726.406 639.902 726.372 637.142 726.335 634.381C726.331 633.558 726.327 632.734 726.323 631.886C726.423 627.473 726.423 627.473 724 624C723.805 621.022 723.805 621.022 723.875 617.234C723.883 616.563 723.89 615.892 723.898 615.201C723.931 612.329 723.987 609.459 724.041 606.587C724.077 604.491 724.101 602.394 724.125 600.297C724.148 599.042 724.171 597.788 724.195 596.495C724.167 593.052 724.167 593.052 723.003 590.178C721.941 586.812 721.754 584.18 721.759 580.66C721.757 579.406 721.754 578.153 721.751 576.861C721.758 575.485 721.766 574.109 721.773 572.733C721.774 571.274 721.773 569.815 721.772 568.356C721.771 564.406 721.783 560.456 721.797 556.506C721.81 552.374 721.811 548.242 721.813 544.11C721.819 536.29 721.836 528.471 721.856 520.651C721.878 511.747 721.889 502.842 721.899 493.938C721.92 475.625 721.955 457.313 722 439C722.33 439 722.66 439 723 439C723 478.27 723 517.54 723 558C723.66 558 724.32 558 725 558C724.999 557.223 724.998 556.445 724.997 555.645C724.975 536.759 724.959 517.874 724.948 498.988C724.943 489.855 724.936 480.722 724.925 471.59C724.915 463.632 724.908 455.675 724.906 447.718C724.905 443.502 724.902 439.286 724.894 435.07C724.888 431.107 724.885 427.143 724.887 423.18C724.887 421.721 724.885 420.262 724.881 418.803C724.876 416.82 724.878 414.836 724.88 412.853C724.879 411.74 724.878 410.628 724.877 409.481C725 407 725 407 726 406C725.505 404.515 725.505 404.515 725 403C724.919 401.519 724.892 400.034 724.902 398.551C724.906 397.703 724.909 396.856 724.912 395.982C724.925 394.661 724.925 394.661 724.938 393.312C724.942 392.42 724.947 391.527 724.951 390.607C724.963 388.405 724.979 386.202 725 384C725.33 384 725.66 384 726 384C726.15 349.816 726.295 315.632 726.433 281.448C726.45 277.414 726.466 273.38 726.482 269.345C726.485 268.542 726.489 267.739 726.492 266.912C726.545 253.901 726.601 240.891 726.659 227.88C726.718 214.534 726.773 201.187 726.825 187.84C726.857 179.602 726.892 171.365 726.931 163.127C726.957 157.481 726.98 151.834 727 146.188C727.011 142.929 727.025 139.669 727.042 136.41C727.06 132.878 727.072 129.346 727.082 125.814C727.089 124.781 727.096 123.749 727.103 122.686C727.105 121.265 727.105 121.265 727.107 119.816C727.111 119.001 727.114 118.186 727.118 117.346C726.991 114.815 726.509 112.479 726 110C725.902 107.135 725.859 104.302 725.875 101.438C725.877 100.57 725.879 99.7018 725.881 98.8076C725.934 90.2821 726.296 81.7723 726.642 73.2546C727.185 58.839 727.092 44.4232 727 30C723.7 29.67 720.4 29.34 717 29C717 28.67 717 28.34 717 28Z" fill="#C8C8C8"/>
<path d="M715 29C718.96 29 722.92 29 727 29C728.625 32.2497 728.142 35.8206 728.133 39.3906C728.134 40.2386 728.135 41.0866 728.137 41.9603C728.139 44.7236 728.132 47.4868 728.125 50.25C728.124 51.1869 728.123 52.1239 728.122 53.0892C728.11 64.3466 727.988 75.5708 727.36 86.8132C727.024 92.899 726.888 98.9674 726.875 105.062C726.871 105.891 726.866 106.72 726.861 107.573C726.864 108.73 726.864 108.73 726.867 109.91C726.868 110.582 726.869 111.254 726.871 111.946C726.948 114.044 726.948 114.044 727.503 116.223C728.066 119.371 728.106 122.287 728.082 125.486C728.075 126.797 728.068 128.108 728.061 129.459C728.048 130.904 728.035 132.35 728.022 133.796C728.012 135.324 728.002 136.852 727.993 138.38C727.966 142.522 727.933 146.664 727.899 150.806C727.865 155.137 727.837 159.468 727.807 163.799C727.751 171.997 727.69 180.196 727.627 188.394C727.555 197.729 727.489 207.064 727.424 216.399C727.289 235.599 727.147 254.8 727 274C726.34 274 725.68 274 725 274C724.67 277.96 724.34 281.92 724 286C723.67 286 723.34 286 723 286C723 250.36 723 214.72 723 178C723.66 178 724.32 178 725 178C725 174.04 725 170.08 725 166C724.34 166.99 723.68 167.98 723 169C722.98 168.304 722.96 167.609 722.94 166.892C722.844 163.719 722.735 160.547 722.625 157.375C722.594 156.281 722.563 155.186 722.531 154.059C722.337 148.711 722.153 143.989 720 139C719.01 139.495 719.01 139.495 718 140C718 163.76 718 187.52 718 212C718.33 212 718.66 212 719 212C719 233 719 233 718 236C717.85 237.79 717.728 239.582 717.625 241.375C717.276 245.625 716.802 248.615 714 252C713.67 252 713.34 252 713 252C712.951 247.213 712.914 242.426 712.89 237.638C712.88 236.01 712.866 234.381 712.849 232.753C712.825 230.412 712.814 228.071 712.805 225.73C712.794 225.002 712.784 224.274 712.773 223.524C712.773 219.787 712.871 218.193 715 215C715.189 212.488 715.261 210.089 715.241 207.578C715.243 206.435 715.243 206.435 715.246 205.269C715.249 202.707 715.238 200.146 715.227 197.585C715.227 195.752 715.227 193.919 715.228 192.086C715.229 187.103 715.217 182.12 715.203 177.137C715.19 171.932 715.189 166.727 715.187 161.522C715.181 151.662 715.164 141.802 715.144 131.943C715.122 120.719 715.111 109.496 715.101 98.2721C715.08 75.1814 715.045 52.0907 715 29Z" fill="#DFDFDF"/>
<path d="M683 7C683.99 7.33 684.98 7.66 686 8C685.67 8.66 685.34 9.32 685 10C684.902 11.7921 684.868 13.588 684.864 15.3828C684.859 16.5345 684.854 17.6862 684.849 18.8728C684.849 20.7901 684.849 20.7901 684.849 22.7461C684.845 24.1118 684.84 25.4775 684.836 26.8433C684.824 30.6221 684.819 34.401 684.814 38.1799C684.808 42.2733 684.796 46.3666 684.785 50.46C684.767 57.6238 684.752 64.7876 684.74 71.9514C684.721 82.5323 684.697 93.1133 684.671 103.694C684.629 121.354 684.59 139.014 684.554 156.674C684.503 181.843 684.445 207.011 684.385 232.18C684.372 237.709 684.358 243.238 684.345 248.767C684.329 255.428 684.314 262.089 684.298 268.751C684.263 283.31 684.229 297.869 684.195 312.428C684.009 392.833 683.785 473.238 683.523 553.643C683.505 559.22 683.487 564.798 683.469 570.376C683.184 658.807 682.826 747.237 682 881C681.67 881 681.34 881 681 881C681 592.91 681 304.82 681 8C681.66 7.67 682.32 7.34 683 7Z" fill="#BDBE78"/>
<path d="M685 207C685.33 207 685.66 207 686 207C686.87 237.167 687.09 267.293 686.899 297.471C686.864 303.329 686.836 309.188 686.807 315.046C686.758 325.002 686.704 334.957 686.648 344.913C686.509 369.555 686.39 394.196 686.272 418.838C686.254 422.707 686.235 426.575 686.216 430.443C686.018 471.452 685.938 512.459 685.995 553.468C686.045 590.492 686.017 627.51 685.595 664.531C685.563 667.332 685.533 670.133 685.503 672.933C685.457 677.139 685.405 681.345 685.347 685.551C685.327 687.058 685.308 688.566 685.291 690.073C685.267 692.093 685.236 694.114 685.205 696.134C685.19 697.253 685.174 698.371 685.158 699.523C685 702 685 702 684 703C683.901 704.514 683.869 706.033 683.867 707.551C683.866 708.477 683.865 709.403 683.863 710.357C683.867 711.333 683.871 712.308 683.875 713.312C683.871 714.276 683.867 715.24 683.863 716.232C683.865 717.628 683.865 717.628 683.867 719.051C683.868 719.903 683.869 720.756 683.871 721.634C683.994 723.899 684.426 725.815 685 728C685.093 730.374 685.13 732.75 685.125 735.125C685.128 736.365 685.13 737.605 685.133 738.883C685 742 685 742 684 744C685.32 743.34 686.64 742.68 688 742C688.023 754.71 688.041 767.42 688.052 780.131C688.057 786.035 688.064 791.938 688.075 797.842C688.086 803.554 688.092 809.267 688.095 814.979C688.097 817.143 688.1 819.307 688.106 821.472C688.138 834.684 687.855 847.813 687 861C687.99 861.33 688.98 861.66 690 862C687.36 862.66 684.72 863.32 682 864C681.855 776.428 682.002 688.857 683.456 301.337C683.49 295.411 683.522 289.486 683.554 283.56C683.595 275.89 683.642 268.22 683.692 260.549C683.71 257.87 683.725 255.191 683.739 252.512C683.822 237.316 684.176 222.174 685 207Z" fill="#9C9EA0"/>
<path d="M679 8C679.66 8 680.32 8 681 8C681.33 296.42 681.66 584.84 682 882C681.01 882 680.02 882 679 882C678.904 822.057 678.809 762.114 678.714 702.171C678.713 701.279 678.711 700.388 678.71 699.469C678.679 680.074 678.648 660.679 678.618 641.284C678.603 631.769 678.588 622.253 678.573 612.737C678.57 611.317 678.57 611.317 678.568 609.868C678.52 579.358 678.471 548.848 678.423 518.339C678.372 486.901 678.323 455.464 678.273 424.026C678.266 419.553 678.259 415.08 678.252 410.607C678.251 409.727 678.249 408.847 678.248 407.94C678.229 395.675 678.209 383.41 678.189 371.145C677.869 172.446 677.869 172.446 678.202 126.389C678.232 122.164 678.259 117.939 678.286 113.714C678.337 105.862 678.391 98.0088 678.445 90.1561C678.508 81.1533 678.567 72.1505 678.627 63.1477C678.748 44.7651 678.873 26.3825 679 8Z" fill="#A8A34D"/>
<path d="M739 22C740.98 22 742.96 22 745 22C744.971 22.6724 744.942 23.3449 744.913 24.0377C743.868 49.4351 743.8 74.8271 743.73 100.243C743.711 106.577 743.687 112.911 743.664 119.245C743.625 130.234 743.588 141.222 743.555 152.211C743.518 163.855 743.48 175.499 743.44 187.143C743.437 187.877 743.435 188.61 743.432 189.366C743.419 193.099 743.406 196.832 743.393 200.565C743.3 227.03 743.211 253.495 743.125 279.96C743.104 286.347 743.083 292.734 743.063 299.121C743.06 299.911 743.057 300.701 743.055 301.515C742.956 331.779 742.853 362.043 742.75 392.307C742.747 393.065 742.745 393.824 742.742 394.605C742.665 417.452 742.586 440.299 742.508 463.147C742.5 465.419 742.492 467.691 742.484 469.963C742.201 552.319 741.911 634.675 741.545 717.03C741.51 724.899 741.477 732.768 741.446 740.637C741.408 750.045 741.367 759.453 741.322 768.861C741.299 773.557 741.278 778.253 741.261 782.949C741.162 808.976 740.688 834.982 740 861C739.67 861 739.34 861 739 861C738.969 828.375 738.949 795.75 738.938 763.125C738.937 761.879 738.937 760.634 738.936 759.351C738.917 702.987 738.91 646.624 739.223 590.262C739.228 589.281 739.234 588.3 739.239 587.29C739.327 571.468 739.422 555.647 739.518 539.825C739.861 483.103 740.042 426.383 740.032 369.66C740.031 367.334 740.031 365.008 740.031 362.683C740.026 332.002 740.011 301.321 739.977 270.641C739.96 255.654 739.947 240.667 739.939 225.68C739.938 224.279 739.937 222.877 739.936 221.476C739.897 155.315 740.391 89.1585 741 23C740.34 22.67 739.68 22.34 739 22Z" fill="#686868"/>
<path d="M722 587C722.33 587 722.66 587 723 587C724.755 591.529 725.218 595.199 725.125 600.043C725.117 600.693 725.11 601.344 725.102 602.014C725.078 604.072 725.041 606.129 725 608.188C724.947 610.91 724.907 613.632 724.875 616.355C724.84 618.16 724.84 618.16 724.805 620.001C724.761 623.183 724.761 623.183 727 626C727.219 628.862 727.322 631.63 727.335 634.495C727.346 635.362 727.358 636.228 727.37 637.122C727.406 639.99 727.428 642.858 727.449 645.727C727.47 647.715 727.492 649.704 727.515 651.693C727.561 655.861 727.599 660.028 727.633 664.196C727.677 669.551 727.733 674.906 727.795 680.261C727.841 684.366 727.882 688.472 727.921 692.578C727.94 694.553 727.96 696.528 727.982 698.504C728.011 701.257 728.033 704.011 728.053 706.764C728.063 707.588 728.073 708.412 728.083 709.261C728.094 711.174 728.053 713.087 728 715C727.67 715.33 727.34 715.66 727 716C726.763 718.859 726.578 721.699 726.438 724.562C726.373 725.772 726.373 725.772 726.307 727.006C726.2 729.004 726.1 731.002 726 733C725.67 733 725.34 733 725 733C724.01 773.26 723.02 813.52 722 855C721.01 855 720.02 855 719 855C719.99 766.56 720.98 678.12 722 587Z" fill="#CFCFCF"/>
<path d="M715 29C717.31 29 719.62 29 722 29C722 66.95 722 104.9 722 144C721.67 144 721.34 144 721 144C720.505 141.525 720.505 141.525 720 139C719.01 139.495 719.01 139.495 718 140C718 163.76 718 187.52 718 212C718.33 212 718.66 212 719 212C719 233 719 233 718 236C717.85 237.79 717.728 239.582 717.625 241.375C717.276 245.625 716.802 248.615 714 252C713.67 252 713.34 252 713 252C712.951 247.213 712.914 242.426 712.89 237.638C712.88 236.01 712.866 234.381 712.849 232.753C712.825 230.412 712.814 228.071 712.805 225.73C712.794 225.002 712.784 224.274 712.773 223.524C712.773 219.787 712.871 218.193 715 215C715.189 212.488 715.261 210.089 715.241 207.578C715.243 206.435 715.243 206.435 715.246 205.269C715.249 202.707 715.238 200.146 715.227 197.585C715.227 195.752 715.227 193.919 715.228 192.086C715.229 187.103 715.217 182.12 715.203 177.137C715.19 171.932 715.189 166.727 715.187 161.522C715.181 151.662 715.164 141.802 715.144 131.943C715.122 120.719 715.111 109.496 715.101 98.2721C715.08 75.1814 715.045 52.0907 715 29Z" fill="#E7E7E7"/>
<path d="M683 7C683.99 7.33 684.98 7.66 686 8C685.67 8.66 685.34 9.32 685 10C684.901 11.9953 684.868 13.994 684.864 15.9918C684.859 17.2779 684.854 18.564 684.849 19.8891C684.849 21.3304 684.849 22.7717 684.849 24.213C684.845 25.7345 684.84 27.256 684.836 28.7775C684.824 32.9775 684.819 37.1774 684.814 41.3773C684.808 45.9053 684.796 50.4333 684.785 54.9612C684.767 62.8328 684.752 70.7043 684.74 78.5758C684.721 90.0548 684.697 101.534 684.67 113.013C684.627 131.765 684.588 150.517 684.552 169.27C684.549 170.955 684.549 170.955 684.546 172.675C684.537 177.219 684.528 181.763 684.52 186.307C684.496 198.624 684.472 210.941 684.448 223.258C684.446 224.353 684.443 225.449 684.441 226.578C684.404 245.153 684.364 263.729 684.322 282.305C684.299 292.68 684.277 303.055 684.26 313.43C684.166 370.292 683.734 427.143 683 484C682.67 484 682.34 484 682 484C681.67 326.92 681.34 169.84 681 8C681.66 7.67 682.32 7.34 683 7Z" fill="#D4D283"/>
<path d="M739 22C740.98 22 742.96 22 745 22C744.971 22.7865 744.942 23.5731 744.911 24.3834C744.21 43.6368 743.838 62.8629 743.795 82.1306C743.786 84.8839 743.775 87.6372 743.765 90.3905C743.743 96.2428 743.725 102.095 743.709 107.947C743.686 116.408 743.658 124.869 743.629 133.329C743.581 147.066 743.538 160.803 743.497 174.54C743.458 187.861 743.416 201.181 743.372 214.501C743.37 215.326 743.367 216.152 743.364 217.002C743.35 221.143 743.337 225.284 743.323 229.425C743.21 263.617 743.103 297.808 743 332C742.67 332 742.34 332 742 332C741.99 331.209 741.979 330.418 741.969 329.603C741.869 321.975 741.766 314.348 741.661 306.72C741.607 302.803 741.553 298.886 741.503 294.969C741.3 279.374 741.06 263.785 740.541 248.196C740.022 232.59 739.842 216.998 739.871 201.383C739.875 199.202 739.877 197.021 739.878 194.84C739.911 137.56 740.522 80.2778 741 23C740.34 22.67 739.68 22.34 739 22Z" fill="#616161"/>
<path d="M685 207C685.33 207 685.66 207 686 207C686.913 238.53 687.12 270.03 686.998 301.571C686.984 305.304 686.972 309.036 686.96 312.769C686.917 325.825 686.868 338.882 686.813 351.939C686.765 363.395 686.73 374.851 686.704 386.307C686.678 397.473 686.64 408.639 686.592 419.805C686.565 426.04 686.543 432.276 686.533 438.512C686.523 444.337 686.499 450.162 686.464 455.987C686.454 458.123 686.448 460.26 686.448 462.396C686.448 465.305 686.429 468.213 686.405 471.121C686.41 471.971 686.414 472.82 686.418 473.695C686.362 478.04 686.19 480.874 683 484C682.836 427.889 683.065 371.781 683.39 315.672C683.427 309.134 683.463 302.597 683.497 296.059C683.54 287.954 683.586 279.849 683.637 271.744C683.663 267.544 683.688 263.343 683.709 259.142C683.798 241.742 683.992 224.377 685 207Z" fill="#ABAAA4"/>
<path d="M717 28C721.95 28 726.9 28 732 28C732.032 50.9167 732.051 73.8333 732.062 96.75C732.063 97.6211 732.063 98.4922 732.064 99.3897C732.093 160.574 731.881 221.755 731.5 282.938C731.494 283.898 731.488 284.858 731.482 285.847C731.33 310.231 731.17 334.616 731 359C730.67 359 730.34 359 730 359C730 250.43 730 141.86 730 30C725.71 29.67 721.42 29.34 717 29C717 28.67 717 28.34 717 28Z" fill="#9B9B9B"/>
<path d="M715 29C715.66 29 716.32 29 717 29C717.33 89.39 717.66 149.78 718 212C718.33 212 718.66 212 719 212C719 233 719 233 718 236C717.85 237.79 717.728 239.582 717.625 241.375C717.276 245.625 716.802 248.615 714 252C713.67 252 713.34 252 713 252C712.951 247.213 712.914 242.426 712.89 237.638C712.88 236.01 712.866 234.381 712.849 232.753C712.825 230.412 712.814 228.071 712.805 225.73C712.794 225.002 712.784 224.274 712.773 223.524C712.773 219.787 712.871 218.193 715 215C715.189 212.488 715.261 210.089 715.241 207.578C715.243 206.435 715.243 206.435 715.246 205.269C715.249 202.707 715.238 200.146 715.227 197.585C715.227 195.752 715.227 193.919 715.228 192.086C715.229 187.103 715.217 182.12 715.203 177.137C715.19 171.932 715.189 166.727 715.187 161.522C715.181 151.662 715.164 141.802 715.144 131.943C715.122 120.719 715.111 109.496 715.101 98.2721C715.08 75.1814 715.045 52.0907 715 29Z" fill="#EFEFEF"/>
<path d="M676 654C676.33 654 676.66 654 677 654C677 729.24 677 804.48 677 882C678.65 882 680.3 882 682 882C682 876.06 682 870.12 682 864C682.33 864 682.66 864 683 864C683 870.93 683 877.86 683 885C681.35 885 679.7 885 678 885C678 884.34 678 883.68 678 883C677.01 883 676.02 883 675 883C674.969 861.708 674.949 840.417 674.937 819.125C674.937 817.943 674.937 817.943 674.936 816.738C674.913 774.593 674.973 732.454 675.5 690.312C675.512 689.355 675.524 688.398 675.536 687.412C675.677 676.274 675.83 665.137 676 654Z" fill="#736E11"/>
<path d="M693 87C693.66 87 694.32 87 695 87C695.031 99.6042 695.051 112.208 695.063 124.812C695.063 125.749 695.064 126.685 695.065 127.65C695.085 152.786 694.973 177.902 694.354 203.032C694.118 212.732 693.966 222.422 694.004 232.125C694.007 233.1 694.011 234.075 694.015 235.079C694.035 239.67 694.07 244.26 694.125 248.85C694.137 250.443 694.149 252.036 694.16 253.629C694.174 254.353 694.187 255.077 694.201 255.824C694.21 257.55 694.114 259.277 694 261C693.01 261.99 693.01 261.99 692 263C691.977 240.643 691.959 218.286 691.948 195.929C691.943 185.549 691.936 175.168 691.925 164.788C691.915 155.742 691.908 146.696 691.906 137.65C691.905 132.859 691.902 128.068 691.894 123.277C691.887 118.769 691.885 114.261 691.887 109.753C691.887 108.097 691.885 106.441 691.881 104.785C691.876 102.527 691.877 100.269 691.88 98.0108C691.879 96.7461 691.878 95.4814 691.877 94.1784C691.978 91.5742 692.222 89.4682 693 87Z" fill="#D0D0D0"/>
<path d="M684 475C684.33 475 684.66 475 685 475C685.976 479.88 686.136 484.619 686.114 489.576C686.114 490.415 686.114 491.255 686.114 492.12C686.113 494.88 686.106 497.639 686.098 500.398C686.096 502.318 686.094 504.238 686.093 506.157C686.09 511.198 686.08 516.238 686.069 521.278C686.058 526.426 686.054 531.575 686.049 536.723C686.038 546.815 686.021 556.908 686 567C685.67 567 685.34 567 685 567C684.67 592.08 684.34 617.16 684 643C683.67 643 683.34 643 683 643C682.977 622.424 682.959 601.849 682.948 581.273C682.943 571.719 682.936 562.165 682.925 552.611C682.915 544.282 682.908 535.952 682.906 527.623C682.905 523.215 682.902 518.806 682.894 514.398C682.887 510.244 682.885 506.09 682.887 501.936C682.887 500.416 682.885 498.896 682.881 497.376C682.863 489.852 682.956 482.465 684 475Z" fill="#9FA2A4"/>
<path d="M691 179C691.33 179 691.66 179 692 179C692.132 192.398 692.263 205.797 692.391 219.195C692.451 225.42 692.511 231.645 692.573 237.871C692.644 245.07 692.713 252.269 692.781 259.469C692.792 260.637 692.804 261.805 692.815 263.009C692.921 274.139 693.022 285.268 692.996 296.398C692.994 297.165 692.993 297.931 692.991 298.72C692.982 302.12 692.965 305.52 692.938 308.921C692.932 310.057 692.926 311.194 692.92 312.365C692.907 313.799 692.907 313.799 692.894 315.262C693.009 318.241 693.496 321.064 694 324C693.75 326.312 693.75 326.312 693 328C692.01 328.33 691.02 328.66 690 329C689.977 309.59 689.959 290.18 689.948 270.77C689.943 261.759 689.936 252.747 689.925 243.735C689.915 235.883 689.908 228.032 689.906 220.18C689.905 216.02 689.902 211.86 689.894 207.7C689.888 203.789 689.885 199.878 689.887 195.967C689.887 194.527 689.885 193.088 689.881 191.648C689.876 189.691 689.878 187.734 689.88 185.777C689.879 184.679 689.878 183.581 689.877 182.45C690 180 690 180 691 179Z" fill="#C3C3C3"/>
<path d="M725 299C725.33 299 725.66 299 726 299C727.114 326.334 727.109 353.647 727 381C725.68 380.67 724.36 380.34 723 380C722.505 380.99 722.505 380.99 722 382C722 376.39 722 370.78 722 365C722.33 365 722.66 365 723 365C723.33 361.7 723.66 358.4 724 355C723.34 355 722.68 355 722 355C721.975 349.037 721.957 343.074 721.945 337.111C721.94 335.08 721.933 333.05 721.925 331.02C721.913 328.108 721.907 325.197 721.902 322.285C721.897 321.372 721.892 320.458 721.887 319.517C721.887 317.344 721.938 315.172 722 313C722.33 312.67 722.66 312.34 723 312C723.209 310.004 723.368 308.003 723.5 306C723.889 300.111 723.889 300.111 725 299Z" fill="#D7D7D7"/>
<path d="M683 7C683.99 7.33 684.98 7.66 686 8C685.67 8.66 685.34 9.32 685 10C684.901 11.6258 684.866 13.2557 684.861 14.8845C684.856 15.923 684.85 16.9616 684.845 18.0316C684.844 19.1814 684.843 20.3312 684.842 21.5158C684.837 22.7303 684.832 23.9448 684.827 25.1962C684.814 28.5779 684.806 31.9596 684.799 35.3414C684.791 38.9842 684.778 42.627 684.765 46.2698C684.743 52.5848 684.725 58.8997 684.709 65.2146C684.686 74.3451 684.658 83.4755 684.629 92.6059C684.581 107.418 684.538 122.231 684.497 137.043C684.458 151.435 684.417 165.826 684.372 180.218C684.37 181.104 684.367 181.991 684.364 182.904C684.35 187.352 684.337 191.8 684.323 196.248C684.209 233.165 684.102 270.083 684 307C683.67 307 683.34 307 683 307C682.998 306.372 682.997 305.745 682.995 305.098C682.892 267.93 682.784 230.762 682.669 193.594C682.655 189.135 682.641 184.677 682.628 180.218C682.624 178.886 682.624 178.886 682.619 177.528C682.575 163.138 682.535 148.748 682.495 134.358C682.455 119.602 682.411 104.847 682.363 90.091C682.334 80.9795 682.307 71.868 682.285 62.7565C682.269 56.5158 682.25 50.2752 682.227 44.0346C682.215 40.4294 682.203 36.8241 682.197 33.2189C682.189 29.3178 682.174 25.4168 682.158 21.5158C682.157 20.366 682.156 19.2162 682.155 18.0316C682.15 16.993 682.144 15.9545 682.139 14.8845C682.136 13.983 682.133 13.0815 682.131 12.1528C682.138 9.94951 682.138 9.94951 681 8C681.66 7.67 682.32 7.34 683 7Z" fill="#E2DF96"/>
<path d="M726 778C726.33 778 726.66 778 727 778C727.853 803.674 728.132 829.313 728 855C726.02 855 724.04 855 722 855C722 846.09 722 837.18 722 828C722.99 827.505 722.99 827.505 724 827C724.461 824.968 724.461 824.968 724.605 822.532C724.679 821.624 724.752 820.716 724.828 819.781C725.082 815.685 725.231 811.595 725.316 807.492C725.337 806.641 725.358 805.789 725.379 804.912C725.444 802.233 725.503 799.554 725.562 796.875C725.606 795.042 725.649 793.208 725.693 791.375C725.8 786.917 725.901 782.458 726 778Z" fill="#BDBDBD"/>
<path d="M692 782C692.99 782.33 693.98 782.66 695 783C695.33 808.41 695.66 833.82 696 860C693.525 860.495 693.525 860.495 691 861C691.495 860.01 691.495 860.01 692 859C692.66 859 693.32 859 694 859C694 855.7 694 852.4 694 849C693.34 849 692.68 849 692 849C692 826.667 692 804.333 692 782Z" fill="#C2C2C2"/>
<path d="M685 22C685.99 22 686.98 22 688 22C688.024 29.4353 688.041 36.8706 688.052 44.3059C688.057 47.7622 688.064 51.2185 688.075 54.6748C688.139 74.1405 687.788 93.5487 687 113C686.01 113.495 686.01 113.495 685 114C685 83.64 685 53.28 685 22Z" fill="#B1AFAE"/>
<path d="M741 20C741.495 20.99 741.495 20.99 742 22C725.331 24.9398 708.869 25.1599 692 25C691.67 24.34 691.34 23.68 691 23C698.557 21.9355 706.138 21.4432 713.75 20.9375C715.044 20.8466 716.338 20.7557 717.672 20.6621C725.462 20.1399 733.193 19.8768 741 20Z" fill="#252525"/>
<path d="M723 558C723.66 558 724.32 558 725 558C725.33 562.62 725.66 567.24 726 572C726.33 572 726.66 572 727 572C727 587.333 727 602.667 727 618C726.67 618 726.34 618 726 618C725.67 608.43 725.34 598.86 725 589C724.34 589.66 723.68 590.32 723 591C723 580.11 723 569.22 723 558Z" fill="#D6D6D6"/>
<path d="M715 215C715.33 215 715.66 215 716 215C716.05 219.466 716.086 223.931 716.11 228.397C716.12 229.915 716.134 231.433 716.151 232.951C716.175 235.138 716.187 237.325 716.195 239.512C716.206 240.826 716.216 242.141 716.227 243.495C716.012 246.814 715.442 249.033 714 252C713.67 252 713.34 252 713 252C712.951 247.213 712.914 242.426 712.89 237.638C712.88 236.01 712.866 234.381 712.849 232.753C712.825 230.412 712.814 228.071 712.805 225.73C712.794 225.002 712.784 224.274 712.773 223.524C712.773 219.787 712.871 218.193 715 215Z" fill="#F0F0F0"/>
<path d="M683 7C683.99 7.33 684.98 7.66 686 8C685.67 8.66 685.34 9.32 685 10C684.878 12.3792 684.814 14.7312 684.795 17.1118C684.785 17.8436 684.775 18.5754 684.765 19.3294C684.733 21.7534 684.708 24.1775 684.684 26.6016C684.663 28.2802 684.642 29.9589 684.621 31.6375C684.565 36.0598 684.516 40.4821 684.468 44.9045C684.418 49.4155 684.362 53.9265 684.307 58.4375C684.199 67.2916 684.098 76.1458 684 85C683.67 85 683.34 85 683 85C682.99 84.0648 682.979 83.1297 682.969 82.1662C682.871 73.3665 682.768 64.5668 682.661 55.7673C682.605 51.243 682.552 46.7187 682.503 42.1943C682.455 37.8306 682.403 33.467 682.347 29.1034C682.327 27.436 682.308 25.7686 682.291 24.1012C682.267 21.7713 682.237 19.4416 682.205 17.1118C682.2 16.4177 682.194 15.7236 682.188 15.0084C682.171 11.3814 682.171 11.3814 681 8C681.66 7.67 682.32 7.34 683 7Z" fill="#E6E190"/>
<path d="M714 836C716.653 837.326 716.952 838.224 718 841C718.294 843.608 718.506 846.135 718.625 848.75C718.664 849.447 718.702 850.145 718.742 850.863C718.836 852.575 718.919 854.288 719 856C717.02 856 715.04 856 713 856C712.971 852.854 712.953 849.708 712.938 846.562C712.929 845.665 712.921 844.767 712.912 843.842C712.909 842.988 712.906 842.134 712.902 841.254C712.894 840.068 712.894 840.068 712.886 838.858C713 837 713 837 714 836Z" fill="#D3D3D3"/>
<path d="M694 801C694.33 801 694.66 801 695 801C695.33 820.47 695.66 839.94 696 860C693.525 860.495 693.525 860.495 691 861C691.33 860.34 691.66 859.68 692 859C692.66 859 693.32 859 694 859C694 855.7 694 852.4 694 849C693.34 849 692.68 849 692 849C692 846.69 692 844.38 692 842C692.33 842 692.66 842 693 842C693.33 828.47 693.66 814.94 694 801Z" fill="#C8C8C8"/>
<path d="M695 644C695.33 644 695.66 644 696 644C696 654.23 696 664.46 696 675C692.662 670.55 692.523 669.338 693 664C694 661.562 694 661.562 695 660C694.34 660 693.68 660 693 660C693 657.333 693 654.667 693 652C692.959 651.175 692.918 650.35 692.875 649.5C693 647 693 647 695 644Z" fill="#D0D0D0"/>
<path d="M715 302C715.66 302 716.32 302 717 302C718.067 306.203 717.99 309.937 717.688 314.25C717.57 316.114 717.57 316.114 717.449 318.016C717.227 319.493 717.227 319.493 717 321C716.34 321.33 715.68 321.66 715 322C715 320.02 715 318.04 715 316C714.34 316 713.68 316 713 316C713.144 315.175 713.289 314.35 713.438 313.5C714.053 309.673 714.536 305.848 715 302Z" fill="#E3E3E3"/>
<path d="M715 272C715.66 272 716.32 272 717 272C718.624 274.501 719.073 275.59 718.539 278.578C718.237 279.46 717.936 280.342 717.625 281.25C717.329 282.142 717.032 283.034 716.727 283.953C716.487 284.629 716.247 285.304 716 286C715.01 286 714.02 286 713 286C712.946 284.417 712.907 282.834 712.875 281.25C712.852 280.368 712.829 279.487 712.805 278.578C713.009 275.886 713.634 274.301 715 272Z" fill="#E7E7E7"/>
<path d="M702 221C702.33 221.99 702.66 222.98 703 224C703.99 223.67 704.98 223.34 706 223C707.785 228.355 704.772 233.809 703 239C702.67 239 702.34 239 702 239C702 233.06 702 227.12 702 221Z" fill="#E8E8E8"/>
<path d="M683 7C683.99 7.33 684.98 7.66 686 8C685.67 8.66 685.34 9.32 685 10C684.845 12.1767 684.75 14.3578 684.684 16.5391C684.642 17.841 684.6 19.143 684.557 20.4844C684.517 21.8646 684.477 23.2448 684.438 24.625C684.394 26.013 684.351 27.4011 684.307 28.7891C684.2 32.1926 684.098 35.5962 684 39C683.67 39 683.34 39 683 39C682.975 38.132 682.95 37.264 682.924 36.3696C682.829 33.1529 682.73 29.9363 682.628 26.7197C682.584 25.3269 682.543 23.934 682.503 22.541C682.445 20.5402 682.381 18.5396 682.316 16.5391C682.28 15.3346 682.243 14.1301 682.205 12.8892C682.189 10.06 682.189 10.06 681 8C681.66 7.67 682.32 7.34 683 7Z" fill="#EBE76D"/>
<path d="M694 606C694.66 606.33 695.32 606.66 696 607C696 611.62 696 616.24 696 621C695.01 620.34 694.02 619.68 693 619C692.672 616.215 692.672 616.215 692.75 612.938C692.765 611.853 692.781 610.769 692.797 609.652C693 607 693 607 694 606Z" fill="#CECECE"/>
<path d="M690 681C690.33 681 690.66 681 691 681C691.081 682.958 691.139 684.916 691.188 686.875C691.24 688.511 691.24 688.511 691.293 690.18C691.196 691.11 691.1 692.041 691 693C690.01 693.66 689.02 694.32 688 695C687.946 693.042 687.907 691.084 687.875 689.125C687.852 688.034 687.829 686.944 687.805 685.82C688 683 688 683 690 681Z" fill="#B7B7B7"/>
<path d="M693 590C693.66 590 694.32 590 695 590C696.607 593.215 696.057 596.436 696 600C695.01 599.67 694.02 599.34 693 599C693 596.03 693 593.06 693 590Z" fill="#CFCFCF"/>
<path d="M713.625 22.4376C714.628 22.5395 715.631 22.6413 716.664 22.7462C717.435 22.83 718.206 22.9138 719 23.0001C719 23.3301 719 23.6601 719 24.0001C713.06 24.4951 713.06 24.4951 707 25.0001C706.67 24.3401 706.34 23.6801 706 23.0001C708.728 21.6359 710.61 22.122 713.625 22.4376Z" fill="#1D1D1D"/>
<path d="M753 878C755 879 755 879 755 879L753 878Z" fill="black"/>
<path d="M301.677 160.947L310.955 125.981C309.263 125.776 307.362 125.417 305.252 124.904L305.5 122.65L321.449 121.376C322.138 122.683 322.467 123.933 322.437 125.128C320.095 125.443 318.05 125.734 316.303 126.001L304.189 167.451L298.192 167.93L288.157 131.251L277.266 169.602L270.631 170.132L260.237 130.033C258.544 129.828 256.643 129.469 254.534 128.957L254.781 126.702L271.368 125.377C272.057 126.684 272.387 127.935 272.357 129.129C270.27 129.423 268.353 129.704 266.606 129.972L273.862 163.17L274.117 163.149C275.625 157.154 277.631 149.906 280.136 141.406C282.683 132.901 284.375 127.211 285.211 124.335L292.101 123.784L301.422 160.968L301.677 160.947ZM334.286 117.604C335.605 117.499 336.539 117.467 337.09 117.508C337.071 118.276 336.918 119.288 336.632 120.546C336.39 121.757 336.223 122.473 336.133 122.693C336.109 123.631 336.018 125.575 335.86 128.525C335.701 131.475 335.601 133.76 335.561 135.381C337.414 134.254 339.243 133.256 341.048 132.389C342.895 131.517 344.052 131.063 344.52 131.026C348.603 130.7 351.533 131.487 353.311 133.388C355.09 135.247 355.927 138.245 355.824 142.382C355.794 143.577 355.485 149.135 354.898 159.058L360.244 159.141C360.214 160.336 359.82 161.644 359.063 163.067L344.39 164.239L344.255 162.015C346.228 161.176 348.155 160.512 350.035 160.021C350.059 148.866 349.98 142.679 349.798 141.459C349.66 140.193 349.39 139.108 348.988 138.203C348.586 137.299 347.965 136.689 347.124 136.373C346.283 136.057 345.161 135.955 343.757 136.067C340.865 136.298 338.083 137.202 335.412 138.777L334.483 160.689L339.829 160.773C339.799 161.967 339.405 163.275 338.648 164.698L323.975 165.87L323.84 163.646C325.813 162.808 327.74 162.143 329.62 161.652L329.822 123.005C327.486 123.064 325.621 122.958 324.227 122.686L324.565 119.339C326.75 118.526 329.991 117.948 334.286 117.604ZM375.989 123.212C374.877 123.556 373.789 123.771 372.726 123.856C371.705 123.937 370.686 123.955 369.668 123.908C369.443 122.734 369.345 121.55 369.375 120.356C369.406 119.119 369.471 118.199 369.571 117.595C370.512 117.307 371.493 117.122 372.514 117.04C373.577 116.955 374.703 116.908 375.892 116.898C376.119 117.987 376.22 119.064 376.193 120.131C376.168 121.154 376.099 122.181 375.989 123.212ZM364.21 130.857C367.841 129.929 370.656 129.385 372.655 129.225C374.654 129.065 375.929 129.006 376.48 129.047C376.454 130.071 376.298 131.211 376.012 132.468C375.726 133.726 375.562 134.335 375.521 134.296L374.368 157.502L379.714 157.586C379.684 158.78 379.29 160.089 378.533 161.511L363.86 162.684L363.725 160.46C365.698 159.621 367.625 158.956 369.505 158.465C369.516 147.822 369.503 139.842 369.466 134.524C367 134.721 365.135 134.615 363.871 134.205L364.21 130.857ZM388.563 156.623C390.036 157.144 391.836 157.32 393.962 157.15C396.131 156.977 397.843 156.435 399.096 155.527C400.35 154.618 400.994 153.459 401.03 152.052C401.065 150.644 400.52 149.517 399.395 148.67C398.27 147.824 396.887 147.104 395.247 146.512C393.606 145.919 391.967 145.284 390.328 144.606C388.69 143.928 387.313 142.974 386.198 141.743C385.082 140.513 384.547 139.023 384.59 137.274C384.664 134.331 385.7 131.95 387.698 130.13C389.697 128.268 392.419 127.199 395.864 126.924C399.351 126.645 402.607 127.172 405.629 128.506C405.661 128.929 405.654 130.079 405.607 131.956C405.561 133.79 405.33 135.383 404.914 136.736C403.885 137.159 402.669 137.426 401.265 137.538L399.323 131.181C398.399 130.786 397.129 130.654 395.513 130.783C393.939 130.909 392.674 131.435 391.717 132.363C390.761 133.248 390.267 134.331 390.235 135.61C390.204 136.847 390.751 137.889 391.876 138.736C393.043 139.579 394.447 140.318 396.086 140.953C397.727 141.546 399.366 142.202 401.003 142.923C402.642 143.601 404.018 144.576 405.132 145.85C406.29 147.077 406.847 148.565 406.803 150.313C406.726 153.384 405.475 155.89 403.05 157.829C400.668 159.722 397.755 160.806 394.31 161.081C392.438 161.231 390.447 161.092 388.335 160.664C386.224 160.195 384.458 159.527 383.037 158.661C383.108 155.804 383.427 153.245 383.993 150.987C384.975 150.738 386.296 150.547 387.955 150.415L388.563 156.623ZM422.109 154.773L421.448 168.491L426.987 168.495C426.957 169.689 426.564 170.998 425.806 172.42L411.006 173.603L410.87 171.379C412.843 170.583 414.769 169.939 416.649 169.449C416.829 152.067 416.94 139.138 416.982 130.664C415.069 130.774 413.204 130.668 411.387 130.345L411.725 126.997C414.208 126.16 417.661 125.565 422.084 125.212C422.45 125.864 422.78 127.093 423.074 128.9C428.588 125.693 432.067 124.031 433.513 123.916C437.469 123.6 440.364 124.922 442.201 127.883C444.038 130.801 444.894 134.734 444.771 139.682C444.648 144.587 443.461 148.789 441.208 152.29C438.999 155.787 435.852 157.698 431.769 158.024C430.238 158.147 428.568 157.897 426.758 157.275C424.991 156.65 423.441 155.816 422.109 154.773ZM432.245 128.806C429.608 129.016 426.522 130.2 422.988 132.355C422.705 140.295 422.471 146.252 422.286 150.226C423.323 151.207 424.702 152.076 426.423 152.832C428.188 153.543 429.73 153.845 431.049 153.74C436.067 153.339 438.68 149.001 438.887 140.726C438.966 137.57 438.666 135.125 437.988 133.391C437.311 131.615 436.514 130.38 435.597 129.687C434.681 128.994 433.563 128.7 432.245 128.806ZM465.25 151.007C467.122 150.858 470.079 149.728 474.121 147.617C474.902 148.661 475.302 149.608 475.324 150.458C473.123 151.911 470.971 153.083 468.869 153.975C466.767 154.866 465.269 155.348 464.376 155.419C459.442 155.813 455.715 154.643 453.194 151.907C450.674 149.128 449.481 145.073 449.614 139.742C449.748 134.41 451.107 130.13 453.692 126.901C456.321 123.626 460.166 121.786 465.227 121.382C469.14 121.069 472.082 122.239 474.053 124.891C476.066 127.54 477.014 131.231 476.896 135.966C476.54 136.59 476.254 137.017 476.036 137.247L455.501 138.569C455.436 142.873 456.098 146.098 457.488 148.243C458.92 150.385 461.507 151.306 465.25 151.007ZM471.159 133.678C471.229 130.863 470.773 128.729 469.791 127.275C468.81 125.778 467.128 125.125 464.746 125.315C462.365 125.505 460.227 126.123 458.333 127.168C456.993 129.83 456.12 132.517 455.712 135.232C459.073 134.921 464.222 134.403 471.159 133.678ZM501.885 123.817C501.678 123.62 501.213 123.551 500.49 123.609C499.767 123.667 498.676 124.009 497.217 124.636C495.8 125.26 494.51 125.96 493.344 126.734C492.852 136.223 492.505 143.339 492.301 148.08L497.647 148.164C497.618 149.358 497.224 150.666 496.467 152.089L481.794 153.261L481.658 151.037C483.632 150.199 485.558 149.534 487.438 149.043C487.454 138.23 487.442 130.228 487.402 125.038C485.066 125.096 483.201 124.99 481.807 124.718L482.145 121.371C484.415 120.551 487.762 119.964 492.185 119.611C492.839 120.623 493.23 121.954 493.359 123.604C498.325 120.227 501.275 118.502 502.211 118.427C503.147 118.352 504.226 118.457 505.45 118.743C506.675 118.985 507.58 119.296 508.165 119.675C508.058 123.941 507.567 127.449 506.692 130.201C506.092 130.419 505.388 130.56 504.58 130.625C503.815 130.686 503.283 130.707 502.987 130.688L501.885 123.817ZM515.658 146.469C517.131 146.99 518.931 147.165 521.057 146.996C523.226 146.822 524.938 146.281 526.191 145.372C527.445 144.463 528.089 143.305 528.125 141.897C528.16 140.49 527.615 139.363 526.49 138.516C525.365 137.67 523.982 136.95 522.342 136.357C520.701 135.765 519.062 135.13 517.423 134.452C515.785 133.774 514.408 132.82 513.293 131.589C512.177 130.359 511.642 128.869 511.685 127.12C511.759 124.177 512.795 121.796 514.793 119.976C516.792 118.113 519.514 117.045 522.959 116.769C526.446 116.491 529.702 117.018 532.724 118.352C532.756 118.775 532.749 119.925 532.702 121.801C532.656 123.635 532.425 125.229 532.009 126.582C530.98 127.005 529.764 127.272 528.36 127.384L526.418 121.026C525.494 120.632 524.224 120.499 522.608 120.628C521.034 120.754 519.769 121.281 518.812 122.209C517.856 123.094 517.362 124.176 517.33 125.456C517.299 126.693 517.846 127.735 518.971 128.581C520.138 129.425 521.542 130.164 523.181 130.799C524.822 131.392 526.461 132.048 528.098 132.769C529.737 133.447 531.113 134.422 532.227 135.695C533.385 136.922 533.942 138.41 533.898 140.159C533.821 143.23 532.57 145.735 530.145 147.674C527.763 149.567 524.85 150.651 521.405 150.927C519.533 151.076 517.542 150.937 515.43 150.51C513.319 150.04 511.553 149.372 510.132 148.507C510.203 145.649 510.522 143.091 511.088 140.832C512.07 140.583 513.391 140.393 515.05 140.26L515.658 146.469ZM570.492 143.11C574.065 142.824 576.496 141.523 577.785 139.207C579.117 136.844 579.835 133.594 579.939 129.457C580.103 122.888 578.76 118.888 575.909 117.455C574.735 116.868 573.064 116.661 570.895 116.834C568.768 117.004 566.737 117.614 564.8 118.662C563.017 122.082 562.071 125.968 561.962 130.318C561.858 134.499 562.33 137.675 563.379 139.847C564.591 142.304 566.962 143.392 570.492 143.11ZM556.079 131.363C556.214 125.946 557.553 121.625 560.095 118.4C562.639 115.131 566.484 113.292 571.63 112.881C576.776 112.469 580.463 113.58 582.689 116.211C584.916 118.8 585.962 122.825 585.825 128.284C585.689 133.744 584.348 138.129 581.804 141.44C579.302 144.747 575.562 146.6 570.586 146.997C565.61 147.395 561.904 146.244 559.467 143.544C557.073 140.84 555.943 136.78 556.079 131.363ZM612.254 105.357L611.235 105.374L610.979 105.395L609.158 99.2828C608.227 99.187 607.4 99.1679 606.677 99.2257C604.593 99.3922 603.105 100.32 602.214 102.009C601.365 103.694 600.89 106.563 600.789 110.615L600.77 111.383L601.727 111.306C604.662 111.072 606.911 111.062 608.477 111.278C608.519 111.274 608.604 111.289 608.73 111.321C608.657 112.562 608.264 113.849 607.551 115.183L600.278 115.764L599.685 139.5L600.642 139.424C602.301 139.291 603.766 139.259 605.038 139.328C606.309 139.397 606.987 139.47 607.069 139.549C607.042 140.658 606.649 141.924 605.892 143.346L589.177 144.682L589.042 142.458C591.016 141.619 592.815 140.965 594.439 140.494L595.047 116.182L590.135 116.574L589.999 114.35C591.545 113.631 593.258 113.026 595.138 112.535L595.204 109.912C595.324 105.092 596.305 101.502 598.147 99.1409C598.892 98.2301 599.93 97.4448 601.262 96.7849C602.596 96.0824 604.134 95.6615 605.878 95.5222C609.28 95.2504 612.494 95.7386 615.519 96.9868C615.453 99.6313 615.132 102.296 614.555 104.981C614.084 105.147 613.317 105.272 612.254 105.357ZM258.194 249.975L258.286 225.896L253.374 226.288L253.239 224.064C253.671 223.732 254.919 223.079 256.98 222.105L262.416 213.498C263.265 213.515 263.919 213.676 264.378 213.98L264.138 221.022C267.328 220.768 269.939 220.772 271.969 221.035C271.941 222.187 271.548 223.474 270.791 224.897L263.9 225.447C263.687 230.572 263.408 238.342 263.063 248.756C265.442 248.694 267.813 248.93 270.176 249.465L270.057 251.709C269.452 252.141 267.909 252.711 265.43 253.42C262.993 254.126 260.987 254.541 259.414 254.667C259.209 254.343 258.951 253.64 258.639 252.558C258.327 251.433 258.179 250.573 258.194 249.975ZM285.673 204.297C286.991 204.191 287.926 204.159 288.477 204.2C288.458 204.968 288.305 205.981 288.019 207.238C287.776 208.449 287.61 209.165 287.519 209.385C287.496 210.323 287.405 212.268 287.246 215.217C287.088 218.167 286.988 220.453 286.948 222.073C288.801 220.946 290.63 219.949 292.434 219.081C294.281 218.21 295.439 217.755 295.906 217.718C299.989 217.392 302.92 218.179 304.697 220.081C306.476 221.939 307.314 224.937 307.21 229.075C307.18 230.269 306.872 235.827 306.284 245.75L311.63 245.834C311.6 247.028 311.207 248.337 310.45 249.759L295.777 250.932L295.641 248.708C297.615 247.869 299.541 247.204 301.421 246.713C301.445 235.559 301.367 229.371 301.185 228.151C301.047 226.885 300.777 225.8 300.375 224.896C299.973 223.991 299.352 223.381 298.511 223.065C297.67 222.749 296.547 222.647 295.144 222.759C292.252 222.991 289.47 223.894 286.799 225.469L285.869 247.381L291.215 247.465C291.185 248.659 290.792 249.968 290.035 251.39L275.362 252.563L275.226 250.339C277.2 249.5 279.126 248.835 281.006 248.344L281.208 209.698C278.872 209.757 277.007 209.65 275.613 209.378L275.952 206.031C278.137 205.218 281.377 204.64 285.673 204.297ZM331.221 244.524C333.093 244.375 336.05 243.244 340.093 241.133C340.873 242.178 341.274 243.125 341.295 243.975C339.094 245.427 336.942 246.6 334.84 247.491C332.738 248.383 331.24 248.864 330.347 248.936C325.413 249.33 321.686 248.159 319.165 245.423C316.646 242.645 315.452 238.59 315.586 233.258C315.719 227.927 317.078 223.646 319.663 220.417C322.292 217.142 326.137 215.303 331.198 214.898C335.111 214.586 338.053 215.756 340.024 218.408C342.038 221.056 342.985 224.748 342.867 229.482C342.512 230.107 342.225 230.534 342.007 230.764L321.473 232.085C321.407 236.39 322.07 239.615 323.459 241.76C324.891 243.902 327.479 244.823 331.221 244.524ZM337.13 227.195C337.201 224.38 336.745 222.245 335.762 220.791C334.781 219.295 333.099 218.642 330.718 218.832C328.336 219.022 326.198 219.64 324.304 220.685C322.964 223.346 322.091 226.034 321.683 228.748C325.044 228.437 330.193 227.919 337.13 227.195ZM411.407 201.402L417.206 236.888L422.997 237C422.968 238.152 422.575 239.439 421.818 240.861L407.145 242.034L407.009 239.81C408.299 239.153 409.884 238.58 411.764 238.089L405.835 202.742L396.504 239.819L390.188 240.324L379.49 204.719L373.441 240.385L378.851 240.463C378.821 241.658 378.428 242.966 377.671 244.389L362.997 245.561L362.862 243.337C364.75 242.505 366.634 241.844 368.514 241.353L375.056 203.796C372.471 203.619 370.42 203.336 368.901 202.947L369.221 200.367L384.085 199.18L393.352 233.43L393.608 233.41L402.395 197.717L416.622 196.58C417.311 197.887 417.639 199.181 417.607 200.46C414.835 200.98 412.768 201.294 411.407 201.402ZM438.583 201.019C437.471 201.363 436.384 201.578 435.32 201.663C434.299 201.744 433.28 201.762 432.263 201.716C432.037 200.542 431.94 199.358 431.97 198.163C432.001 196.926 432.066 196.006 432.166 195.402C433.107 195.114 434.088 194.929 435.109 194.848C436.172 194.763 437.298 194.715 438.487 194.705C438.714 195.794 438.814 196.872 438.788 197.938C438.762 198.962 438.694 199.989 438.583 201.019ZM426.805 208.665C430.436 207.736 433.251 207.192 435.25 207.032C437.249 206.872 438.524 206.813 439.074 206.854C439.049 207.878 438.893 209.018 438.607 210.276C438.321 211.533 438.157 212.142 438.115 212.103L436.962 235.31L442.308 235.393C442.278 236.588 441.885 237.896 441.128 239.319L426.455 240.491L426.319 238.267C428.293 237.428 430.219 236.764 432.099 236.273C432.111 225.63 432.098 217.649 432.061 212.331C429.594 212.528 427.729 212.422 426.466 212.012L426.805 208.665ZM466.497 204.089C470.58 203.762 473.51 204.55 475.288 206.451C477.067 208.31 477.904 211.308 477.801 215.445C477.771 216.639 477.462 222.198 476.875 232.121L482.221 232.204C482.191 233.399 481.797 234.707 481.04 236.13L466.367 237.302L466.232 235.078C468.205 234.239 470.132 233.575 472.012 233.084C472.036 221.929 471.957 215.742 471.775 214.522C471.637 213.256 471.367 212.171 470.965 211.266C470.563 210.362 469.942 209.752 469.101 209.436C468.26 209.12 467.138 209.018 465.734 209.13C462.927 209.354 460.188 210.254 457.517 211.83C457.019 221.575 456.666 228.883 456.46 233.752L461.806 233.836C461.776 235.03 461.382 236.338 460.625 237.761L445.952 238.933L445.817 236.709C447.79 235.871 449.717 235.206 451.597 234.715C451.612 223.901 451.6 215.9 451.56 210.709C449.224 210.768 447.359 210.662 445.965 210.39L446.304 207.043C448.616 206.22 451.963 205.633 456.344 205.283C456.835 206.01 457.19 207.088 457.409 208.518C459.262 207.391 461.112 206.392 462.959 205.521C464.85 204.603 466.029 204.126 466.497 204.089ZM507.759 204.432L507.888 191.651C505.552 191.71 503.687 191.603 502.293 191.332L502.631 187.984C504.816 187.171 507.972 186.6 512.097 186.27C513.416 186.165 514.35 186.133 514.901 186.174C514.882 186.942 514.729 187.976 514.442 189.276C514.198 190.529 514.032 191.224 513.944 191.359L512.424 229.217C514.166 229.163 516.009 229.313 517.952 229.669L517.769 231.918C514.8 233.518 512.188 234.408 509.934 234.588C509.466 234.625 509.106 234.633 508.851 234.61C508.527 233.998 508.139 232.56 507.686 230.298C502.725 233.461 499.264 235.227 497.303 235.597C493.22 235.923 490.196 234.611 488.233 231.66C486.269 228.71 485.348 224.803 485.469 219.941C485.592 215.036 486.716 210.838 488.84 207.348C491.009 203.812 494.113 201.882 498.153 201.559C501.301 201.308 504.503 202.265 507.759 204.432ZM499.129 205.823C494.153 206.221 491.563 210.515 491.358 218.704C491.278 221.903 491.719 224.635 492.681 226.899C493.16 228.138 493.878 229.102 494.837 229.792C495.839 230.478 496.999 230.768 498.317 230.663C499.636 230.558 501.174 230.137 502.933 229.4C504.734 228.66 506.282 227.856 507.578 226.986L507.651 208.782C506.527 207.893 505.145 207.152 503.504 206.559C501.863 205.967 500.405 205.722 499.129 205.823Z" fill="black"/>
<path d="M351.552 372.023C352.03 371.834 353.333 371.581 355.461 371.266C357.588 370.923 359.517 370.7 361.247 370.595C363.004 370.488 364.362 370.486 365.322 370.588C365.349 370.693 365.364 370.826 365.365 370.986C365.366 371.119 365.289 371.457 365.134 372C365.005 372.542 364.901 372.895 364.823 373.06C364.612 373.286 364.014 373.482 363.03 373.648L370.836 395.306L374.632 395.396C374.638 396.142 374.419 396.956 373.973 397.837L364.79 398.393L364.659 397C365.268 396.643 366.158 396.309 367.327 395.998L365.244 390.402L354.104 391.077L352.271 396.431L355.507 396.555C355.513 397.301 355.294 398.115 354.848 398.996L345.665 399.552L345.534 398.159C346.569 397.723 347.671 397.363 348.84 397.079L356.401 373.93C354.03 373.807 352.364 373.588 351.402 373.272L351.552 372.023ZM362.017 381.673L359.837 373.962C359.677 373.945 359.451 373.945 359.158 373.963L357.068 382.253L354.802 388.474L364.504 387.886L362.017 381.673ZM376.697 407.316C375.845 407.368 374.806 407.257 373.579 406.985C372.325 406.714 371.47 406.446 371.015 406.18C371.129 403.745 371.367 401.956 371.731 400.814C372.315 400.672 372.821 400.588 373.247 400.562C373.646 400.538 373.912 400.535 374.045 400.554L375.079 404.853C375.48 404.962 376.066 404.993 376.838 404.947C379.153 404.806 380.296 402.829 380.265 399.016C380.246 396.776 380.166 393.433 380.023 388.986C379.906 384.511 379.829 381.541 379.79 380.076C378.326 380.085 377.153 379.996 376.273 379.809L376.416 377.72C377.77 377.237 379.738 376.918 382.32 376.761C383.145 376.711 383.731 376.703 384.077 376.735C384.083 377.375 384.008 378.086 383.855 378.869C383.702 379.652 383.612 380.031 383.585 380.006C383.537 383.958 383.493 389.977 383.452 398.063C383.424 401.106 382.936 403.363 381.99 404.834C381.07 406.331 379.306 407.158 376.697 407.316ZM383.648 373.119C382.958 373.321 382.279 373.442 381.614 373.483C380.975 373.521 380.336 373.52 379.697 373.479C379.531 372.742 379.445 372 379.439 371.253C379.432 370.48 379.454 369.905 379.505 369.529C380.089 369.36 380.701 369.256 381.34 369.217C382.005 369.177 382.711 369.161 383.456 369.169C383.622 369.853 383.707 370.528 383.713 371.195C383.718 371.835 383.696 372.476 383.648 373.119ZM403.628 382.954L403.513 393.285C404.658 393.296 405.804 393.413 406.951 393.637L406.883 395.042C406.458 395.281 405.689 395.568 404.573 395.902C403.483 396.209 402.406 396.394 401.342 396.458C400.855 395.528 400.581 394.624 400.521 393.747C397.502 395.931 395.381 397.06 394.157 397.134C392.267 397.248 390.746 396.834 389.593 395.89C388.44 394.946 387.856 393.567 387.841 391.754C387.807 387.567 390.345 385.253 395.454 384.81C398.435 384.549 399.938 384.418 399.965 384.416L399.914 383.059C399.846 381.222 399.489 379.923 398.844 379.162C398.198 378.374 397.05 378.03 395.4 378.13C394.708 378.172 393.964 378.377 393.168 378.745L392.242 382.803C392.109 382.838 391.883 382.865 391.564 382.884L389.926 382.864C389.491 381.743 389.251 380.17 389.208 378.145C389.712 377.848 390.866 377.377 392.672 376.734C394.477 376.065 395.633 375.715 396.139 375.684C398.854 375.519 400.775 376.003 401.903 377.136C403.031 378.268 403.606 380.207 403.628 382.954ZM395.013 394.361C395.785 394.314 397.561 393.339 400.342 391.437L400.101 386.449C398.293 386.719 396.777 386.957 395.553 387.165C394.33 387.372 393.348 387.792 392.608 388.424C391.867 389.029 391.502 389.945 391.512 391.171C391.53 393.438 392.697 394.501 395.013 394.361ZM413.421 402.89C414.432 402.829 415.409 401.796 416.351 399.791C417.32 397.785 417.867 396.244 417.991 395.169L417.033 395.228L410.581 378.01L407.225 377.894C407.218 377.147 407.438 376.333 407.884 375.453L417.067 374.896L417.198 376.289C416.349 376.714 415.407 377.064 414.37 377.341L417.933 388.05L418.88 391.514L419.28 391.49L423.953 376.76L420.592 376.083L420.7 374.676L429.684 374.132C430.143 374.957 430.376 375.744 430.382 376.49C429.292 376.69 428.201 376.849 427.11 376.969C426.435 379.037 425.421 382.127 424.07 386.237C422.746 390.346 421.693 393.531 420.912 395.793C420.159 398.053 419.401 399.9 418.641 401.333C417.88 402.766 417.116 403.733 416.348 404.233C415.606 404.758 414.77 405.049 413.838 405.106C412.188 405.206 410.641 404.979 409.199 404.426L408.477 404.11C408.639 401.059 408.745 399.385 408.796 399.088C409.008 398.995 409.78 398.909 411.11 398.828L412.501 402.825C412.741 402.891 413.048 402.912 413.421 402.89ZM465.203 377.662C465.252 383.688 463.915 387.865 461.191 390.191C460.054 391.167 458.821 391.868 457.493 392.296C456.165 392.696 454.423 392.962 452.267 393.093L442.125 393.707L441.994 392.314C442.1 392.228 442.644 392.022 443.627 391.695C444.609 391.369 445.194 391.2 445.38 391.189C445.136 380.799 444.939 373.074 444.792 368.014C443.593 367.926 442.419 367.677 441.27 367.267C441.316 366.357 441.378 365.846 441.457 365.735L451.519 365.125C454.287 364.957 456.472 365.078 458.073 365.488C459.701 365.896 461.119 366.744 462.328 368.032C464.208 369.972 465.167 373.182 465.203 377.662ZM461.333 378.217C461.303 374.617 460.603 371.951 459.23 370.22C457.884 368.461 455.628 367.677 452.46 367.869L448.388 368.116C448.321 373.029 448.249 380.53 448.172 390.619L452.364 390.365C456.011 390.144 458.426 389.184 459.611 387.485C460.795 385.759 461.369 382.67 461.333 378.217ZM473.704 362.06C474.529 362.01 475.115 362.001 475.461 362.033C475.465 362.513 475.391 363.145 475.237 363.928C475.11 364.683 475.021 365.128 474.968 365.265C474.973 365.851 474.957 367.066 474.918 368.909C474.88 370.753 474.865 372.181 474.873 373.194C476.013 372.511 477.14 371.91 478.254 371.389C479.395 370.866 480.112 370.596 480.405 370.578C482.96 370.423 484.815 370.951 485.97 372.162C487.125 373.345 487.713 375.231 487.734 377.817C487.74 378.564 487.662 382.037 487.499 388.236L490.856 388.353C490.862 389.1 490.642 389.913 490.197 390.794L481.014 391.351L480.882 389.958C482.103 389.457 483.298 389.064 484.468 388.78C484.251 381.803 484.073 377.932 483.934 377.167C483.821 376.374 483.629 375.692 483.358 375.121C483.087 374.551 482.684 374.161 482.15 373.954C481.616 373.746 480.909 373.669 480.031 373.722C478.221 373.832 476.494 374.363 474.851 375.316L474.723 389.011L478.079 389.127C478.085 389.874 477.866 390.688 477.42 391.568L468.237 392.125L468.106 390.732C469.327 390.231 470.522 389.839 471.691 389.554L471.015 365.384C469.55 365.393 468.378 365.304 467.497 365.117L467.64 363.028C468.994 362.545 471.016 362.223 473.704 362.06ZM508.943 376.572L508.827 386.904C509.973 386.915 511.119 387.032 512.266 387.256L512.197 388.661C511.773 388.9 511.003 389.187 509.887 389.521C508.798 389.827 507.721 390.012 506.656 390.077C506.169 389.146 505.896 388.242 505.835 387.365C502.817 389.549 500.696 390.678 499.471 390.752C497.582 390.867 496.06 390.452 494.907 389.508C493.755 388.564 493.171 387.186 493.156 385.372C493.122 381.186 495.659 378.871 500.769 378.428C503.75 378.167 505.253 378.036 505.28 378.035L505.229 376.677C505.16 374.84 504.804 373.541 504.158 372.78C503.513 371.992 502.365 371.648 500.714 371.748C500.022 371.79 499.278 371.995 498.482 372.364L497.557 376.422C497.424 376.456 497.198 376.483 496.878 376.503L495.24 376.482C494.805 375.361 494.566 373.788 494.523 371.763C495.026 371.466 496.181 370.996 497.987 370.353C499.792 369.683 500.948 369.333 501.453 369.302C504.168 369.138 506.09 369.622 507.218 370.754C508.345 371.886 508.92 373.826 508.943 376.572ZM500.328 387.979C501.1 387.932 502.876 386.958 505.657 385.055L505.416 380.067C503.607 380.337 502.091 380.576 500.868 380.783C499.645 380.991 498.663 381.41 497.922 382.042C497.182 382.647 496.816 383.563 496.826 384.79C496.845 387.056 498.012 388.12 500.328 387.979ZM530.045 372.652L529.885 372.662L525.462 388.657L521.509 388.897L515.896 371.629L512.539 371.512C512.533 370.765 512.753 369.952 513.198 369.071L522.382 368.515L522.513 369.907C521.664 370.332 520.721 370.683 519.685 370.959L522.609 381.707L523.356 385.183L523.756 385.159L524.525 381.551L528.45 368.147C528.77 368.101 528.996 368.074 529.129 368.066L531.884 367.979L536.264 380.879L537.171 384.346L537.53 384.324L538.14 380.726L541.405 369.643L538.044 368.966L538.153 367.559L547.136 367.015C547.596 367.84 547.828 368.627 547.834 369.373C546.744 369.573 545.654 369.732 544.563 369.852L539.237 387.823L535.284 388.062L530.045 372.652ZM564.778 373.189L564.663 383.521C565.808 383.531 566.954 383.649 568.101 383.873L568.032 385.277C567.608 385.516 566.838 385.803 565.722 386.138C564.633 386.444 563.556 386.629 562.491 386.694C562.004 385.763 561.731 384.859 561.67 383.982C558.652 386.166 556.531 387.295 555.307 387.369C553.417 387.484 551.895 387.069 550.742 386.125C549.59 385.181 549.006 383.802 548.991 381.989C548.957 377.803 551.495 375.488 556.604 375.045C559.585 374.784 561.088 374.653 561.115 374.651L561.064 373.294C560.996 371.457 560.639 370.158 559.993 369.397C559.348 368.609 558.2 368.265 556.55 368.365C555.857 368.407 555.113 368.612 554.318 368.98L553.392 373.038C553.259 373.073 553.033 373.1 552.714 373.12L551.076 373.099C550.64 371.978 550.401 370.405 550.358 368.38C550.862 368.083 552.016 367.613 553.822 366.97C555.627 366.3 556.783 365.95 557.289 365.919C560.004 365.755 561.925 366.238 563.053 367.371C564.18 368.503 564.756 370.442 564.778 373.189ZM556.163 384.596C556.935 384.549 558.711 383.574 561.492 381.672L561.251 376.684C559.443 376.954 557.926 377.192 556.703 377.4C555.48 377.607 554.498 378.027 553.757 378.659C553.017 379.264 552.651 380.18 552.661 381.406C552.68 383.673 553.847 384.736 556.163 384.596ZM582.645 364.383C585.2 364.228 587.055 364.756 588.21 365.966C589.365 367.15 589.953 369.035 589.974 371.622C589.98 372.369 589.902 375.842 589.739 382.041L593.096 382.158C593.102 382.904 592.882 383.718 592.437 384.599L583.253 385.155L583.122 383.763C584.343 383.262 585.538 382.869 586.708 382.585C586.491 375.608 586.313 371.737 586.174 370.972C586.061 370.178 585.869 369.496 585.598 368.926C585.327 368.355 584.924 367.966 584.39 367.759C583.855 367.551 583.149 367.474 582.271 367.527C580.514 367.633 578.814 368.163 577.171 369.116C577.06 375.206 576.991 379.772 576.963 382.815L580.319 382.932C580.325 383.679 580.106 384.492 579.66 385.373L570.477 385.93L570.346 384.537C571.567 384.036 572.762 383.643 573.931 383.359C573.716 376.596 573.542 371.591 573.409 368.344C571.945 368.353 570.772 368.264 569.892 368.077L570.035 365.987C571.469 365.5 573.557 365.173 576.298 365.007C576.621 365.468 576.867 366.147 577.034 367.044C578.173 366.361 579.314 365.758 580.454 365.236C581.622 364.685 582.352 364.4 582.645 364.383Z" fill="black"/>
</g>
<defs>
<clipPath id="clip0_43_13">
<rect width="980" height="903" fill="white"/>
</clipPath>
</defs>
</svg>
