<?xml version="1.0" encoding="utf-8"?>
<!-- Generator: Adobe Illustrator 27.5.0, SVG Export Plug-In . SVG Version: 6.00 Build 0)  -->
<svg version="1.1" id="Layer_1" xmlns="http://www.w3.org/2000/svg" xmlns:xlink="http://www.w3.org/1999/xlink" x="0px" y="0px"
	 viewBox="0 0 899.999 900" style="enable-background:new 0 0 899.999 900;" xml:space="preserve">
<linearGradient id="SVGID_1_" gradientUnits="userSpaceOnUse" x1="449.4995" y1="900" x2="449.4995" y2="-1">
	<stop  offset="0" style="stop-color:#DBD6ED"/>
	<stop  offset="0.2106" style="stop-color:#E8E5F4"/>
	<stop  offset="0.5493" style="stop-color:#F9F8FC"/>
	<stop  offset="0.7858" style="stop-color:#FFFFFF"/>
</linearGradient>
<rect x="-1" y="-1" style="opacity:0.7;fill:url(#SVGID_1_);" width="900.999" height="901"/>
<defs>
	<filter id="Adobe_OpacityMaskFilter" filterUnits="userSpaceOnUse" x="89.63" y="538.674" width="140.934" height="66.299">
		<feColorMatrix  type="matrix" values="1 0 0 0 0  0 1 0 0 0  0 0 1 0 0  0 0 0 1 0"/>
	</filter>
</defs>
<mask maskUnits="userSpaceOnUse" x="89.63" y="538.674" width="140.934" height="66.299" id="SVGID_00000086691313522276016050000016420687999980917686_">
	<g style="filter:url(#Adobe_OpacityMaskFilter);">
		
			<radialGradient id="SVGID_00000012469541104716519140000005575162326519361981_" cx="258.991" cy="580.5233" r="182.1645" gradientUnits="userSpaceOnUse">
			<stop  offset="0" style="stop-color:#FFFFFF"/>
			<stop  offset="0.1063" style="stop-color:#CDCCCC"/>
			<stop  offset="0.2178" style="stop-color:#A09F9F"/>
			<stop  offset="0.3338" style="stop-color:#7A7778"/>
			<stop  offset="0.4526" style="stop-color:#5A5758"/>
			<stop  offset="0.5751" style="stop-color:#423E3F"/>
			<stop  offset="0.703" style="stop-color:#312D2E"/>
			<stop  offset="0.8396" style="stop-color:#262223"/>
			<stop  offset="1" style="stop-color:#231F20"/>
		</radialGradient>
		
			<rect x="6.991" y="475.19" style="fill:url(#SVGID_00000012469541104716519140000005575162326519361981_);" width="269.333" height="180"/>
	</g>
</mask>
<g style="mask:url(#SVGID_00000086691313522276016050000016420687999980917686_);">
	<path style="fill:#414042;" d="M108.736,539.219c2.743-0.363,6.591-0.454,8.965-0.454c2.505,0,5.906,0.09,8.705,0.454
		l-18.162,65.25c-3.169,0.403-6.811,0.504-9.451,0.504c-2.502,0-6.502-0.101-9.163-0.504L108.736,539.219z"/>
	<path style="fill:#414042;" d="M153.151,539.309c3.939-0.454,8.994-0.635,12.025-0.635c3.164,0,7.471,0.181,11.054,0.635
		l4.275,25.652c0.336,2.653,1.485,12.511,1.429,16.381h0.955c1.684-3.87,7.263-13.728,8.792-16.381l15.672-25.652
		c4.052-0.454,8.307-0.635,11.339-0.635c3.163,0,8.005,0.181,11.872,0.635l-5.177,64.959c-2.734,0.503-6.525,0.705-9.581,0.705
		c-2.918,0-5.539-0.101-8.118-0.403l3.76-31.519c0.661-5.911,1.889-14.579,3.086-20.447H213.6l-24.656,41.681
		c-2.821,0.297-7.001,0.495-9.621,0.495c-2.481,0-6.573-0.198-9.26-0.495l-5.923-41.681h-0.933
		c-1.575,5.868-4.108,14.536-6.104,20.447l-10.405,31.519c-2.715,0.302-5.521,0.403-8.439,0.403c-2.918,0-6.618-0.202-9.126-0.705
		L153.151,539.309z"/>
</g>
<g>
	<path style="fill:#414042;" d="M280.46,582.023h-12.557l-3.523,22.446c-2.982,0.403-6.75,0.504-9.39,0.504
		c-2.502,0-6.376-0.101-9.225-0.504l11.107-64.797l1.016-0.544c10.578-0.181,19.439-0.363,28.93-0.363
		c18.191,0,30.411,6.835,28.655,21.299C313.734,574.393,299.296,582.023,280.46,582.023z M269.446,572.189
		c4.484-0.096,9.374-0.191,11.405-0.191c12.051,0,15.435-6.942,16.116-11.934c0.688-5.045-0.796-11.708-12.62-11.708
		c-3.322,0-7.174,0-11.146-0.093L269.446,572.189z"/>
	<path style="fill:#414042;" d="M341.566,543.495c6.14-3.279,13.342-5.546,24.539-5.546c11.329,0,18.159,2.267,23.629,5.546
		c10.507,6.427,13.278,17.32,12.763,27.451c-0.524,10.299-4.554,21.854-16.276,28.809c-6.193,3.607-13.733,6.123-25.693,6.123
		c-11.821,0-18.947-2.516-24.687-6.123c-10.443-6.955-12.713-18.51-11.546-28.809C325.444,560.815,330.137,549.922,341.566,543.495z
		 M361.391,595.375c17.517,0,21.31-13.547,22.03-24.429c0.707-10.695-1.24-23.419-18.101-23.419
		c-16.862,0-20.897,12.724-21.946,23.419C342.306,581.828,343.873,595.375,361.391,595.375z"/>
	<path style="fill:#414042;" d="M417.792,588.369c7.706,3.543,17.953,6.51,27.604,6.51c9.514,0,14.22-3.559,14.379-7.785
		c0.017-3.32-2.694-6.431-10.434-8.85l-15.932-4.81c-11.131-3.441-18.629-8.473-18.28-16.925c0.45-10.91,13.94-18.56,31.723-18.56
		c11.725,0,22.665,2.539,29.55,4.998c-0.236,3.477-2.602,7.066-6.186,9.378c-6.926-2.312-16.349-4.431-23.388-4.431
		c-8.633,0-13.236,3.321-13.334,7.031c-0.084,3.171,3.081,5.232,9.349,7.112l15.823,4.723c12.285,3.71,20.327,9.94,20.414,18.476
		c0.119,11.729-11.473,20.643-35.114,20.643c-11.404,0-24.378-2.717-34.023-7.42C410.662,594.583,414.136,590.532,417.792,588.369z"
		/>
	<path style="fill:#414042;" d="M494.059,588.369c7.918,3.543,18.343,6.51,27.994,6.51c9.515,0,14.007-3.559,13.913-7.785
		c-0.182-3.321-3.081-6.431-10.965-8.85l-16.221-4.81c-11.338-3.441-19.138-8.473-19.297-16.925
		c-0.205-10.91,12.825-18.56,30.609-18.56c11.724,0,22.817,2.539,29.849,4.998c-0.028,3.477-2.177,7.066-5.623,9.378
		c-7.064-2.312-16.616-4.431-23.654-4.431c-8.632,0-13.037,3.321-12.912,7.031c0.107,3.171,3.395,5.232,9.777,7.111l16.107,4.723
		c12.507,3.71,20.924,9.941,21.523,18.476c0.823,11.729-10.233,20.643-33.875,20.643c-11.403,0-24.54-2.717-34.469-7.42
		C487.303,594.583,490.534,590.532,494.059,588.369z"/>
	<path style="fill:#414042;" d="M567.617,539.219c2.606-0.363,6.422-0.454,8.794-0.454c2.505,0,5.94,0.09,8.876,0.454l6.362,65.25
		c-3.018,0.403-6.621,0.504-9.262,0.504c-2.501,0-6.54-0.101-9.353-0.504L567.617,539.219z"/>
	<path style="fill:#414042;" d="M637.31,538.765c18.982,0,30.853,5.644,32.661,16.627c0.955,5.8-3.313,10.99-10.269,13.078
		c9.506,2,18.208,8.713,19.563,16.766c2.089,12.425-8.494,19.737-30.59,19.737c-10.978,0-21.427-0.202-32.566-0.403l-1.043-0.604
		l-7.443-64.294l0.861-0.544C618.615,538.947,628.346,538.765,637.31,538.765z M628.423,564.679h11.712
		c10.904,0,12.782-4.521,12.164-8.635c-0.601-3.995-3.775-8.332-14.398-8.332c-2.922,0-7.967,0-11.697-0.092L628.423,564.679z
		 M629.65,574.105l2.768,21.27c4.952-0.099,9.917-0.099,14.055-0.099c12.965,0,14.783-6.121,14.092-10.625
		c-0.701-4.569-5.009-10.546-17.623-10.546H629.65z"/>
	<path style="fill:#414042;" d="M754.383,593.097c0.336,1.485,0.646,3.47,0.591,5.063c-0.001,4.3-3.949,6.511-10.619,6.511h-33.762
		c-6.53,0-11.385-3.014-12.291-8.004L687.89,539.31l0.808-0.635h6.591c6.986,0,10.744,2.361,11.819,7.843l9.213,46.976
		c4.349-0.296,8.596-0.396,12.452-0.396H754.383z"/>
	<path style="fill:#414042;" d="M831.443,598.26c0.227,4.199-3.312,6.411-10.12,6.411h-39.041c-6.669,0-11.414-3.014-12.598-8.004
		l-13.486-56.813l0.773-0.635h54.989c0,0,1.64,3.455,2.029,4.826c0.389,1.372,0.508,3.667,0.1,5.509h-29.257l-8.777,0
		c0.605,2.403,1.134,3.979,1.743,6.397l2.435,9.674c3.344-0.095,6.847-0.095,8.733-0.095h22.766
		c1.256,1.611,2.133,3.797,2.531,5.227c0.398,1.433,0.739,3.637,0.378,5.271h-22.958h-8.83l2.885,11.46
		c0.544,2.159,0.828,3.833,1.399,6.105c2.868-0.1,5.872-0.198,9.591-0.198h33.742C830.779,594.483,831.375,596.568,831.443,598.26z"
		/>
</g>
<linearGradient id="SVGID_00000037694510410674280300000007874769422244493967_" gradientUnits="userSpaceOnUse" x1="101.7158" y1="440.0085" x2="1150.1011" y2="440.0085">
	<stop  offset="0" style="stop-color:#474261"/>
	<stop  offset="0.7858" style="stop-color:#CCC9D6"/>
</linearGradient>
<polygon style="opacity:0.7;fill:url(#SVGID_00000037694510410674280300000007874769422244493967_);" points="196.142,581.278 
	899.999,427.857 899.999,298.74 101.716,480.825 "/>
<linearGradient id="SVGID_00000116922627260872704300000010037776613223182999_" gradientUnits="userSpaceOnUse" x1="219.2081" y1="636.2946" x2="277.8675" y2="636.2946">
	<stop  offset="0" style="stop-color:#474261"/>
	<stop  offset="0.2681" style="stop-color:#5E597B"/>
	<stop  offset="0.7858" style="stop-color:#948EB8"/>
</linearGradient>
<path style="opacity:0.7;fill:url(#SVGID_00000116922627260872704300000010037776613223182999_);" d="M226.582,644.815
	c0,0,11.304,0.231,28.642,0.267c19.62,0.041,16.674-16.623,1.051-16.415c-22.074,0.293-25.957-1.159-25.957-1.159L226.582,644.815z"
	/>
<path style="opacity:0.6;fill:#BCBEC0;" d="M124.443,644.937c0,0,0.692,0.641,15.54-2.531c16.804-3.59,11.202-17.311-2.134-14.246
	c-18.842,4.33-13.407,1.271-13.407,1.271V644.937z"/>
<linearGradient id="SVGID_00000145033994540650530400000004722555039355040412_" gradientUnits="userSpaceOnUse" x1="277.6724" y1="669.8773" x2="311.3031" y2="669.6974">
	<stop  offset="0" style="stop-color:#474261"/>
	<stop  offset="0.3412" style="stop-color:#5E597B"/>
	<stop  offset="1" style="stop-color:#948EB8"/>
</linearGradient>
<path style="opacity:0.7;fill:url(#SVGID_00000145033994540650530400000004722555039355040412_);" d="M287.801,676.701
	c0,0,0.631,0.692,14.158,0.105c15.309-0.664,10.206-14.032-1.944-13.309c-17.165,1.021-12.214-0.922-12.214-0.922V676.701z"/>
<path style="opacity:0.6;fill:#BCBEC0;" d="M210.414,682.665c0,0,0.313,0.29,7.039-1.147c7.611-1.626,5.074-7.84-0.966-6.452
	c-8.534,1.96-6.072,0.575-6.072,0.575V682.665z"/>
<path style="opacity:0.6;fill:#BCBEC0;" d="M356.431,732.532c0,0,0.314,0.29,7.038-1.147c7.611-1.626,5.075-7.84-0.966-6.452
	c-8.534,1.961-6.072,0.576-6.072,0.576V732.532z"/>
<path style="opacity:0.6;fill:#BCBEC0;" d="M70.649,561.078c0,0,0.313,0.29,7.039-1.147c7.611-1.626,5.074-7.84-0.966-6.452
	c-8.534,1.961-6.072,0.576-6.072,0.576V561.078z"/>
<path style="opacity:0.6;fill:#BCBEC0;" d="M293.481,741.389c0,0,0.448,0.416,10.063-1.639c10.881-2.325,7.254-11.21-1.381-9.225
	c-12.201,2.804-8.681,0.823-8.681,0.823V741.389z"/>
<path style="opacity:0.6;fill:#BCBEC0;" d="M80.046,636.562c0,0,0.773,0.716,17.368-2.829c18.779-4.013,12.52-19.346-2.384-15.921
	c-21.058,4.839-14.983,1.421-14.983,1.421V636.562z"/>
<path style="fill:#FF5F5F;" d="M83.532,638.471c-4.044,0.758-13.898-5.56-14.414-7.943c-0.516-2.384-1.752-15.886,7.207-15.092
	c8.958,0.794,11.816-1.589,16.742,3.971C97.992,624.967,88.77,637.489,83.532,638.471z"/>
<path style="fill:#FF5F5F;" d="M112.516,648.933c-3.59-1.911-6.214-13.884,0-16.267c6.214-2.383,14.952-8.737,18.129-3.971
	c3.177,4.766,5.56,1.83,3.971,9.255C133.027,645.375,117.962,651.831,112.516,648.933z"/>
<path style="fill:#FF5F5F;" d="M212.431,683.047c-3.561,1.009-5.892-1.229-8.297-2.974c-2.406-1.745-3.316-5.817,0-5.817
	c3.316,0,13.24,2.393,12.677,2.974C216.249,677.812,214.275,682.525,212.431,683.047z"/>
<path style="fill:#FF5F5F;" d="M279.785,672.618c-1.463-2.202-1.631-8.493,0-10.573c1.771-2.259,8.929-4.562,11.148-2.742
	c1.816,1.491-0.208,4.7,0,9.399c0.208,4.699-3.323,8.615-3.515,7.832C287.226,675.751,280.972,674.405,279.785,672.618z"/>
<path style="fill:#FF5F5F;" d="M215.078,641.134c-2.895-3.326-3.798-13.292-2.401-17.476c1.718-5.141,11.819-11.914,19.477-9.531
	c7.657,2.383,19.477,6.354,15.601,13.503c-3.877,7.149-4.039,11.015-6.899,13.503c-2.405,2.093-8.976,3.784-12.164,3.833
	C225.156,645.021,217.4,643.8,215.078,641.134z"/>
<path style="fill:#FF5F5F;" d="M69.257,551.263c1.761,0.346,4.734,4.5,4.557,5.549c-0.176,1.049-1.858,6.721-5.36,4.951
	c-3.502-1.77-5.045-1.266-6.143-4.315C61.214,554.398,66.976,550.814,69.257,551.263z"/>
<path style="fill:#FF5F5F;" d="M360.092,725.919c1.147,1.354,0.274,6.631-2.629,6.592c-2.903-0.039-7.472,1.124-7.989-1.321
	c-0.517-2.445-1.957-1.641-0.113-4.393C351.204,724.046,358.353,723.863,360.092,725.919z"/>
<path style="fill:#FF5F5F;" d="M298.882,733.018c0.637,1.816-0.609,6-1.852,7.47c-1.526,1.806-6.716,2.917-9.434,0.714
	c-2.718-2.203-6.866-5.723-4.14-7.994c2.727-2.271,3.417-3.811,4.978-4.357c1.314-0.459,4.249-0.082,5.549,0.413
	C295.427,729.814,298.372,731.563,298.882,733.018z"/>
<g>
	<g>
		<path style="fill:#F7394C;" d="M89.711,507.019c0,0,14.819,18.544,32.497,36.222c17.678,17.678,33.117,29.392,33.117,29.392
			c2.098,1.523,4.182,2.903,6.248,4.141c4.731,2.834,15.214,4.266,25.417,4.435c10.398,0.173,20.508-0.966,23.948-3.266
			c2.872-1.92,5.648-4.222,8.32-6.894l133.505-133.505c17.619-17.618,17.619-46.184,0-63.803l-27.496-27.496l-9.17-9.17
			l-27.496-27.496c-17.619-17.619-46.184-17.619-63.803,0L91.295,443.086C73.676,460.705,72.174,482.863,89.711,507.019z"/>
		<path style="fill:#E02D47;" d="M346.764,367.742l-27.496-27.496l-9.17-9.17l-27.496-27.496
			c-6.31-6.31-14.026-10.347-22.138-12.138l19.632,19.632l9.17,9.17l27.496,27.496c17.619,17.619,17.619,46.184,0,63.803
			L183.257,545.049c-2.672,2.672-5.448,4.973-8.32,6.893c-3.44,2.301-13.549,3.439-23.948,3.267
			c-6.17-0.102-12.433-0.67-17.473-1.726c9.346,8.245,15.809,13.151,15.809,13.151c2.098,1.523,4.182,2.903,6.248,4.141
			c4.732,2.834,15.214,4.266,25.418,4.435c10.398,0.172,20.507-0.966,23.948-3.267c2.872-1.92,5.648-4.222,8.32-6.893
			l133.505-133.505C364.383,413.926,364.383,385.361,346.764,367.742z"/>
		<path style="fill:#FF5C74;" d="M176.796,375.009l-74.853,74.852l-7.583,7.585l-1.171,1.171
			c-10.648,10.648,52.588,73.885,63.236,63.236l1.171-1.171l7.583-7.584l74.852-74.853L176.796,375.009z"/>
		<polygon style="fill:#F7B92A;" points="407.613,317.043 344.188,253.617 599.208,-1 726.754,-1 		"/>
		<polygon style="fill:#FFE189;" points="344.188,253.617 312.475,221.905 535.603,-1 599.208,-1 		"/>
		
			<linearGradient id="SVGID_00000139260025784797367120000000549581508098156454_" gradientUnits="userSpaceOnUse" x1="585.9389" y1="145.1421" x2="717.889" y2="277.0922">
			<stop  offset="0" style="stop-color:#DB7A14"/>
			<stop  offset="0.01" style="stop-color:#DB7B18"/>
			<stop  offset="0.0889" style="stop-color:#DB8335"/>
			<stop  offset="0.1735" style="stop-color:#DB894B"/>
			<stop  offset="0.2655" style="stop-color:#DB8E5B"/>
			<stop  offset="0.3701" style="stop-color:#DB9064"/>
			<stop  offset="0.5149" style="stop-color:#DB9167"/>
		</linearGradient>
		<polygon style="fill:url(#SVGID_00000139260025784797367120000000549581508098156454_);" points="439.326,348.756 
			407.613,317.043 726.754,-1 790.024,-1 		"/>
		
			<rect x="376.291" y="188.816" transform="matrix(0.7071 -0.7071 0.7071 0.7071 -84.8413 352.3839)" style="opacity:0.8;fill:#AF5E15;" width="13.308" height="179.576"/>
		
			<rect x="161.381" y="272.363" transform="matrix(0.7071 -0.7071 0.7071 0.7071 -176.3858 314.171)" style="fill:#C7C4C4;" width="259.327" height="195.277"/>
		
			<linearGradient id="SVGID_00000024697910426280155160000007991091876801447347_" gradientUnits="userSpaceOnUse" x1="-11238.7764" y1="133.6442" x2="-11043.3545" y2="133.6442" gradientTransform="matrix(-0.6956 -0.6955 0.6956 -0.6955 -7592.5044 -7326.0718)">
			<stop  offset="0.1165" style="stop-color:#231F20"/>
			<stop  offset="0.7018" style="stop-color:#FFFFFF"/>
		</linearGradient>
		<polygon style="opacity:0.7;fill:url(#SVGID_00000024697910426280155160000007991091876801447347_);" points="200.772,458.08 
			145.837,403.147 323.749,225.25 378.685,280.183 		"/>
		
			<linearGradient id="SVGID_00000045591860642138322660000014805058208422394261_" gradientUnits="userSpaceOnUse" x1="-9651.415" y1="31.1036" x2="-9801.3867" y2="31.1036" gradientTransform="matrix(-0.9414 -0.9217 0.707 -0.7072 -8851.0938 -8536.9551)">
			<stop  offset="0" style="stop-color:#FFFFFF"/>
			<stop  offset="1" style="stop-color:#231F20"/>
		</linearGradient>
		<polygon style="opacity:0.7;fill:url(#SVGID_00000045591860642138322660000014805058208422394261_);" points="252.959,514.5 
			216.643,478.942 399.977,295.557 436.294,331.115 		"/>
		<g>
			<g style="opacity:0.6;">
				<g>
					
						<rect x="254.578" y="304.676" transform="matrix(0.7071 -0.7071 0.7071 0.7071 -208.698 300.7851)" style="fill:#808285;" width="8.308" height="195.277"/>
				</g>
				<g>
					
						<rect x="241.143" y="318.111" transform="matrix(0.7071 -0.7071 0.7071 0.7071 -222.133 295.2199)" style="fill:#808285;" width="8.308" height="195.277"/>
				</g>
				<g>
					
						<rect x="227.708" y="331.546" transform="matrix(0.7071 -0.7071 0.7071 0.7071 -235.568 289.6551)" style="fill:#808285;" width="8.308" height="195.277"/>
				</g>
			</g>
		</g>
		<g>
			<g style="opacity:0.6;">
				<g>
					
						<rect x="353.215" y="206.039" transform="matrix(0.7071 -0.7071 0.7071 0.7071 -110.0617 341.6417)" style="fill:#808285;" width="8.308" height="195.277"/>
				</g>
				<g>
					
						<rect x="339.78" y="219.474" transform="matrix(0.7071 -0.7071 0.7071 0.7071 -123.4967 336.0768)" style="fill:#808285;" width="8.308" height="195.277"/>
				</g>
				<g>
					
						<rect x="326.345" y="232.909" transform="matrix(0.7071 -0.7071 0.7071 0.7071 -136.9317 330.5116)" style="fill:#808285;" width="8.308" height="195.277"/>
				</g>
			</g>
		</g>
	</g>
	<g>
		
			<rect x="198.007" y="361.246" transform="matrix(0.7071 -0.7071 0.7071 0.7071 -265.2682 277.3528)" style="fill:#E02D47;" width="8.308" height="195.277"/>
	</g>
	<g>
		
			<rect x="375.611" y="183.643" transform="matrix(0.7071 -0.7071 0.7071 0.7071 -87.6655 350.9185)" style="opacity:0.6;fill:#FFE189;" width="8.308" height="195.277"/>
	</g>
	<g>
		
			<rect x="350.3" y="215.872" transform="matrix(0.7071 -0.7071 0.7071 0.7071 -77.4149 325.7028)" style="fill:#FDFDFD;" width="8.308" height="80.856"/>
	</g>
</g>
</svg>
